SplineFontDB: 3.0
FontName: Topmarks-Book
FullName: Topmarks Book
FamilyName: Topmarks
Weight: Medium
Copyright: Copyright (c) 2012-13 by vernon adams. All rights reserved.
ItalicAngle: 0
UnderlinePosition: 0
UnderlineWidth: 0
Ascent: 1638
Descent: 410
UFOAscent: 1638
UFODescent: -410
LayerCount: 2
Layer: 0 0 "Back"  1
Layer: 1 0 "Fore"  0
OS2Version: 0
OS2_WeightWidthSlopeOnly: 0
OS2_UseTypoMetrics: 0
CreationTime: 1361903044
ModificationTime: 1361903044
PfmFamily: 0
TTFWeight: 400
TTFWidth: 5
LineGap: 0
VLineGap: 0
OS2TypoAscent: 1638
OS2TypoAOffset: 0
OS2TypoDescent: -410
OS2TypoDOffset: 0
OS2TypoLinegap: 0
OS2WinAscent: 1638
OS2WinAOffset: 0
OS2WinDescent: 410
OS2WinDOffset: 0
HheadAscent: 1960
HheadAOffset: 0
HheadDescent: -625
HheadDOffset: 0
OS2Vendor: 'newt'
DEI: 91125
LangName: 1033 "" "" "" "" "" "" "" "Topmarks is a trademark of vernon adams." "vernon adams" "vernon adams" "Copyright (c) 2011 by vernon adams. All rights reserved." 
Encoding: UnicodeBmp
Compacted: 1
UnicodeInterp: none
NameList: AGL For New Fonts
DisplaySize: -48
AntiAlias: 1
FitToEm: 1
WinInfo: 0 21 11
BeginPrivate: 7
BlueValues 37 [-35 0 1026 1048 1449 1483 1490 1532]
OtherBlues 11 [-494 -457]
StemSnapH 20 [20 125 137 142 148]
StemSnapV 9 [165 172]
BlueFuzz 1 1
BlueShift 1 7
BlueScale 8 0.039625
EndPrivate
BeginChars: 65545 333

StartChar: A
Encoding: 65 65 1
Width: 1425
VWidth: 0
GlyphClass: 2
Flags: W
LayerCount: 2
Fore
SplineSet
13 0 m 1
 199 0 l 1
 354 395 l 1
 1059 395 l 1
 1216 0 l 1
 1407 0 l 1
 802 1456 l 1
 617 1456 l 1
 13 0 l 1
408 531 m 1
 602 1026 l 1
 706 1298 l 1
 808 1027 l 1
 1005 531 l 1
 408 531 l 1
EndSplineSet
EndChar

StartChar: AE
Encoding: 198 198 2
Width: 2028
VWidth: 0
GlyphClass: 2
Flags: W
LayerCount: 2
Fore
SplineSet
5 0 m 1
 201 0 l 1
 427 398 l 1
 1073 398 l 1
 1104 0 l 1
 1901 0 l 1
 1901 148 l 1
 1257 148 l 1
 1216 672 l 1
 1837 672 l 1
 1837 820 l 1
 1197 820 l 1
 1159 1308 l 1
 1878 1308 l 1
 1878 1456 l 1
 836 1456 l 1
 5 0 l 1
506 546 m 1
 944 1308 l 1
 994 1308 l 1
 1054 546 l 1
 506 546 l 1
EndSplineSet
EndChar

StartChar: Aacute
Encoding: 193 193 3
Width: 1425
VWidth: 0
GlyphClass: 2
Flags: W
LayerCount: 2
Fore
SplineSet
13 0 m 1
 199 0 l 1
 355 397 l 1
 1053 397 l 1
 1216 0 l 1
 1407 0 l 1
 802 1456 l 1
 617 1456 l 1
 13 0 l 1
410 545 m 1
 655 1149 l 1
 670 1191 692 1252 707 1298 c 1
 721 1252 742 1192 760 1150 c 1
 994 545 l 1
 410 545 l 1
632 1602 m 1
 762 1602 l 1
 1070 1922 l 1
 858 1922 l 1
 632 1602 l 1
EndSplineSet
EndChar

StartChar: Abreve
Encoding: 258 258 4
Width: 1425
VWidth: 0
GlyphClass: 2
Flags: W
LayerCount: 2
Fore
SplineSet
13 0 m 1
 199 0 l 1
 355 397 l 1
 1053 397 l 1
 1216 0 l 1
 1407 0 l 1
 802 1456 l 1
 617 1456 l 1
 13 0 l 1
715 1648 m 0
 881 1648 982 1730 995 1884 c 1
 909 1884 l 1
 889 1800 810 1755 708 1755 c 0
 606 1755 533 1796 518 1884 c 1
 431 1884 l 1
 444 1724 544 1648 715 1648 c 0
410 545 m 1
 655 1149 l 1
 670 1191 692 1252 707 1298 c 1
 721 1252 742 1192 760 1150 c 1
 994 545 l 1
 410 545 l 1
EndSplineSet
EndChar

StartChar: Acircumflex
Encoding: 194 194 5
Width: 1425
VWidth: 0
GlyphClass: 2
Flags: W
LayerCount: 2
Fore
SplineSet
13 0 m 1
 199 0 l 1
 355 397 l 1
 1053 397 l 1
 1216 0 l 1
 1407 0 l 1
 802 1456 l 1
 617 1456 l 1
 13 0 l 1
406 1600 m 1
 532 1600 l 1
 710 1816 l 1
 888 1600 l 1
 1020 1600 l 1
 791 1924 l 1
 634 1924 l 1
 406 1600 l 1
410 545 m 1
 655 1149 l 1
 670 1191 692 1252 707 1298 c 1
 721 1252 742 1192 760 1150 c 1
 994 545 l 1
 410 545 l 1
EndSplineSet
EndChar

StartChar: Adieresis
Encoding: 196 196 6
Width: 1425
VWidth: 0
GlyphClass: 2
Flags: W
LayerCount: 2
Fore
SplineSet
13 0 m 1
 199 0 l 1
 355 397 l 1
 1053 397 l 1
 1216 0 l 1
 1407 0 l 1
 802 1456 l 1
 617 1456 l 1
 13 0 l 1
410 545 m 1
 655 1149 l 1
 670 1191 692 1252 707 1298 c 1
 721 1252 742 1192 760 1150 c 1
 994 545 l 1
 410 545 l 1
465 1613 m 1
 629 1613 l 1
 629 1776 l 1
 465 1776 l 1
 465 1613 l 1
797 1613 m 1
 961 1613 l 1
 961 1776 l 1
 797 1776 l 1
 797 1613 l 1
EndSplineSet
EndChar

StartChar: Agrave
Encoding: 192 192 7
Width: 1425
VWidth: 0
GlyphClass: 2
Flags: W
LayerCount: 2
Fore
SplineSet
13 0 m 1
 199 0 l 1
 355 397 l 1
 1053 397 l 1
 1216 0 l 1
 1407 0 l 1
 802 1456 l 1
 617 1456 l 1
 13 0 l 1
410 545 m 1
 655 1149 l 1
 670 1191 692 1252 707 1298 c 1
 721 1252 742 1192 760 1150 c 1
 994 545 l 1
 410 545 l 1
678 1602 m 1
 807 1602 l 1
 560 1922 l 1
 346 1922 l 1
 678 1602 l 1
EndSplineSet
EndChar

StartChar: Amacron
Encoding: 256 256 8
Width: 1425
VWidth: 0
GlyphClass: 2
Flags: W
LayerCount: 2
Fore
SplineSet
13 0 m 1
 199 0 l 1
 355 397 l 1
 1053 397 l 1
 1216 0 l 1
 1407 0 l 1
 802 1456 l 1
 617 1456 l 1
 13 0 l 1
410 545 m 1
 655 1149 l 1
 670 1191 692 1252 707 1298 c 1
 721 1252 742 1192 760 1150 c 1
 994 545 l 1
 410 545 l 1
427 1613 m 1
 999 1613 l 1
 999 1747 l 1
 427 1747 l 1
 427 1613 l 1
EndSplineSet
EndChar

StartChar: Aogonek
Encoding: 260 260 9
Width: 1425
VWidth: 0
GlyphClass: 2
Flags: W
LayerCount: 2
Fore
SplineSet
1217 -390 m 0
 1281 -390 1348 -380 1394 -361 c 1
 1394 -250 l 1
 1348 -268 1304 -281 1240 -281 c 0
 1189 -281 1140 -250 1140 -199 c 0
 1140 -183 1145 -167 1155 -151 c 0
 1197 -86 1274 -42 1343 0 c 1
 1407 0 l 1
 802 1456 l 1
 617 1456 l 1
 13 0 l 1
 199 0 l 1
 355 397 l 1
 1053 397 l 1
 1212 11 l 1
 1159 -15 1105 -50 1066 -89 c 0
 1033 -122 999 -167 999 -225 c 0
 999 -252 1005 -276 1016 -296 c 0
 1050 -357 1123 -390 1217 -390 c 0
410 545 m 1
 655 1149 l 1
 670 1191 692 1252 707 1298 c 1
 721 1252 742 1192 760 1150 c 1
 994 545 l 1
 410 545 l 1
EndSplineSet
EndChar

StartChar: Aring
Encoding: 197 197 10
Width: 1425
VWidth: 0
GlyphClass: 2
Flags: W
LayerCount: 2
Fore
SplineSet
13 0 m 1
 199 0 l 1
 355 397 l 1
 1053 397 l 1
 1216 0 l 1
 1407 0 l 1
 802 1456 l 1
 617 1456 l 1
 13 0 l 1
714 1579 m 0
 742 1579 769 1584 794 1594 c 0
 861 1620 923 1679 923 1770 c 0
 923 1796 918 1821 907 1844 c 0
 877 1910 808 1960 713 1960 c 0
 684 1960 656 1956 631 1946 c 0
 563 1920 503 1861 503 1769 c 0
 503 1742 508 1717 519 1694 c 0
 550 1629 619 1579 714 1579 c 0
410 545 m 1
 655 1149 l 1
 670 1191 692 1252 707 1298 c 1
 721 1252 742 1192 760 1150 c 1
 994 545 l 1
 410 545 l 1
712 1665 m 0
 647 1665 602 1706 602 1770 c 0
 602 1830 652 1875 712 1875 c 0
 774 1875 823 1832 823 1770 c 0
 823 1710 772 1665 712 1665 c 0
EndSplineSet
EndChar

StartChar: Atilde
Encoding: 195 195 11
Width: 1425
VWidth: 0
GlyphClass: 2
Flags: W
LayerCount: 2
Fore
SplineSet
391 1633 m 1
 496 1633 l 1
 503 1690 533 1718 587 1718 c 0
 682 1718 744 1650 840 1650 c 0
 964 1650 1022 1752 1035 1865 c 1
 927 1865 l 1
 920 1814 893 1775 840 1775 c 0
 821 1775 801 1779 781 1786 c 0
 723 1807 666 1843 590 1843 c 0
 466 1843 401 1749 391 1633 c 1
13 0 m 1
 199 0 l 1
 355 397 l 1
 1053 397 l 1
 1216 0 l 1
 1407 0 l 1
 802 1456 l 1
 617 1456 l 1
 13 0 l 1
410 545 m 1
 655 1149 l 1
 670 1191 692 1252 707 1298 c 1
 721 1252 742 1192 760 1150 c 1
 994 545 l 1
 410 545 l 1
EndSplineSet
EndChar

StartChar: B
Encoding: 66 66 12
Width: 1297
VWidth: 0
GlyphClass: 2
Flags: W
LayerCount: 2
Fore
SplineSet
174 0 m 1
 651 0 l 2
 998 0 1212 114 1212 403 c 0
 1212 625 1106 730 908 769 c 1
 1068 823 1143 918 1143 1105 c 0
 1143 1357 960 1456 585 1456 c 2
 174 1456 l 1
 174 0 l 1
346 148 m 1
 346 684 l 1
 599 684 l 2
 908 684 1030 602 1030 406 c 0
 1030 221 913 148 645 148 c 2
 346 148 l 1
346 825 m 1
 346 1308 l 1
 585 1308 l 2
 858 1308 962 1243 962 1077 c 0
 962 898 851 825 569 825 c 2
 346 825 l 1
EndSplineSet
EndChar

StartChar: C
Encoding: 67 67 13
Width: 1391
VWidth: 0
GlyphClass: 2
Flags: W
LayerCount: 2
Fore
SplineSet
816 -22 m 0
 1017 -22 1176 31 1295 127 c 1
 1238 267 l 1
 1137 179 1002 130 821 130 c 0
 465 130 295 382 295 725 c 0
 295 1076 483 1331 837 1331 c 0
 974 1331 1101 1283 1202 1206 c 1
 1281 1332 l 1
 1171 1414 1038 1483 818 1483 c 0
 390 1483 112 1168 112 726 c 0
 112 287 375 -22 816 -22 c 0
EndSplineSet
EndChar

StartChar: Cacute
Encoding: 262 262 14
Width: 1391
VWidth: 0
GlyphClass: 2
Flags: W
LayerCount: 2
Fore
SplineSet
816 -22 m 0
 1017 -22 1176 31 1295 127 c 1
 1238 267 l 1
 1137 179 1002 130 821 130 c 0
 465 130 295 382 295 725 c 0
 295 1076 483 1331 837 1331 c 0
 974 1331 1101 1283 1202 1206 c 1
 1281 1332 l 1
 1171 1414 1038 1483 818 1483 c 0
 390 1483 112 1168 112 726 c 0
 112 287 375 -22 816 -22 c 0
720 1602 m 1
 850 1602 l 1
 1158 1922 l 1
 946 1922 l 1
 720 1602 l 1
EndSplineSet
EndChar

StartChar: Ccaron
Encoding: 268 268 15
Width: 1391
VWidth: 0
GlyphClass: 2
Flags: W
LayerCount: 2
Fore
SplineSet
816 -22 m 0
 1017 -22 1176 31 1295 127 c 1
 1238 267 l 1
 1137 179 1002 130 821 130 c 0
 465 130 295 382 295 725 c 0
 295 1076 483 1331 837 1331 c 0
 974 1331 1101 1283 1202 1206 c 1
 1281 1332 l 1
 1171 1414 1038 1483 818 1483 c 0
 390 1483 112 1168 112 726 c 0
 112 287 375 -22 816 -22 c 0
723 1600 m 1
 879 1600 l 1
 1117 1923 l 1
 963 1923 l 1
 795 1708 l 1
 631 1923 l 1
 484 1923 l 1
 723 1600 l 1
EndSplineSet
EndChar

StartChar: Ccedilla
Encoding: 199 199 16
Width: 1391
VWidth: 0
GlyphClass: 2
Flags: W
LayerCount: 2
Fore
SplineSet
809 -396 m 0
 930 -396 1050 -359 1050 -239 c 0
 1050 -131 954 -95 850 -90 c 1
 841 -90 l 1
 853 -21 l 1
 1037 -15 1183 37 1295 127 c 1
 1238 267 l 1
 1137 179 1002 130 821 130 c 0
 465 130 295 382 295 725 c 0
 295 1076 483 1331 837 1331 c 0
 974 1331 1101 1283 1202 1206 c 1
 1281 1332 l 1
 1171 1414 1038 1483 818 1483 c 0
 390 1483 112 1168 112 726 c 0
 112 307 352 7 756 -20 c 1
 729 -173 l 1
 761 -171 l 2
 772 -170 789 -168 798 -168 c 0
 858 -168 907 -182 907 -241 c 0
 907 -297 859 -313 793 -313 c 0
 739 -313 692 -301 642 -289 c 1
 634 -374 l 1
 688 -385 749 -396 809 -396 c 0
EndSplineSet
EndChar

StartChar: D
Encoding: 68 68 17
Width: 1523
VWidth: 0
GlyphClass: 2
Flags: W
LayerCount: 2
Fore
SplineSet
346 148 m 1
 346 1308 l 1
 510 1308 l 2
 960 1308 1229 1170 1229 721 c 0
 1229 341 992 148 607 148 c 2
 346 148 l 1
174 0 m 1
 591 0 l 2
 1076 0 1411 241 1411 724 c 0
 1411 1273 1037 1456 489 1456 c 2
 174 1456 l 1
 174 0 l 1
EndSplineSet
EndChar

StartChar: Delta
Encoding: 916 916 18
Width: 1314
VWidth: 0
GlyphClass: 2
Flags: W
LayerCount: 2
Fore
SplineSet
40 0 m 1
 1263 0 l 1
 1263 80 l 1
 743 1429 l 1
 561 1429 l 1
 40 80 l 1
 40 0 l 1
269 162 m 1
 615 1111 l 1
 647 1218 l 1
 681 1111 l 1
 1033 162 l 1
 269 162 l 1
EndSplineSet
EndChar

StartChar: E
Encoding: 69 69 19
Width: 1187
VWidth: 0
GlyphClass: 2
Flags: W
LayerCount: 2
Fore
SplineSet
174 0 m 1
 1091 0 l 1
 1091 148 l 1
 346 148 l 1
 346 672 l 1
 1003 672 l 1
 1003 820 l 1
 346 820 l 1
 346 1308 l 1
 1041 1308 l 1
 1041 1456 l 1
 174 1456 l 1
 174 0 l 1
EndSplineSet
EndChar

StartChar: Eacute
Encoding: 201 201 20
Width: 1187
VWidth: 0
GlyphClass: 2
Flags: W
LayerCount: 2
Fore
SplineSet
174 0 m 1
 1091 0 l 1
 1091 148 l 1
 346 148 l 1
 346 672 l 1
 1003 672 l 1
 1003 820 l 1
 346 820 l 1
 346 1308 l 1
 1041 1308 l 1
 1041 1456 l 1
 174 1456 l 1
 174 0 l 1
562 1602 m 1
 692 1602 l 1
 1000 1922 l 1
 788 1922 l 1
 562 1602 l 1
EndSplineSet
EndChar

StartChar: Ecircumflex
Encoding: 202 202 21
Width: 1187
VWidth: 0
GlyphClass: 2
Flags: W
LayerCount: 2
Fore
SplineSet
174 0 m 1
 1091 0 l 1
 1091 148 l 1
 346 148 l 1
 346 672 l 1
 1003 672 l 1
 1003 820 l 1
 346 820 l 1
 346 1308 l 1
 1041 1308 l 1
 1041 1456 l 1
 174 1456 l 1
 174 0 l 1
336 1600 m 1
 462 1600 l 1
 640 1816 l 1
 818 1600 l 1
 950 1600 l 1
 721 1924 l 1
 564 1924 l 1
 336 1600 l 1
EndSplineSet
EndChar

StartChar: Edieresis
Encoding: 203 203 22
Width: 1187
VWidth: 0
GlyphClass: 2
Flags: W
LayerCount: 2
Fore
SplineSet
174 0 m 1
 1091 0 l 1
 1091 148 l 1
 346 148 l 1
 346 672 l 1
 1003 672 l 1
 1003 820 l 1
 346 820 l 1
 346 1308 l 1
 1041 1308 l 1
 1041 1456 l 1
 174 1456 l 1
 174 0 l 1
395 1613 m 1
 559 1613 l 1
 559 1776 l 1
 395 1776 l 1
 395 1613 l 1
727 1613 m 1
 891 1613 l 1
 891 1776 l 1
 727 1776 l 1
 727 1613 l 1
EndSplineSet
EndChar

StartChar: Egrave
Encoding: 200 200 23
Width: 1187
VWidth: 0
GlyphClass: 2
Flags: W
LayerCount: 2
Fore
SplineSet
174 0 m 1
 1091 0 l 1
 1091 148 l 1
 346 148 l 1
 346 672 l 1
 1003 672 l 1
 1003 820 l 1
 346 820 l 1
 346 1308 l 1
 1041 1308 l 1
 1041 1456 l 1
 174 1456 l 1
 174 0 l 1
608 1602 m 1
 737 1602 l 1
 490 1922 l 1
 276 1922 l 1
 608 1602 l 1
EndSplineSet
EndChar

StartChar: Emacron
Encoding: 274 274 24
Width: 1187
VWidth: 0
GlyphClass: 2
Flags: W
LayerCount: 2
Fore
SplineSet
174 0 m 1
 1091 0 l 1
 1091 148 l 1
 346 148 l 1
 346 672 l 1
 1003 672 l 1
 1003 820 l 1
 346 820 l 1
 346 1308 l 1
 1041 1308 l 1
 1041 1456 l 1
 174 1456 l 1
 174 0 l 1
357 1613 m 1
 929 1613 l 1
 929 1747 l 1
 357 1747 l 1
 357 1613 l 1
EndSplineSet
EndChar

StartChar: Eogonek
Encoding: 280 280 25
Width: 1187
VWidth: 0
GlyphClass: 2
Flags: W
LayerCount: 2
Fore
SplineSet
1000 -390 m 0
 1064 -390 1131 -380 1177 -361 c 1
 1177 -250 l 1
 1131 -268 1087 -281 1023 -281 c 0
 972 -281 923 -250 923 -199 c 0
 923 -183 928 -167 938 -151 c 0
 980 -86 1057 -42 1126 0 c 1
 1091 3 l 1
 1091 148 l 1
 346 148 l 1
 346 672 l 1
 1003 672 l 1
 1003 820 l 1
 346 820 l 1
 346 1308 l 1
 1041 1308 l 1
 1041 1456 l 1
 174 1456 l 1
 174 0 l 1
 973 0 l 1
 927 -24 883 -55 849 -89 c 0
 816 -122 782 -167 782 -225 c 0
 782 -252 788 -276 799 -296 c 0
 833 -357 906 -390 1000 -390 c 0
EndSplineSet
EndChar

StartChar: Eth
Encoding: 208 208 26
Width: 1546
VWidth: 0
GlyphClass: 2
Flags: W
LayerCount: 2
Fore
SplineSet
365 148 m 1
 365 658 l 1
 571 658 l 1
 571 795 l 1
 365 795 l 1
 365 1308 l 1
 529 1308 l 2
 647 1308 750 1298 840 1278 c 0
 1107 1218 1248 1048 1248 721 c 0
 1248 638 1235 560 1210 490 c 0
 1131 268 929 148 626 148 c 2
 365 148 l 1
193 0 m 1
 610 0 l 2
 739 0 854 17 956 51 c 0
 1234 144 1430 359 1430 724 c 0
 1430 1273 1056 1456 508 1456 c 2
 193 1456 l 1
 193 795 l 1
 -1 795 l 1
 -1 658 l 1
 193 658 l 1
 193 0 l 1
EndSplineSet
EndChar

StartChar: Euro
Encoding: 8364 8364 27
Width: 1190
VWidth: 0
GlyphClass: 2
Flags: W
LayerCount: 2
Fore
SplineSet
751 -21 m 0
 890 -21 994 14 1083 75 c 1
 1084 253 l 1
 995 184 900 125 767 125 c 0
 520 125 422 297 392 516 c 1
 934 516 l 1
 953 654 l 1
 378 654 l 1
 376 702 l 2
 375 720 374 742 375 761 c 1
 375 773 l 2
 375 777 376 781 377 784 c 1
 967 784 l 1
 987 922 l 1
 395 922 l 1
 437 1116 541 1303 776 1303 c 0
 914 1303 1009 1232 1070 1141 c 1
 1106 1330 l 1
 1028 1404 928 1448 783 1448 c 0
 704 1448 632 1435 569 1409 c 0
 376 1330 260 1153 218 922 c 1
 97 922 l 1
 75 784 l 1
 199 784 l 1
 198 761 197 741 197 719 c 0
 197 694 198 672 200 654 c 1
 98 654 l 1
 78 516 l 1
 213 516 l 1
 251 209 407 -21 751 -21 c 0
EndSplineSet
EndChar

StartChar: F
Encoding: 70 70 28
Width: 1103
VWidth: 0
GlyphClass: 2
Flags: W
LayerCount: 2
Fore
SplineSet
174 0 m 1
 346 0 l 1
 346 667 l 1
 983 667 l 1
 983 815 l 1
 346 815 l 1
 346 1308 l 1
 1017 1308 l 1
 1017 1456 l 1
 174 1456 l 1
 174 0 l 1
EndSplineSet
EndChar

StartChar: G
Encoding: 71 71 29
Width: 1512
VWidth: 0
GlyphClass: 2
Flags: W
LayerCount: 2
Fore
SplineSet
845 -22 m 0
 1044 -22 1203 13 1348 81 c 1
 1348 757 l 1
 815 757 l 1
 815 608 l 1
 1176 608 l 1
 1176 178 l 1
 1086 142 980 130 859 130 c 0
 488 130 290 344 290 714 c 0
 290 1069 495 1331 852 1331 c 0
 1024 1331 1159 1286 1251 1198 c 1
 1323 1315 l 1
 1207 1431 1067 1483 856 1483 c 0
 392 1483 112 1165 112 701 c 0
 112 239 380 -22 845 -22 c 0
EndSplineSet
EndChar

StartChar: Gcommaaccent
Encoding: 290 290 30
Width: 1512
VWidth: 0
GlyphClass: 2
Flags: W
LayerCount: 2
Fore
SplineSet
845 -22 m 0
 1044 -22 1203 13 1348 81 c 1
 1348 757 l 1
 815 757 l 1
 815 608 l 1
 1176 608 l 1
 1176 178 l 1
 1086 142 980 130 859 130 c 0
 488 130 290 344 290 714 c 0
 290 1069 495 1331 852 1331 c 0
 1024 1331 1159 1286 1251 1198 c 1
 1323 1315 l 1
 1207 1431 1067 1483 856 1483 c 0
 392 1483 112 1165 112 701 c 0
 112 239 380 -22 845 -22 c 0
614 -625 m 1
 745 -625 l 1
 908 -162 l 1
 721 -162 l 1
 614 -625 l 1
EndSplineSet
EndChar

StartChar: H
Encoding: 72 72 31
Width: 1493
VWidth: 0
GlyphClass: 2
Flags: W
LayerCount: 2
Fore
SplineSet
174 0 m 1
 346 0 l 1
 346 674 l 1
 1148 674 l 1
 1148 0 l 1
 1319 0 l 1
 1319 1456 l 1
 1148 1456 l 1
 1148 822 l 1
 346 822 l 1
 346 1456 l 1
 174 1456 l 1
 174 0 l 1
EndSplineSet
EndChar

StartChar: I
Encoding: 73 73 32
Width: 544
VWidth: 0
GlyphClass: 2
Flags: W
LayerCount: 2
Fore
SplineSet
186 0 m 1
 358 0 l 1
 358 1456 l 1
 186 1456 l 1
 186 0 l 1
EndSplineSet
EndChar

StartChar: IJ
Encoding: 306 306 33
Width: 1585
VWidth: 0
GlyphClass: 2
Flags: W
LayerCount: 2
Fore
SplineSet
585 -114 m 1
 940 -285 1299 -176 1299 336 c 2
 1299 1314 l 1
 1571 1314 l 1
 1571 1456 l 1
 708 1456 l 1
 708 1314 l 1
 1127 1314 l 1
 1127 334 l 2
 1127 -35 934 -111 637 22 c 1
 585 -114 l 1
186 0 m 1
 358 0 l 1
 358 1456 l 1
 186 1456 l 1
 186 0 l 1
EndSplineSet
EndChar

StartChar: Iacute
Encoding: 205 205 34
Width: 544
VWidth: 0
GlyphClass: 2
Flags: W
LayerCount: 2
Fore
SplineSet
186 0 m 1
 358 0 l 1
 358 1456 l 1
 186 1456 l 1
 186 0 l 1
191 1602 m 1
 321 1602 l 1
 629 1922 l 1
 417 1922 l 1
 191 1602 l 1
EndSplineSet
EndChar

StartChar: Icircumflex
Encoding: 206 206 35
Width: 544
VWidth: 0
GlyphClass: 2
Flags: W
LayerCount: 2
Fore
SplineSet
-35 1600 m 1
 91 1600 l 1
 269 1816 l 1
 447 1600 l 1
 579 1600 l 1
 350 1924 l 1
 193 1924 l 1
 -35 1600 l 1
186 0 m 1
 358 0 l 1
 358 1456 l 1
 186 1456 l 1
 186 0 l 1
EndSplineSet
EndChar

StartChar: Idieresis
Encoding: 207 207 36
Width: 544
VWidth: 0
GlyphClass: 2
Flags: W
LayerCount: 2
Fore
SplineSet
24 1613 m 1
 188 1613 l 1
 188 1776 l 1
 24 1776 l 1
 24 1613 l 1
186 0 m 1
 358 0 l 1
 358 1456 l 1
 186 1456 l 1
 186 0 l 1
356 1613 m 1
 520 1613 l 1
 520 1776 l 1
 356 1776 l 1
 356 1613 l 1
EndSplineSet
EndChar

StartChar: Igrave
Encoding: 204 204 37
Width: 544
VWidth: 0
GlyphClass: 2
Flags: W
LayerCount: 2
Fore
SplineSet
237 1602 m 1
 366 1602 l 1
 119 1922 l 1
 -95 1922 l 1
 237 1602 l 1
186 0 m 1
 358 0 l 1
 358 1456 l 1
 186 1456 l 1
 186 0 l 1
EndSplineSet
EndChar

StartChar: Imacron
Encoding: 298 298 38
Width: 544
VWidth: 0
GlyphClass: 2
Flags: W
LayerCount: 2
Fore
SplineSet
186 0 m 1
 358 0 l 1
 358 1456 l 1
 186 1456 l 1
 186 0 l 1
-14 1613 m 1
 558 1613 l 1
 558 1747 l 1
 -14 1747 l 1
 -14 1613 l 1
EndSplineSet
EndChar

StartChar: Iogonek
Encoding: 302 302 39
Width: 544
VWidth: 0
GlyphClass: 2
Flags: W
LayerCount: 2
Fore
SplineSet
244 -390 m 0
 308 -390 375 -380 421 -361 c 1
 421 -250 l 1
 375 -268 331 -281 267 -281 c 0
 216 -281 167 -250 167 -199 c 0
 167 -183 172 -167 182 -151 c 0
 224 -86 301 -42 370 0 c 1
 358 1 l 1
 358 1456 l 1
 186 1456 l 1
 186 0 l 1
 217 0 l 1
 171 -24 127 -55 93 -89 c 0
 60 -122 26 -167 26 -225 c 0
 26 -252 32 -276 43 -296 c 0
 77 -357 150 -390 244 -390 c 0
EndSplineSet
EndChar

StartChar: Itilde
Encoding: 296 296 40
Width: 544
VWidth: 0
GlyphClass: 2
Flags: W
LayerCount: 2
Fore
SplineSet
-50 1633 m 1
 55 1633 l 1
 62 1690 92 1718 146 1718 c 0
 241 1718 303 1650 399 1650 c 0
 523 1650 581 1752 594 1865 c 1
 486 1865 l 1
 479 1814 452 1775 399 1775 c 0
 380 1775 360 1779 340 1786 c 0
 282 1807 225 1843 149 1843 c 0
 25 1843 -40 1749 -50 1633 c 1
186 0 m 1
 358 0 l 1
 358 1456 l 1
 186 1456 l 1
 186 0 l 1
EndSplineSet
EndChar

StartChar: J
Encoding: 74 74 41
Width: 1041
VWidth: 0
GlyphClass: 2
Flags: W
LayerCount: 2
Fore
SplineSet
41 -114 m 1
 396 -285 755 -176 755 336 c 2
 755 1314 l 1
 1027 1314 l 1
 1027 1456 l 1
 164 1456 l 1
 164 1314 l 1
 583 1314 l 1
 583 334 l 2
 583 -35 390 -111 93 22 c 1
 41 -114 l 1
EndSplineSet
EndChar

StartChar: J.alt
Encoding: 65537 -1 42
Width: 939
VWidth: 0
GlyphClass: 2
Flags: W
LayerCount: 2
Fore
SplineSet
321 -23 m 0
 388 -23 448 -12 502 11 c 0
 671 82 755 256 755 499 c 2
 755 1456 l 1
 583 1456 l 1
 583 488 l 2
 583 296 517 125 326 125 c 0
 237 125 176 156 122 197 c 1
 71 81 l 1
 131 21 208 -23 321 -23 c 0
EndSplineSet
EndChar

StartChar: Jcircumflex
Encoding: 308 308 43
Width: 1041
VWidth: 0
GlyphClass: 2
Flags: W
LayerCount: 2
Fore
SplineSet
41 -114 m 1
 396 -285 755 -176 755 336 c 2
 755 1314 l 1
 1027 1314 l 1
 1027 1456 l 1
 164 1456 l 1
 164 1314 l 1
 583 1314 l 1
 583 334 l 2
 583 -35 390 -111 93 22 c 1
 41 -114 l 1
303 1600 m 1
 429 1600 l 1
 607 1816 l 1
 785 1600 l 1
 917 1600 l 1
 688 1924 l 1
 531 1924 l 1
 303 1600 l 1
EndSplineSet
EndChar

StartChar: K
Encoding: 75 75 44
Width: 1246
VWidth: 0
GlyphClass: 2
Flags: W
LayerCount: 2
Fore
SplineSet
174 0 m 1
 346 0 l 1
 346 725 l 1
 1024 0 l 1
 1242 0 l 1
 531 764 l 1
 1202 1456 l 1
 990 1456 l 1
 346 796 l 1
 346 1456 l 1
 174 1456 l 1
 174 0 l 1
EndSplineSet
EndChar

StartChar: L
Encoding: 76 76 45
Width: 1069
VWidth: 0
GlyphClass: 2
Flags: W
LayerCount: 2
Fore
SplineSet
174 0 m 1
 1045 0 l 1
 1045 148 l 1
 346 148 l 1
 346 1456 l 1
 174 1456 l 1
 174 0 l 1
EndSplineSet
EndChar

StartChar: Ldot
Encoding: 319 319 46
Width: 1069
VWidth: 0
GlyphClass: 2
Flags: W
LayerCount: 2
Fore
SplineSet
174 0 m 1
 1045 0 l 1
 1045 148 l 1
 346 148 l 1
 346 1456 l 1
 174 1456 l 1
 174 0 l 1
640 1132 m 1
 857 1132 l 1
 857 1342 l 1
 640 1342 l 1
 640 1132 l 1
EndSplineSet
EndChar

StartChar: Lslash
Encoding: 321 321 47
Width: 1120
VWidth: 0
GlyphClass: 2
Flags: W
LayerCount: 2
Fore
SplineSet
202 0 m 1
 1073 0 l 1
 1073 148 l 1
 374 148 l 1
 374 712 l 1
 659 890 l 1
 659 1027 l 1
 374 849 l 1
 374 1456 l 1
 202 1456 l 1
 202 742 l 1
 15 626 l 1
 15 489 l 1
 202 605 l 1
 202 0 l 1
EndSplineSet
EndChar

StartChar: M
Encoding: 77 77 48
Width: 1944
VWidth: 0
GlyphClass: 2
Flags: W
LayerCount: 2
Fore
SplineSet
174 0 m 1
 344 0 l 1
 344 1268 l 1
 404 1108 l 1
 908 110 l 1
 1034 110 l 1
 1534 1096 l 1
 1602 1251 l 1
 1602 0 l 1
 1770 0 l 1
 1770 1456 l 1
 1536 1456 l 1
 1058 529 l 1
 973 322 l 1
 887 526 l 1
 412 1456 l 1
 174 1456 l 1
 174 0 l 1
EndSplineSet
EndChar

StartChar: N
Encoding: 78 78 49
Width: 1570
VWidth: 0
GlyphClass: 2
Flags: W
LayerCount: 2
Fore
SplineSet
174 0 m 1
 346 0 l 1
 346 1237 l 1
 418 1113 l 1
 1188 0 l 1
 1396 0 l 1
 1396 1456 l 1
 1225 1456 l 1
 1225 215 l 1
 1147 342 l 1
 380 1456 l 1
 174 1456 l 1
 174 0 l 1
EndSplineSet
EndChar

StartChar: Nacute
Encoding: 323 323 50
Width: 1570
VWidth: 0
GlyphClass: 2
Flags: W
LayerCount: 2
Fore
SplineSet
174 0 m 1
 346 0 l 1
 346 1237 l 1
 418 1113 l 1
 1188 0 l 1
 1396 0 l 1
 1396 1456 l 1
 1225 1456 l 1
 1225 215 l 1
 1147 342 l 1
 380 1456 l 1
 174 1456 l 1
 174 0 l 1
714 1602 m 1
 844 1602 l 1
 1152 1922 l 1
 940 1922 l 1
 714 1602 l 1
EndSplineSet
EndChar

StartChar: Ntilde
Encoding: 209 209 51
Width: 1570
VWidth: 0
GlyphClass: 2
Flags: W
LayerCount: 2
Fore
SplineSet
174 0 m 1
 346 0 l 1
 346 1237 l 1
 418 1113 l 1
 1188 0 l 1
 1396 0 l 1
 1396 1456 l 1
 1225 1456 l 1
 1225 215 l 1
 1147 342 l 1
 380 1456 l 1
 174 1456 l 1
 174 0 l 1
473 1633 m 1
 578 1633 l 1
 585 1690 615 1718 669 1718 c 0
 764 1718 826 1650 922 1650 c 0
 1046 1650 1104 1752 1117 1865 c 1
 1009 1865 l 1
 1002 1814 975 1775 922 1775 c 0
 903 1775 883 1779 863 1786 c 0
 805 1807 748 1843 672 1843 c 0
 548 1843 483 1749 473 1633 c 1
EndSplineSet
EndChar

StartChar: O
Encoding: 79 79 52
Width: 1660
VWidth: 0
GlyphClass: 2
Flags: W
LayerCount: 2
Fore
SplineSet
830 127 m 0
 552 127 296 330 296 729 c 0
 296 1128 552 1331 830 1331 c 0
 1108 1331 1364 1128 1364 729 c 0
 1364 330 1108 127 830 127 c 0
830 -25 m 0
 1304 -25 1548 336 1548 728 c 0
 1548 1122 1304 1483 830 1483 c 0
 356 1483 112 1122 112 728 c 0
 112 336 356 -25 830 -25 c 0
EndSplineSet
EndChar

StartChar: OE
Encoding: 338 338 53
Width: 2099
VWidth: 0
GlyphClass: 2
Flags: W
LayerCount: 2
Fore
SplineSet
829 -23 m 0
 970 -23 1070 32 1151 105 c 1
 1151 0 l 1
 1984 0 l 1
 1984 148 l 1
 1323 148 l 1
 1323 672 l 1
 1916 672 l 1
 1916 820 l 1
 1323 820 l 1
 1323 1308 l 1
 1954 1308 l 1
 1954 1456 l 1
 1151 1456 l 1
 1151 1381 l 1
 1069 1439 968 1483 837 1483 c 0
 401 1483 114 1208 114 729 c 0
 114 288 352 -23 829 -23 c 0
827 125 m 0
 492 125 298 356 298 725 c 0
 298 1082 467 1335 830 1335 c 0
 972 1335 1072 1288 1151 1219 c 1
 1151 265 l 1
 1075 186 973 125 827 125 c 0
EndSplineSet
EndChar

StartChar: Oacute
Encoding: 211 211 54
Width: 1660
VWidth: 0
GlyphClass: 2
Flags: W
LayerCount: 2
Fore
SplineSet
830 127 m 0
 552 127 296 330 296 729 c 0
 296 1128 552 1331 830 1331 c 0
 1108 1331 1364 1128 1364 729 c 0
 1364 330 1108 127 830 127 c 0
830 -25 m 0
 1304 -25 1548 336 1548 728 c 0
 1548 1122 1304 1483 830 1483 c 0
 356 1483 112 1122 112 728 c 0
 112 336 356 -25 830 -25 c 0
746 146 m 1
 876 146 l 1
 1184 466 l 1
 972 466 l 1
 746 146 l 1
EndSplineSet
EndChar

StartChar: Ocircumflex
Encoding: 212 212 55
Width: 1660
VWidth: 0
GlyphClass: 2
Flags: W
LayerCount: 2
Fore
SplineSet
1097 197 m 1
 905 468 l 1
 748 468 l 1
 559 200 l 1
 405 291 296 468 296 729 c 0
 296 1128 552 1331 830 1331 c 0
 1108 1331 1364 1128 1364 729 c 0
 1364 466 1253 288 1097 197 c 1
830 127 m 0
 770 127 711 136 655 155 c 1
 824 360 l 1
 995 152 l 1
 942 135 887 127 830 127 c 0
830 -25 m 0
 1304 -25 1548 336 1548 728 c 0
 1548 1122 1304 1483 830 1483 c 0
 356 1483 112 1122 112 728 c 0
 112 336 356 -25 830 -25 c 0
EndSplineSet
EndChar

StartChar: Odieresis
Encoding: 214 214 56
Width: 1660
VWidth: 0
GlyphClass: 2
Flags: W
LayerCount: 2
Fore
SplineSet
830 127 m 0
 768 127 707 137 650 157 c 1
 743 157 l 1
 743 320 l 1
 579 320 l 1
 579 188 l 1
 415 276 296 457 296 729 c 0
 296 1128 552 1331 830 1331 c 0
 1108 1331 1364 1128 1364 729 c 0
 1364 454 1242 271 1075 185 c 1
 1075 320 l 1
 911 320 l 1
 911 157 l 1
 1010 157 l 1
 953 137 892 127 830 127 c 0
830 -25 m 0
 1304 -25 1548 336 1548 728 c 0
 1548 1122 1304 1483 830 1483 c 0
 356 1483 112 1122 112 728 c 0
 112 336 356 -25 830 -25 c 0
EndSplineSet
EndChar

StartChar: Ograve
Encoding: 210 210 57
Width: 1660
VWidth: 0
GlyphClass: 2
Flags: W
LayerCount: 2
Fore
SplineSet
792 146 m 1
 921 146 l 1
 674 466 l 1
 460 466 l 1
 792 146 l 1
830 127 m 0
 552 127 296 330 296 729 c 0
 296 1128 552 1331 830 1331 c 0
 1108 1331 1364 1128 1364 729 c 0
 1364 330 1108 127 830 127 c 0
830 -25 m 0
 1304 -25 1548 336 1548 728 c 0
 1548 1122 1304 1483 830 1483 c 0
 356 1483 112 1122 112 728 c 0
 112 336 356 -25 830 -25 c 0
EndSplineSet
EndChar

StartChar: Oslash
Encoding: 216 216 58
Width: 1663
VWidth: 0
GlyphClass: 2
Flags: W
LayerCount: 2
Fore
SplineSet
521 -165 m 1
 595 9 l 1
 666 -13 744 -25 830 -25 c 0
 1304 -25 1548 336 1548 728 c 0
 1548 1007 1425 1270 1185 1399 c 1
 1262 1581 l 1
 1137 1625 l 1
 1063 1450 l 1
 993 1471 915 1483 830 1483 c 0
 356 1483 112 1122 112 728 c 0
 112 450 235 187 476 58 c 1
 400 -121 l 1
 521 -165 l 1
540 211 m 1
 396 305 296 479 296 729 c 0
 296 1128 552 1331 830 1331 c 0
 889 1331 946 1322 1001 1304 c 1
 540 211 l 1
830 127 m 0
 770 127 712 136 657 155 c 1
 1120 1246 l 1
 1263 1152 1364 979 1364 729 c 0
 1364 330 1108 127 830 127 c 0
EndSplineSet
EndChar

StartChar: Otilde
Encoding: 213 213 59
Width: 1660
VWidth: 0
GlyphClass: 2
Flags: W
LayerCount: 2
Fore
SplineSet
830 127 m 0
 750 127 673 144 602 177 c 1
 610 177 l 1
 617 234 647 262 701 262 c 0
 796 262 858 194 954 194 c 0
 1078 194 1136 296 1149 409 c 1
 1041 409 l 1
 1034 358 1007 319 954 319 c 0
 935 319 915 323 895 330 c 0
 837 351 780 387 704 387 c 0
 600 387 537 320 514 230 c 1
 385 328 296 494 296 729 c 0
 296 1128 552 1331 830 1331 c 0
 1108 1331 1364 1128 1364 729 c 0
 1364 330 1108 127 830 127 c 0
830 -25 m 0
 1304 -25 1548 336 1548 728 c 0
 1548 1122 1304 1483 830 1483 c 0
 356 1483 112 1122 112 728 c 0
 112 336 356 -25 830 -25 c 0
EndSplineSet
EndChar

StartChar: P
Encoding: 80 80 60
Width: 1239
VWidth: 0
GlyphClass: 2
Flags: W
LayerCount: 2
Fore
SplineSet
174 0 m 1
 346 0 l 1
 346 587 l 1
 588 587 l 2
 973 587 1171 734 1171 1020 c 0
 1171 1316 995 1456 563 1456 c 2
 174 1456 l 1
 174 0 l 1
346 736 m 1
 346 1308 l 1
 587 1308 l 2
 878 1308 987 1215 987 1018 c 0
 987 832 858 736 607 736 c 2
 346 736 l 1
EndSplineSet
EndChar

StartChar: Q
Encoding: 81 81 61
Width: 1648
VWidth: 0
GlyphClass: 2
Flags: W
LayerCount: 2
Fore
SplineSet
1229 -422 m 1
 1341 -304 l 1
 1243 -213 1155 -110 1092 20 c 1
 1355 124 1536 374 1536 736 c 0
 1536 1183 1278 1483 830 1483 c 0
 385 1483 112 1183 112 736 c 0
 112 282 369 -22 822 -22 c 0
 860 -22 896 -19 927 -13 c 1
 1003 -176 1112 -305 1229 -422 c 1
823 123 m 0
 477 123 291 389 291 736 c 0
 291 1081 477 1334 823 1334 c 0
 1174 1334 1348 1087 1348 736 c 0
 1348 382 1178 123 823 123 c 0
EndSplineSet
EndChar

StartChar: R
Encoding: 82 82 62
Width: 1320
VWidth: 0
GlyphClass: 2
Flags: W
LayerCount: 2
Fore
SplineSet
174 0 m 1
 346 0 l 1
 346 652 l 1
 616 652 l 2
 812 652 862 564 915 419 c 2
 1068 0 l 1
 1256 0 l 1
 1093 410 l 2
 1039 546 994 670 858 715 c 1
 1024 758 1168 867 1168 1074 c 0
 1168 1410 865 1456 530 1456 c 2
 174 1456 l 1
 174 0 l 1
346 799 m 1
 346 1308 l 1
 623 1308 l 2
 826 1308 986 1261 986 1058 c 0
 986 859 809 799 612 799 c 2
 346 799 l 1
EndSplineSet
EndChar

StartChar: Racute
Encoding: 340 340 63
Width: 1320
VWidth: 0
GlyphClass: 2
Flags: W
LayerCount: 2
Fore
SplineSet
174 0 m 1
 346 0 l 1
 346 652 l 1
 616 652 l 2
 812 652 862 564 915 419 c 2
 1068 0 l 1
 1256 0 l 1
 1093 410 l 2
 1039 546 994 670 858 715 c 1
 1024 758 1168 867 1168 1074 c 0
 1168 1410 865 1456 530 1456 c 2
 174 1456 l 1
 174 0 l 1
346 799 m 1
 346 1308 l 1
 623 1308 l 2
 826 1308 986 1261 986 1058 c 0
 986 859 809 799 612 799 c 2
 346 799 l 1
578 1602 m 1
 708 1602 l 1
 1016 1922 l 1
 804 1922 l 1
 578 1602 l 1
EndSplineSet
EndChar

StartChar: Rcaron
Encoding: 344 344 64
Width: 1320
VWidth: 0
GlyphClass: 2
Flags: W
LayerCount: 2
Fore
SplineSet
174 0 m 1
 346 0 l 1
 346 652 l 1
 616 652 l 2
 812 652 862 564 915 419 c 2
 1068 0 l 1
 1256 0 l 1
 1093 410 l 2
 1039 546 994 670 858 715 c 1
 1024 758 1168 867 1168 1074 c 0
 1168 1410 865 1456 530 1456 c 2
 174 1456 l 1
 174 0 l 1
581 1600 m 1
 737 1600 l 1
 975 1923 l 1
 821 1923 l 1
 653 1708 l 1
 489 1923 l 1
 342 1923 l 1
 581 1600 l 1
346 799 m 1
 346 1308 l 1
 623 1308 l 2
 826 1308 986 1261 986 1058 c 0
 986 859 809 799 612 799 c 2
 346 799 l 1
EndSplineSet
EndChar

StartChar: Rcommaaccent
Encoding: 342 342 65
Width: 1320
VWidth: 0
GlyphClass: 2
Flags: W
LayerCount: 2
Fore
SplineSet
174 0 m 1
 346 0 l 1
 346 652 l 1
 616 652 l 2
 812 652 862 564 915 419 c 2
 1068 0 l 1
 1256 0 l 1
 1093 410 l 2
 1039 546 994 670 858 715 c 1
 1024 758 1168 867 1168 1074 c 0
 1168 1410 865 1456 530 1456 c 2
 174 1456 l 1
 174 0 l 1
346 799 m 1
 346 1308 l 1
 623 1308 l 2
 826 1308 986 1261 986 1058 c 0
 986 859 809 799 612 799 c 2
 346 799 l 1
512 -625 m 1
 643 -625 l 1
 806 -162 l 1
 619 -162 l 1
 512 -625 l 1
EndSplineSet
EndChar

StartChar: S
Encoding: 83 83 66
Width: 1229
VWidth: 0
GlyphClass: 2
Flags: W
LayerCount: 2
Fore
SplineSet
664 -22 m 0
 990 -22 1135 166 1135 395 c 0
 1135 578 1052 709 676 817 c 0
 370 905 318 983 324 1120 c 0
 330 1262 441 1334 656 1334 c 0
 780 1334 921 1288 1033 1218 c 1
 1085 1359 l 1
 930 1456 773 1483 636 1483 c 0
 344 1483 145 1339 141 1109 c 0
 137 902 224 769 566 671 c 0
 911 572 951 500 951 401 c 0
 951 230 855 123 649 123 c 0
 503 123 305 187 174 289 c 1
 146 123 l 1
 280 35 486 -22 664 -22 c 0
EndSplineSet
EndChar

StartChar: Sacute
Encoding: 346 346 67
Width: 1229
VWidth: 0
GlyphClass: 2
Flags: W
LayerCount: 2
Fore
SplineSet
664 -22 m 0
 990 -22 1135 166 1135 395 c 0
 1135 578 1052 709 676 817 c 0
 370 905 318 983 324 1120 c 0
 330 1262 441 1334 656 1334 c 0
 780 1334 921 1288 1033 1218 c 1
 1085 1359 l 1
 930 1456 773 1483 636 1483 c 0
 344 1483 145 1339 141 1109 c 0
 137 902 224 769 566 671 c 0
 911 572 951 500 951 401 c 0
 951 230 855 123 649 123 c 0
 503 123 305 187 174 289 c 1
 146 123 l 1
 280 35 486 -22 664 -22 c 0
559 1602 m 1
 689 1602 l 1
 997 1922 l 1
 785 1922 l 1
 559 1602 l 1
EndSplineSet
EndChar

StartChar: Scaron
Encoding: 352 352 68
Width: 1229
VWidth: 0
GlyphClass: 2
Flags: W
LayerCount: 2
Fore
SplineSet
664 -22 m 0
 990 -22 1135 166 1135 395 c 0
 1135 578 1052 709 676 817 c 0
 370 905 318 983 324 1120 c 0
 330 1262 441 1334 656 1334 c 0
 780 1334 921 1288 1033 1218 c 1
 1085 1359 l 1
 930 1456 773 1483 636 1483 c 0
 344 1483 145 1339 141 1109 c 0
 137 902 224 769 566 671 c 0
 911 572 951 500 951 401 c 0
 951 230 855 123 649 123 c 0
 503 123 305 187 174 289 c 1
 146 123 l 1
 280 35 486 -22 664 -22 c 0
562 1600 m 1
 718 1600 l 1
 956 1923 l 1
 802 1923 l 1
 634 1708 l 1
 470 1923 l 1
 323 1923 l 1
 562 1600 l 1
EndSplineSet
EndChar

StartChar: Scommaaccent
Encoding: 536 536 69
Width: 1229
VWidth: 0
GlyphClass: 2
Flags: W
LayerCount: 2
Fore
SplineSet
664 -22 m 0
 990 -22 1135 166 1135 395 c 0
 1135 578 1052 709 676 817 c 0
 370 905 318 983 324 1120 c 0
 330 1262 441 1334 656 1334 c 0
 780 1334 921 1288 1033 1218 c 1
 1085 1359 l 1
 930 1456 773 1483 636 1483 c 0
 344 1483 145 1339 141 1109 c 0
 137 902 224 769 566 671 c 0
 911 572 951 500 951 401 c 0
 951 230 855 123 649 123 c 0
 503 123 305 187 174 289 c 1
 146 123 l 1
 280 35 486 -22 664 -22 c 0
475 -625 m 1
 606 -625 l 1
 769 -162 l 1
 582 -162 l 1
 475 -625 l 1
EndSplineSet
EndChar

StartChar: T
Encoding: 84 84 70
Width: 1161
VWidth: 0
GlyphClass: 2
Flags: W
LayerCount: 2
Fore
SplineSet
493 0 m 1
 665 0 l 1
 665 1308 l 1
 1137 1308 l 1
 1137 1456 l 1
 24 1456 l 1
 24 1308 l 1
 493 1308 l 1
 493 0 l 1
EndSplineSet
EndChar

StartChar: Thorn
Encoding: 222 222 71
Width: 1274
VWidth: 0
GlyphClass: 2
Flags: W
LayerCount: 2
Fore
SplineSet
203 0 m 1
 375 0 l 1
 375 443 l 1
 597 443 l 2
 764 443 913 480 1018 546 c 0
 1121 611 1200 714 1200 876 c 0
 1200 1231 899 1312 544 1312 c 2
 375 1312 l 1
 375 1456 l 1
 203 1456 l 1
 203 0 l 1
375 592 m 1
 375 1164 l 1
 588 1164 l 2
 828 1164 1016 1114 1016 874 c 0
 1016 825 1007 782 988 747 c 0
 930 639 802 592 636 592 c 2
 375 592 l 1
EndSplineSet
EndChar

StartChar: U
Encoding: 85 85 72
Width: 1473
VWidth: 0
GlyphClass: 2
Flags: W
LayerCount: 2
Fore
SplineSet
749 -22 m 0
 1111 -22 1307 191 1309 551 c 1
 1309 1456 l 1
 1138 1456 l 1
 1138 539 l 2
 1138 279 999 123 747 123 c 0
 475 123 336 260 336 546 c 2
 336 1456 l 1
 164 1456 l 1
 164 541 l 2
 164 157 365 -22 749 -22 c 0
EndSplineSet
EndChar

StartChar: Uacute
Encoding: 218 218 73
Width: 1473
VWidth: 0
GlyphClass: 2
Flags: W
LayerCount: 2
Fore
SplineSet
749 -22 m 0
 1111 -22 1307 191 1309 551 c 1
 1309 1456 l 1
 1138 1456 l 1
 1138 539 l 2
 1138 279 999 123 747 123 c 0
 475 123 336 260 336 546 c 2
 336 1456 l 1
 164 1456 l 1
 164 541 l 2
 164 157 365 -22 749 -22 c 0
658 1602 m 1
 788 1602 l 1
 1096 1922 l 1
 884 1922 l 1
 658 1602 l 1
EndSplineSet
EndChar

StartChar: Ucircumflex
Encoding: 219 219 74
Width: 1473
VWidth: 0
GlyphClass: 2
Flags: W
LayerCount: 2
Fore
SplineSet
749 -22 m 0
 1111 -22 1307 191 1309 551 c 1
 1309 1456 l 1
 1138 1456 l 1
 1138 539 l 2
 1138 279 999 123 747 123 c 0
 475 123 336 260 336 546 c 2
 336 1456 l 1
 164 1456 l 1
 164 541 l 2
 164 157 365 -22 749 -22 c 0
432 1600 m 1
 558 1600 l 1
 736 1816 l 1
 914 1600 l 1
 1046 1600 l 1
 817 1924 l 1
 660 1924 l 1
 432 1600 l 1
EndSplineSet
EndChar

StartChar: Udieresis
Encoding: 220 220 75
Width: 1473
VWidth: 0
GlyphClass: 2
Flags: W
LayerCount: 2
Fore
SplineSet
749 -22 m 0
 1111 -22 1307 191 1309 551 c 1
 1309 1456 l 1
 1138 1456 l 1
 1138 539 l 2
 1138 279 999 123 747 123 c 0
 475 123 336 260 336 546 c 2
 336 1456 l 1
 164 1456 l 1
 164 541 l 2
 164 157 365 -22 749 -22 c 0
491 1613 m 1
 655 1613 l 1
 655 1776 l 1
 491 1776 l 1
 491 1613 l 1
823 1613 m 1
 987 1613 l 1
 987 1776 l 1
 823 1776 l 1
 823 1613 l 1
EndSplineSet
EndChar

StartChar: Ugrave
Encoding: 217 217 76
Width: 1473
VWidth: 0
GlyphClass: 2
Flags: W
LayerCount: 2
Fore
SplineSet
749 -22 m 0
 1111 -22 1307 191 1309 551 c 1
 1309 1456 l 1
 1138 1456 l 1
 1138 539 l 2
 1138 279 999 123 747 123 c 0
 475 123 336 260 336 546 c 2
 336 1456 l 1
 164 1456 l 1
 164 541 l 2
 164 157 365 -22 749 -22 c 0
704 1602 m 1
 833 1602 l 1
 586 1922 l 1
 372 1922 l 1
 704 1602 l 1
EndSplineSet
EndChar

StartChar: V
Encoding: 86 86 77
Width: 1336
VWidth: 0
GlyphClass: 2
Flags: W
LayerCount: 2
Fore
SplineSet
581 1 m 1
 767 1 l 1
 1324 1456 l 1
 1141 1456 l 1
 720 324 l 1
 672 184 l 1
 626 325 l 1
 201 1456 l 1
 13 1456 l 1
 581 1 l 1
EndSplineSet
EndChar

StartChar: W
Encoding: 87 87 78
Width: 2095
VWidth: 0
GlyphClass: 2
Flags: W
LayerCount: 2
Fore
SplineSet
1442 0 m 1
 1654 0 l 1
 2077 1456 l 1
 1897 1456 l 1
 1592 349 l 1
 1550 190 l 1
 1504 345 l 1
 1145 1456 l 1
 964 1456 l 1
 602 349 l 1
 552 189 l 1
 514 349 l 1
 204 1456 l 1
 18 1456 l 1
 441 1 l 1
 654 1 l 1
 1049 1247 l 1
 1442 0 l 1
EndSplineSet
EndChar

StartChar: X
Encoding: 88 88 79
Width: 1304
VWidth: 0
GlyphClass: 2
Flags: W
LayerCount: 2
Fore
SplineSet
11 0 m 1
 215 0 l 1
 648 623 l 1
 1084 0 l 1
 1285 0 l 1
 764 742 l 1
 1275 1456 l 1
 1079 1456 l 1
 662 854 l 1
 258 1456 l 1
 50 1456 l 1
 548 741 l 1
 11 0 l 1
EndSplineSet
EndChar

StartChar: Y
Encoding: 89 89 80
Width: 1256
VWidth: 0
GlyphClass: 2
Flags: W
LayerCount: 2
Fore
SplineSet
537 0 m 1
 709 0 l 1
 709 585 l 1
 1252 1456 l 1
 1061 1456 l 1
 626 727 l 1
 195 1456 l 1
 4 1456 l 1
 537 582 l 1
 537 0 l 1
EndSplineSet
EndChar

StartChar: Yacute
Encoding: 221 221 81
Width: 1256
VWidth: 0
GlyphClass: 2
Flags: W
LayerCount: 2
Fore
SplineSet
537 0 m 1
 709 0 l 1
 709 585 l 1
 1252 1456 l 1
 1061 1456 l 1
 626 727 l 1
 195 1456 l 1
 4 1456 l 1
 537 582 l 1
 537 0 l 1
546 1602 m 1
 676 1602 l 1
 984 1922 l 1
 772 1922 l 1
 546 1602 l 1
EndSplineSet
EndChar

StartChar: Ydieresis
Encoding: 376 376 82
Width: 1256
VWidth: 0
GlyphClass: 2
Flags: W
LayerCount: 2
Fore
SplineSet
537 0 m 1
 709 0 l 1
 709 585 l 1
 1252 1456 l 1
 1061 1456 l 1
 626 727 l 1
 195 1456 l 1
 4 1456 l 1
 537 582 l 1
 537 0 l 1
379 1613 m 1
 543 1613 l 1
 543 1776 l 1
 379 1776 l 1
 379 1613 l 1
711 1613 m 1
 875 1613 l 1
 875 1776 l 1
 711 1776 l 1
 711 1613 l 1
EndSplineSet
EndChar

StartChar: Z
Encoding: 90 90 83
Width: 1222
VWidth: 0
GlyphClass: 2
Flags: W
LayerCount: 2
Fore
SplineSet
92 0 m 1
 1146 0 l 1
 1146 148 l 1
 320 148 l 1
 1154 1368 l 1
 1154 1456 l 1
 124 1456 l 1
 124 1308 l 1
 922 1308 l 1
 92 92 l 1
 92 0 l 1
EndSplineSet
EndChar

StartChar: Zacute
Encoding: 377 377 84
Width: 1222
VWidth: 0
GlyphClass: 2
Flags: W
LayerCount: 2
Fore
SplineSet
92 0 m 1
 1146 0 l 1
 1146 148 l 1
 320 148 l 1
 1154 1368 l 1
 1154 1456 l 1
 124 1456 l 1
 124 1308 l 1
 922 1308 l 1
 92 92 l 1
 92 0 l 1
590 1602 m 1
 720 1602 l 1
 1028 1922 l 1
 816 1922 l 1
 590 1602 l 1
EndSplineSet
EndChar

StartChar: Zcaron
Encoding: 381 381 85
Width: 1222
VWidth: 0
GlyphClass: 2
Flags: W
LayerCount: 2
Fore
SplineSet
92 0 m 1
 1146 0 l 1
 1146 148 l 1
 320 148 l 1
 1154 1368 l 1
 1154 1456 l 1
 124 1456 l 1
 124 1308 l 1
 922 1308 l 1
 92 92 l 1
 92 0 l 1
593 1600 m 1
 749 1600 l 1
 987 1923 l 1
 833 1923 l 1
 665 1708 l 1
 501 1923 l 1
 354 1923 l 1
 593 1600 l 1
EndSplineSet
EndChar

StartChar: Zdotaccent
Encoding: 379 379 86
Width: 1222
VWidth: 0
GlyphClass: 2
Flags: W
LayerCount: 2
Fore
SplineSet
92 0 m 1
 1146 0 l 1
 1146 148 l 1
 320 148 l 1
 1154 1368 l 1
 1154 1456 l 1
 124 1456 l 1
 124 1308 l 1
 922 1308 l 1
 92 92 l 1
 92 0 l 1
591 1676 m 1
 751 1676 l 1
 751 1839 l 1
 591 1839 l 1
 591 1676 l 1
EndSplineSet
EndChar

StartChar: a
Encoding: 97 97 87
Width: 1205
VWidth: 0
GlyphClass: 2
Flags: W
LayerCount: 2
Fore
SplineSet
506 -22 m 0
 664 -22 814 53 882 166 c 1
 905 64 998 -4 1114 -4 c 1
 1148 139 l 1
 1073 139 1023 198 1023 286 c 2
 1023 962 l 1
 943 1014 800 1048 666 1048 c 0
 320 1048 90 804 90 438 c 0
 90 162 256 -22 506 -22 c 0
531 116 m 0
 368 116 260 249 260 448 c 0
 260 723 421 907 663 907 c 0
 739 907 817 893 859 872 c 1
 859 453 l 2
 859 261 728 116 531 116 c 0
EndSplineSet
EndChar

StartChar: a.alt
Encoding: 65538 -1 88
Width: 1219
VWidth: 0
GlyphClass: 2
Flags: W
LayerCount: 2
Fore
SplineSet
553 -23 m 0
 675 -23 832 13 925 166 c 1
 952 46 1070 -4 1157 -4 c 1
 1191 139 l 1
 1139 139 1066 170 1066 286 c 2
 1066 519 l 2
 1066 928 864 1052 614 1052 c 0
 284 1052 88 844 88 494 c 0
 88 192 281 -23 553 -23 c 0
572 117 m 0
 387 117 255 278 255 504 c 0
 255 761 390 913 617 913 c 0
 798 913 902 814 902 524 c 0
 902 272 828 117 572 117 c 0
EndSplineSet
EndChar

StartChar: aacute
Encoding: 225 225 89
Width: 1205
VWidth: 0
GlyphClass: 2
Flags: W
LayerCount: 2
Fore
SplineSet
506 -22 m 0
 664 -22 814 53 882 166 c 1
 905 64 998 -4 1114 -4 c 1
 1148 139 l 1
 1073 139 1023 198 1023 286 c 2
 1023 962 l 1
 943 1014 800 1048 666 1048 c 0
 320 1048 90 804 90 438 c 0
 90 162 256 -22 506 -22 c 0
531 116 m 0
 368 116 260 249 260 448 c 0
 260 723 421 907 663 907 c 0
 739 907 817 893 859 872 c 1
 859 453 l 2
 859 261 728 116 531 116 c 0
549 1172 m 1
 679 1172 l 1
 987 1492 l 1
 775 1492 l 1
 549 1172 l 1
EndSplineSet
EndChar

StartChar: abreve
Encoding: 259 259 90
Width: 1205
VWidth: 0
GlyphClass: 2
Flags: W
LayerCount: 2
Fore
SplineSet
506 -22 m 0
 664 -22 814 53 882 166 c 1
 905 64 998 -4 1114 -4 c 1
 1148 139 l 1
 1073 139 1023 198 1023 286 c 2
 1023 962 l 1
 943 1014 800 1048 666 1048 c 0
 320 1048 90 804 90 438 c 0
 90 162 256 -22 506 -22 c 0
632 1218 m 0
 798 1218 899 1300 912 1454 c 1
 826 1454 l 1
 806 1370 727 1325 625 1325 c 0
 523 1325 450 1366 435 1454 c 1
 348 1454 l 1
 361 1294 461 1218 632 1218 c 0
531 116 m 0
 368 116 260 249 260 448 c 0
 260 723 421 907 663 907 c 0
 739 907 817 893 859 872 c 1
 859 453 l 2
 859 261 728 116 531 116 c 0
EndSplineSet
EndChar

StartChar: acircumflex
Encoding: 226 226 91
Width: 1205
VWidth: 0
GlyphClass: 2
Flags: W
LayerCount: 2
Fore
SplineSet
506 -22 m 0
 664 -22 814 53 882 166 c 1
 905 64 998 -4 1114 -4 c 1
 1148 139 l 1
 1073 139 1023 198 1023 286 c 2
 1023 962 l 1
 943 1014 800 1048 666 1048 c 0
 320 1048 90 804 90 438 c 0
 90 162 256 -22 506 -22 c 0
323 1170 m 1
 449 1170 l 1
 627 1386 l 1
 805 1170 l 1
 937 1170 l 1
 708 1494 l 1
 551 1494 l 1
 323 1170 l 1
531 116 m 0
 368 116 260 249 260 448 c 0
 260 723 421 907 663 907 c 0
 739 907 817 893 859 872 c 1
 859 453 l 2
 859 261 728 116 531 116 c 0
EndSplineSet
EndChar

StartChar: acute
Encoding: 180 180 92
Width: 607
VWidth: 0
GlyphClass: 2
Flags: W
LayerCount: 2
Fore
SplineSet
175 1172 m 1
 305 1172 l 1
 613 1492 l 1
 401 1492 l 1
 175 1172 l 1
EndSplineSet
EndChar

StartChar: adieresis
Encoding: 228 228 93
Width: 1205
VWidth: 0
GlyphClass: 2
Flags: W
LayerCount: 2
Fore
SplineSet
506 -22 m 0
 664 -22 814 53 882 166 c 1
 905 64 998 -4 1114 -4 c 1
 1148 139 l 1
 1073 139 1023 198 1023 286 c 2
 1023 962 l 1
 943 1014 800 1048 666 1048 c 0
 320 1048 90 804 90 438 c 0
 90 162 256 -22 506 -22 c 0
531 116 m 0
 368 116 260 249 260 448 c 0
 260 723 421 907 663 907 c 0
 739 907 817 893 859 872 c 1
 859 453 l 2
 859 261 728 116 531 116 c 0
382 1183 m 1
 546 1183 l 1
 546 1346 l 1
 382 1346 l 1
 382 1183 l 1
714 1183 m 1
 878 1183 l 1
 878 1346 l 1
 714 1346 l 1
 714 1183 l 1
EndSplineSet
EndChar

StartChar: ae
Encoding: 230 230 94
Width: 1807
VWidth: 0
GlyphClass: 2
Flags: W
LayerCount: 2
Fore
SplineSet
441 -22 m 0
 661 -22 785 95 853 230 c 1
 898 80 1044 -22 1232 -22 c 0
 1446 -22 1582 65 1664 206 c 1
 1577 292 l 1
 1511 193 1397 115 1242 115 c 0
 1029 115 941 253 941 463 c 0
 941 468 942 485 942 489 c 1
 1697 489 l 1
 1697 524 l 2
 1697 845 1543 1048 1251 1048 c 0
 1084 1048 933 941 877 806 c 1
 835 956 716 1048 550 1048 c 0
 353 1048 217 985 148 856 c 1
 238 763 l 1
 298 864 391 907 540 907 c 0
 706 907 771 793 771 628 c 2
 771 605 l 1
 443 605 81 611 81 282 c 0
 81 92 222 -22 441 -22 c 0
464 115 m 0
 337 115 250 163 250 290 c 0
 250 461 442 481 627 486 c 1
 773 489 l 1
 773 272 684 115 464 115 c 0
943 606 m 1
 955 761 1055 907 1250 907 c 0
 1440 907 1517 780 1534 606 c 1
 943 606 l 1
EndSplineSet
EndChar

StartChar: agrave
Encoding: 224 224 95
Width: 1205
VWidth: 0
GlyphClass: 2
Flags: W
LayerCount: 2
Fore
SplineSet
506 -22 m 0
 664 -22 814 53 882 166 c 1
 905 64 998 -4 1114 -4 c 1
 1148 139 l 1
 1073 139 1023 198 1023 286 c 2
 1023 962 l 1
 943 1014 800 1048 666 1048 c 0
 320 1048 90 804 90 438 c 0
 90 162 256 -22 506 -22 c 0
531 116 m 0
 368 116 260 249 260 448 c 0
 260 723 421 907 663 907 c 0
 739 907 817 893 859 872 c 1
 859 453 l 2
 859 261 728 116 531 116 c 0
595 1172 m 1
 724 1172 l 1
 477 1492 l 1
 263 1492 l 1
 595 1172 l 1
EndSplineSet
EndChar

StartChar: amacron
Encoding: 257 257 96
Width: 1205
VWidth: 0
GlyphClass: 2
Flags: W
LayerCount: 2
Fore
SplineSet
506 -22 m 0
 664 -22 814 53 882 166 c 1
 905 64 998 -4 1114 -4 c 1
 1148 139 l 1
 1073 139 1023 198 1023 286 c 2
 1023 962 l 1
 943 1014 800 1048 666 1048 c 0
 320 1048 90 804 90 438 c 0
 90 162 256 -22 506 -22 c 0
531 116 m 0
 368 116 260 249 260 448 c 0
 260 723 421 907 663 907 c 0
 739 907 817 893 859 872 c 1
 859 453 l 2
 859 261 728 116 531 116 c 0
344 1183 m 1
 916 1183 l 1
 916 1317 l 1
 344 1317 l 1
 344 1183 l 1
EndSplineSet
EndChar

StartChar: ampersand
Encoding: 38 38 97
Width: 1647
VWidth: 0
GlyphClass: 2
Flags: W
LayerCount: 2
Fore
SplineSet
661 -27 m 0
 894 -27 1047 70 1166 186 c 1
 1256 100 1338 10 1486 -12 c 1
 1618 86 l 1
 1576 95 1539 104 1508 114 c 0
 1399 150 1334 208 1260 284 c 1
 1371 427 1454 625 1463 863 c 1
 1296 884 l 1
 1296 842 1292 800 1285 756 c 0
 1262 618 1211 493 1144 398 c 1
 729 822 l 1
 807 864 885 915 942 977 c 0
 990 1029 1036 1096 1036 1188 c 0
 1036 1237 1026 1278 1004 1314 c 0
 943 1414 820 1473 661 1473 c 0
 462 1473 299 1381 299 1182 c 0
 299 1147 304 1115 315 1086 c 0
 351 988 425 921 494 852 c 1
 400 802 304 744 233 672 c 0
 169 607 115 523 115 402 c 0
 115 334 128 273 156 220 c 0
 239 62 421 -27 661 -27 c 0
658 116 m 0
 605 116 556 123 512 138 c 0
 398 176 295 259 295 406 c 0
 295 449 303 488 320 522 c 0
 374 632 485 694 594 750 c 1
 823 523 l 2
 892 454 967 375 1034 311 c 0
 1048 298 1056 291 1058 291 c 1
 961 197 848 116 658 116 c 0
625 918 m 1
 602 939 582 959 563 979 c 0
 517 1028 472 1087 472 1178 c 0
 472 1288 559 1340 669 1340 c 0
 777 1340 865 1287 865 1178 c 0
 865 1150 858 1124 844 1099 c 0
 799 1017 710 963 625 918 c 1
EndSplineSet
EndChar

StartChar: aogonek
Encoding: 261 261 98
Width: 1205
VWidth: 0
GlyphClass: 2
Flags: W
LayerCount: 2
Fore
SplineSet
1012 -377 m 0
 1076 -377 1143 -367 1189 -348 c 1
 1189 -237 l 1
 1143 -255 1099 -268 1035 -268 c 0
 984 -268 935 -237 935 -186 c 0
 935 -170 940 -154 950 -138 c 0
 986 -82 1049 -41 1110 -4 c 1
 1114 -4 l 1
 1115 -1 l 1
 1123 4 1130 8 1138 13 c 1
 1118 15 l 1
 1148 139 l 1
 1073 139 1023 198 1023 286 c 2
 1023 962 l 1
 943 1014 800 1048 666 1048 c 0
 320 1048 90 804 90 438 c 0
 90 162 256 -22 506 -22 c 0
 664 -22 814 53 882 166 c 1
 897 101 940 49 1000 21 c 1
 949 -5 899 -38 861 -76 c 0
 828 -109 794 -154 794 -212 c 0
 794 -239 800 -263 811 -283 c 0
 845 -344 918 -377 1012 -377 c 0
531 116 m 0
 368 116 260 249 260 448 c 0
 260 723 421 907 663 907 c 0
 739 907 817 893 859 872 c 1
 859 453 l 2
 859 261 728 116 531 116 c 0
EndSplineSet
EndChar

StartChar: approxequal
Encoding: 8776 8776 99
Width: 1351
VWidth: 0
GlyphClass: 2
Flags: W
LayerCount: 2
Fore
SplineSet
268 261 m 1
 294 349 342 426 449 426 c 0
 477 426 506 420 536 407 c 0
 588 385 657 343 707 317 c 0
 762 289 819 262 898 262 c 0
 1072 262 1154 375 1187 518 c 1
 1077 546 l 1
 1046 463 1004 380 904 380 c 0
 875 380 844 389 810 406 c 0
 776 423 740 442 702 463 c 0
 635 500 550 546 452 546 c 0
 283 546 189 433 154 289 c 1
 268 261 l 1
267 634 m 1
 293 721 340 799 446 799 c 0
 474 799 503 793 532 780 c 0
 584 757 653 715 704 689 c 0
 761 660 816 634 896 634 c 0
 1069 634 1155 745 1185 890 c 1
 1075 918 l 1
 1045 832 1003 752 902 752 c 0
 875 752 846 759 814 772 c 0
 706 816 597 917 450 917 c 0
 279 917 185 808 152 661 c 1
 267 634 l 1
EndSplineSet
EndChar

StartChar: aring
Encoding: 229 229 100
Width: 1205
VWidth: 0
GlyphClass: 2
Flags: W
LayerCount: 2
Fore
SplineSet
506 -22 m 0
 664 -22 814 53 882 166 c 1
 905 64 998 -4 1114 -4 c 1
 1148 139 l 1
 1073 139 1023 198 1023 286 c 2
 1023 962 l 1
 943 1014 800 1048 666 1048 c 0
 320 1048 90 804 90 438 c 0
 90 162 256 -22 506 -22 c 0
631 1149 m 0
 659 1149 686 1154 711 1164 c 0
 778 1190 840 1249 840 1340 c 0
 840 1366 835 1391 824 1414 c 0
 794 1480 725 1530 630 1530 c 0
 601 1530 573 1526 548 1516 c 0
 480 1490 420 1431 420 1339 c 0
 420 1312 425 1287 436 1264 c 0
 467 1199 536 1149 631 1149 c 0
531 116 m 0
 368 116 260 249 260 448 c 0
 260 723 421 907 663 907 c 0
 739 907 817 893 859 872 c 1
 859 453 l 2
 859 261 728 116 531 116 c 0
629 1235 m 0
 564 1235 519 1276 519 1340 c 0
 519 1400 569 1445 629 1445 c 0
 691 1445 740 1402 740 1340 c 0
 740 1280 689 1235 629 1235 c 0
EndSplineSet
EndChar

StartChar: asciicircum
Encoding: 94 94 101
Width: 1457
VWidth: 0
GlyphClass: 2
Flags: W
LayerCount: 2
Fore
SplineSet
184 550 m 1
 340 550 l 1
 714 1260 l 1
 1100 550 l 1
 1255 550 l 1
 766 1432 l 1
 665 1432 l 1
 184 550 l 1
EndSplineSet
EndChar

StartChar: asciitilde
Encoding: 126 126 102
Width: 1458
VWidth: 0
GlyphClass: 2
Flags: W
LayerCount: 2
Fore
SplineSet
304 385 m 1
 325 475 384 571 494 571 c 0
 515 571 538 567 564 559 c 0
 650 532 731 487 810 452 c 0
 852 433 904 410 956 410 c 0
 996 410 1032 416 1065 430 c 0
 1167 473 1228 566 1256 684 c 1
 1131 723 l 1
 1112 641 1057 545 957 545 c 0
 941 545 922 549 900 557 c 0
 819 587 739 632 658 664 c 0
 609 683 552 705 491 705 c 0
 449 705 411 698 377 683 c 0
 280 641 213 553 189 440 c 1
 304 385 l 1
EndSplineSet
EndChar

StartChar: asterisk
Encoding: 42 42 103
Width: 1065
VWidth: 0
GlyphClass: 2
Flags: W
LayerCount: 2
Fore
SplineSet
692 737 m 1
 818 810 l 1
 617 1061 l 1
 880 1149 l 1
 816 1274 l 1
 581 1153 l 1
 581 1451 l 1
 439 1451 l 1
 452 1351 467 1248 480 1148 c 1
 196 1271 l 1
 175 1136 l 1
 448 1058 l 1
 257 820 l 1
 381 745 l 1
 534 1003 l 1
 692 737 l 1
EndSplineSet
EndChar

StartChar: at
Encoding: 64 64 104
Width: 1895
VWidth: 0
GlyphClass: 2
Flags: W
LayerCount: 2
Fore
SplineSet
967 -109 m 0
 1230 -109 1438 -17 1566 122 c 1
 1486 192 l 1
 1362 86 1190 12 972 12 c 0
 573 12 281 281 281 677 c 0
 281 1060 579 1357 966 1357 c 0
 1323 1357 1607 1141 1607 796 c 0
 1607 597 1487 350 1309 350 c 0
 1249 350 1226 380 1226 436 c 0
 1226 506 1281 711 1371 1107 c 1
 1225 1107 l 1
 1207 1022 l 1
 1168 1091 1084 1138 978 1138 c 0
 726 1138 498 876 498 610 c 0
 498 448 589 257 814 257 c 0
 930 257 1013 313 1071 384 c 1
 1090 276 1165 225 1288 225 c 0
 1549 225 1760 507 1760 791 c 0
 1760 1205 1402 1476 971 1476 c 0
 508 1476 130 1143 130 679 c 0
 130 216 496 -109 967 -109 c 0
831 385 m 0
 715 385 655 465 655 582 c 0
 655 775 789 1007 980 1007 c 0
 1096 1007 1141 936 1141 821 c 0
 1141 622 1018 385 831 385 c 0
EndSplineSet
EndChar

StartChar: atilde
Encoding: 227 227 105
Width: 1205
VWidth: 0
GlyphClass: 2
Flags: W
LayerCount: 2
Fore
SplineSet
308 1203 m 1
 413 1203 l 1
 420 1260 450 1288 504 1288 c 0
 599 1288 661 1220 757 1220 c 0
 881 1220 939 1322 952 1435 c 1
 844 1435 l 1
 837 1384 810 1345 757 1345 c 0
 738 1345 718 1349 698 1356 c 0
 640 1377 583 1413 507 1413 c 0
 383 1413 318 1319 308 1203 c 1
506 -22 m 0
 664 -22 814 53 882 166 c 1
 905 64 998 -4 1114 -4 c 1
 1148 139 l 1
 1073 139 1023 198 1023 286 c 2
 1023 962 l 1
 943 1014 800 1048 666 1048 c 0
 320 1048 90 804 90 438 c 0
 90 162 256 -22 506 -22 c 0
531 116 m 0
 368 116 260 249 260 448 c 0
 260 723 421 907 663 907 c 0
 739 907 817 893 859 872 c 1
 859 453 l 2
 859 261 728 116 531 116 c 0
EndSplineSet
EndChar

StartChar: b
Encoding: 98 98 106
Width: 1210
VWidth: 0
GlyphClass: 2
Flags: W
LayerCount: 2
Fore
SplineSet
612 -22 m 0
 929 -22 1120 215 1120 545 c 0
 1120 863 926 1045 704 1045 c 0
 574 1045 434 984 317 851 c 1
 317 1525 l 1
 152 1495 l 1
 152 71 l 1
 152 71 369 -22 612 -22 c 0
615 116 m 0
 461 116 317 156 317 156 c 1
 317 686 l 1
 431 830 568 904 686 904 c 0
 834 904 950 788 950 550 c 0
 950 319 848 116 615 116 c 0
EndSplineSet
EndChar

StartChar: backslash
Encoding: 92 92 107
Width: 706
VWidth: 0
GlyphClass: 2
Flags: W
LayerCount: 2
Fore
SplineSet
594 -215 m 1
 757 -215 l 1
 120 1451 l 1
 -47 1451 l 1
 594 -215 l 1
EndSplineSet
EndChar

StartChar: bar
Encoding: 124 124 108
Width: 500
VWidth: 0
GlyphClass: 2
Flags: W
LayerCount: 2
Fore
SplineSet
168 -491 m 1
 325 -491 l 1
 325 1545 l 1
 168 1545 l 1
 168 -491 l 1
EndSplineSet
EndChar

StartChar: braceleft
Encoding: 123 123 109
Width: 627
VWidth: 0
GlyphClass: 2
Flags: W
LayerCount: 2
Fore
SplineSet
566 -259 m 1
 566 -133 l 1
 427 -133 403 -62 403 107 c 1
 405 345 l 1
 405 473 396 535 232 615 c 1
 396 695 405 756 405 884 c 1
 403 1122 l 1
 403 1291 427 1362 566 1362 c 1
 566 1488 l 1
 380 1480 243 1412 243 1218 c 2
 244 935 l 2
 245 788 222 690 88 675 c 0
 87 675 87 676 86 676 c 1
 86 675 l 1
 86 554 l 1
 86 553 l 1
 87 553 87 554 88 554 c 0
 222 539 245 441 244 294 c 2
 243 11 l 2
 242 -183 380 -251 566 -259 c 1
EndSplineSet
EndChar

StartChar: braceright
Encoding: 125 125 110
Width: 627
VWidth: 0
GlyphClass: 2
Flags: W
LayerCount: 2
Fore
SplineSet
86 -259 m 1
 272 -251 410 -183 409 11 c 2
 408 294 l 2
 407 441 430 539 564 554 c 0
 565 554 565 553 566 553 c 1
 566 554 l 1
 566 675 l 1
 566 676 l 1
 565 676 565 675 564 675 c 0
 430 690 407 788 408 935 c 2
 409 1218 l 2
 409 1412 272 1480 86 1488 c 1
 86 1362 l 1
 225 1362 249 1291 249 1122 c 1
 247 884 l 1
 247 756 256 694 420 614 c 1
 256 534 247 473 247 345 c 1
 249 107 l 1
 249 -62 225 -133 86 -133 c 1
 86 -259 l 1
EndSplineSet
EndChar

StartChar: bracketleft
Encoding: 91 91 111
Width: 628
VWidth: 0
GlyphClass: 2
Flags: W
LayerCount: 2
Fore
SplineSet
191 -259 m 1
 548 -259 l 1
 548 -137 l 1
 354 -137 l 1
 354 1329 l 1
 547 1329 l 1
 547 1451 l 1
 191 1451 l 1
 191 -259 l 1
EndSplineSet
EndChar

StartChar: bracketright
Encoding: 93 93 112
Width: 628
VWidth: 0
GlyphClass: 2
Flags: W
LayerCount: 2
Fore
SplineSet
87 -259 m 1
 442 -259 l 1
 442 1451 l 1
 78 1451 l 1
 88 1329 l 1
 278 1329 l 1
 278 -137 l 1
 87 -137 l 1
 87 -259 l 1
EndSplineSet
EndChar

StartChar: breve
Encoding: 728 728 113
Width: 629
VWidth: 0
GlyphClass: 2
Flags: W
LayerCount: 2
Fore
SplineSet
316 1218 m 0
 482 1218 583 1300 596 1454 c 1
 510 1454 l 1
 490 1370 411 1325 309 1325 c 0
 207 1325 134 1366 119 1454 c 1
 32 1454 l 1
 45 1294 145 1218 316 1218 c 0
EndSplineSet
EndChar

StartChar: brokenbar
Encoding: 166 166 114
Width: 500
VWidth: 0
GlyphClass: 2
Flags: W
LayerCount: 2
Fore
SplineSet
168 -491 m 1
 325 -491 l 1
 325 393 l 1
 168 393 l 1
 168 -491 l 1
168 677 m 1
 325 677 l 1
 325 1545 l 1
 168 1545 l 1
 168 677 l 1
EndSplineSet
EndChar

StartChar: bullet
Encoding: 8226 8226 115
Width: 989
VWidth: 0
GlyphClass: 2
Flags: W
LayerCount: 2
Fore
SplineSet
493 385 m 0
 594 385 677 426 732 478 c 0
 786 528 833 604 833 701 c 0
 833 743 824 782 806 820 c 0
 757 925 650 1010 498 1010 c 0
 453 1010 409 1002 368 985 c 0
 259 941 157 842 157 694 c 0
 157 652 166 612 183 575 c 0
 232 469 340 385 493 385 c 0
EndSplineSet
EndChar

StartChar: c
Encoding: 99 99 116
Width: 1019
VWidth: 0
GlyphClass: 2
Flags: W
LayerCount: 2
Fore
SplineSet
634 -23 m 0
 765 -23 902 22 1013 112 c 1
 956 238 l 1
 873 160 759 119 651 119 c 0
 450 119 260 241 260 508 c 0
 260 766 455 906 656 906 c 0
 751 906 848 871 923 799 c 1
 983 920 l 1
 886 1013 761 1050 640 1050 c 0
 364 1050 90 852 90 503 c 0
 90 157 353 -23 634 -23 c 0
EndSplineSet
EndChar

StartChar: cacute
Encoding: 263 263 117
Width: 1019
VWidth: 0
GlyphClass: 2
Flags: W
LayerCount: 2
Fore
SplineSet
634 -23 m 0
 765 -23 902 22 1013 112 c 1
 956 238 l 1
 873 160 759 119 651 119 c 0
 450 119 260 241 260 508 c 0
 260 766 455 906 656 906 c 0
 751 906 848 871 923 799 c 1
 983 920 l 1
 886 1013 761 1050 640 1050 c 0
 364 1050 90 852 90 503 c 0
 90 157 353 -23 634 -23 c 0
545 1173 m 1
 675 1173 l 1
 983 1493 l 1
 771 1493 l 1
 545 1173 l 1
EndSplineSet
EndChar

StartChar: caron
Encoding: 711 711 118
Width: 699
VWidth: 0
GlyphClass: 2
Flags: W
LayerCount: 2
Fore
SplineSet
268 1170 m 1
 424 1170 l 1
 662 1493 l 1
 508 1493 l 1
 340 1278 l 1
 176 1493 l 1
 29 1493 l 1
 268 1170 l 1
EndSplineSet
EndChar

StartChar: ccaron
Encoding: 269 269 119
Width: 1019
VWidth: 0
GlyphClass: 2
Flags: W
LayerCount: 2
Fore
SplineSet
634 -23 m 0
 765 -23 902 22 1013 112 c 1
 956 238 l 1
 873 160 759 119 651 119 c 0
 450 119 260 241 260 508 c 0
 260 766 455 906 656 906 c 0
 751 906 848 871 923 799 c 1
 983 920 l 1
 886 1013 761 1050 640 1050 c 0
 364 1050 90 852 90 503 c 0
 90 157 353 -23 634 -23 c 0
533 1170 m 1
 689 1170 l 1
 927 1493 l 1
 773 1493 l 1
 605 1278 l 1
 441 1493 l 1
 294 1493 l 1
 533 1170 l 1
EndSplineSet
EndChar

StartChar: ccedilla
Encoding: 231 231 120
Width: 1019
VWidth: 0
GlyphClass: 2
Flags: W
LayerCount: 2
Fore
SplineSet
613 -396 m 0
 734 -396 854 -359 854 -239 c 0
 854 -131 758 -95 654 -90 c 1
 645 -90 l 1
 656 -23 l 1
 780 -18 908 27 1013 112 c 1
 956 238 l 1
 873 160 759 119 651 119 c 0
 450 119 260 241 260 508 c 0
 260 766 455 906 656 906 c 0
 751 906 848 871 923 799 c 1
 983 920 l 1
 886 1013 761 1050 640 1050 c 0
 364 1050 90 852 90 503 c 0
 90 188 309 10 560 -19 c 1
 533 -173 l 1
 565 -171 l 2
 576 -170 593 -168 602 -168 c 0
 662 -168 711 -182 711 -241 c 0
 711 -297 663 -313 597 -313 c 0
 543 -313 496 -301 446 -289 c 1
 438 -374 l 1
 492 -385 553 -396 613 -396 c 0
EndSplineSet
EndChar

StartChar: cedilla
Encoding: 184 184 121
Width: 529
VWidth: 0
GlyphClass: 2
Flags: W
LayerCount: 2
Fore
SplineSet
227 -396 m 0
 348 -396 468 -359 468 -239 c 0
 468 -131 372 -95 268 -90 c 1
 259 -90 l 1
 277 17 l 1
 180 17 l 1
 147 -173 l 1
 179 -171 l 2
 190 -170 207 -168 216 -168 c 0
 276 -168 325 -182 325 -241 c 0
 325 -297 277 -313 211 -313 c 0
 157 -313 110 -301 60 -289 c 1
 52 -374 l 1
 106 -385 167 -396 227 -396 c 0
EndSplineSet
EndChar

StartChar: cent
Encoding: 162 162 122
Width: 1189
VWidth: 0
GlyphClass: 2
Flags: W
LayerCount: 2
Fore
SplineSet
553 -235 m 1
 666 -235 l 1
 666 -20 l 1
 764 -10 870 23 976 87 c 1
 940 225 l 1
 844 159 751 129 666 120 c 1
 666 907 l 1
 761 898 834 862 883 801 c 1
 960 912 l 1
 900 991 798 1039 666 1049 c 1
 666 1281 l 1
 553 1281 l 1
 553 1049 l 1
 266 1024 94 805 94 503 c 0
 94 213 287 6 553 -20 c 1
 553 -235 l 1
553 122 m 1
 383 148 267 285 267 508 c 0
 267 714 366 874 553 904 c 1
 553 122 l 1
EndSplineSet
EndChar

StartChar: circumflex
Encoding: 710 710 123
Width: 699
VWidth: 0
GlyphClass: 2
Flags: W
LayerCount: 2
Fore
SplineSet
35 1170 m 1
 161 1170 l 1
 339 1386 l 1
 517 1170 l 1
 649 1170 l 1
 420 1494 l 1
 263 1494 l 1
 35 1170 l 1
EndSplineSet
EndChar

StartChar: colon
Encoding: 58 58 124
Width: 540
VWidth: 0
GlyphClass: 2
Flags: W
LayerCount: 2
Fore
SplineSet
159 -11 m 1
 376 -11 l 1
 376 199 l 1
 159 199 l 1
 159 -11 l 1
159 841 m 1
 376 841 l 1
 376 1051 l 1
 159 1051 l 1
 159 841 l 1
EndSplineSet
EndChar

StartChar: comma
Encoding: 44 44 125
Width: 540
VWidth: 0
GlyphClass: 2
Flags: W
LayerCount: 2
Fore
SplineSet
78 -256 m 1
 209 -256 l 1
 372 207 l 1
 185 207 l 1
 78 -256 l 1
EndSplineSet
EndChar

StartChar: commaaccentcomb
Encoding: 806 806 126
Width: 0
VWidth: 0
GlyphClass: 2
Flags: W
LayerCount: 2
Fore
SplineSet
-462 -625 m 1
 -331 -625 l 1
 -168 -162 l 1
 -355 -162 l 1
 -462 -625 l 1
EndSplineSet
EndChar

StartChar: copyright
Encoding: 169 169 127
Width: 1829
VWidth: 0
GlyphClass: 2
Flags: W
LayerCount: 2
Fore
SplineSet
940 249 m 0
 1060 249 1163 279 1249 339 c 1
 1210 460 l 1
 1150 411 1073 380 972 380 c 0
 913 380 861 390 816 408 c 0
 695 458 613 566 613 733 c 0
 613 781 621 826 636 868 c 0
 680 989 782 1080 944 1080 c 0
 1051 1080 1141 1048 1214 985 c 1
 1245 1105 l 1
 1164 1174 1066 1208 951 1208 c 0
 877 1208 810 1196 750 1172 c 0
 583 1106 460 959 460 729 c 0
 460 662 472 600 496 542 c 0
 563 378 713 249 940 249 c 0
914 -32 m 0
 1163 -32 1348 67 1480 192 c 0
 1608 313 1717 485 1717 725 c 0
 1717 794 1707 860 1688 924 c 0
 1647 1059 1573 1170 1480 1258 c 0
 1347 1383 1160 1483 908 1483 c 0
 659 1483 474 1385 341 1260 c 0
 213 1139 103 967 103 726 c 0
 103 657 113 590 132 526 c 0
 173 391 246 280 340 192 c 0
 473 67 662 -32 914 -32 c 0
913 85 m 0
 705 85 538 164 426 270 c 0
 317 373 230 527 230 727 c 0
 230 926 317 1080 426 1182 c 0
 537 1286 703 1366 909 1366 c 0
 1116 1366 1283 1285 1394 1180 c 0
 1503 1077 1590 924 1590 724 c 0
 1590 525 1503 372 1395 270 c 0
 1284 165 1120 85 913 85 c 0
EndSplineSet
EndChar

StartChar: currency
Encoding: 164 164 128
Width: 1238
VWidth: 0
GlyphClass: 2
Flags: W
LayerCount: 2
Fore
SplineSet
157 195 m 1
 319 363 l 1
 387 308 473 274 566 274 c 0
 666 274 758 310 827 371 c 1
 994 210 l 1
 1031 246 l 1
 863 408 l 1
 920 473 955 557 957 651 c 0
 959 753 922 846 858 917 c 1
 1016 1081 l 1
 976 1120 l 1
 818 956 l 1
 752 1012 668 1046 576 1048 c 0
 475 1050 379 1011 307 947 c 1
 145 1104 l 1
 106 1065 l 1
 269 908 l 1
 211 840 175 754 175 661 c 0
 175 559 216 467 281 398 c 1
 121 232 l 1
 157 195 l 1
564 351 m 0
 395 351 263 489 263 658 c 0
 263 827 403 969 572 965 c 0
 740 961 869 820 865 651 c 0
 861 482 733 351 564 351 c 0
EndSplineSet
EndChar

StartChar: d
Encoding: 100 100 129
Width: 1226
VWidth: 0
GlyphClass: 2
Flags: W
LayerCount: 2
Fore
SplineSet
561 -22 m 0
 722 -22 859 52 919 177 c 1
 923 111 959 32 997 -13 c 1
 1159 10 l 1
 1114 76 1071 162 1071 390 c 2
 1071 1526 l 1
 906 1506 l 1
 906 917 l 1
 796 1011 693 1048 561 1048 c 0
 252 1048 90 810 90 501 c 0
 90 186 278 -22 561 -22 c 0
579 116 m 0
 391 116 260 274 260 507 c 0
 260 732 359 907 585 907 c 0
 704 907 832 844 907 744 c 1
 907 534 l 2
 907 296 818 116 579 116 c 0
EndSplineSet
EndChar

StartChar: dagger
Encoding: 8224 8224 130
Width: 1022
VWidth: 0
GlyphClass: 2
Flags: W
LayerCount: 2
Fore
SplineSet
433 113 m 1
 561 113 l 1
 561 934 l 1
 919 934 l 1
 919 1066 l 1
 575 1066 l 1
 575 1451 l 1
 433 1451 l 1
 433 1066 l 1
 107 1066 l 1
 107 934 l 1
 433 934 l 1
 433 113 l 1
EndSplineSet
EndChar

StartChar: daggerdbl
Encoding: 8225 8225 131
Width: 1022
VWidth: 0
GlyphClass: 2
Flags: W
LayerCount: 2
Fore
SplineSet
420 113 m 1
 591 113 l 1
 565 435 l 1
 909 435 l 1
 909 562 l 1
 565 562 l 1
 565 983 l 1
 916 983 l 1
 916 1115 l 1
 572 1115 l 1
 593 1451 l 1
 422 1451 l 1
 448 1115 l 1
 104 1115 l 1
 104 983 l 1
 442 983 l 1
 442 562 l 1
 98 562 l 1
 98 435 l 1
 442 435 l 1
 420 113 l 1
EndSplineSet
EndChar

StartChar: dblgravecmb
Encoding: 783 783 132
Width: 0
VWidth: 0
GlyphClass: 2
Flags: W
LayerCount: 2
Fore
SplineSet
-531 1174 m 1
 -411 1174 l 1
 -631 1487 l 1
 -807 1487 l 1
 -531 1174 l 1
-262 1174 m 1
 -144 1174 l 1
 -361 1487 l 1
 -537 1487 l 1
 -262 1174 l 1
EndSplineSet
EndChar

StartChar: degree
Encoding: 176 176 133
Width: 844
VWidth: 0
GlyphClass: 2
Flags: W
LayerCount: 2
Fore
SplineSet
414 971 m 0
 387 971 361 976 338 985 c 0
 275 1010 220 1064 220 1151 c 0
 220 1176 226 1200 236 1222 c 0
 265 1282 327 1328 414 1328 c 0
 440 1328 464 1323 488 1314 c 0
 551 1290 608 1237 608 1151 c 0
 608 1126 603 1102 593 1080 c 0
 565 1019 502 971 414 971 c 0
414 855 m 0
 457 855 497 862 536 878 c 0
 638 919 733 1010 733 1150 c 0
 733 1191 725 1228 708 1264 c 0
 661 1363 558 1444 414 1444 c 0
 371 1444 330 1436 291 1421 c 0
 189 1380 95 1289 95 1150 c 0
 95 1109 103 1072 120 1036 c 0
 167 937 271 855 414 855 c 0
EndSplineSet
EndChar

StartChar: dieresis
Encoding: 168 168 134
Width: 743
VWidth: 0
GlyphClass: 2
Flags: W
LayerCount: 2
Fore
SplineSet
121 1183 m 1
 285 1183 l 1
 285 1346 l 1
 121 1346 l 1
 121 1183 l 1
453 1183 m 1
 617 1183 l 1
 617 1346 l 1
 453 1346 l 1
 453 1183 l 1
EndSplineSet
EndChar

StartChar: divide
Encoding: 247 247 135
Width: 1458
VWidth: 0
GlyphClass: 2
Flags: W
LayerCount: 2
Fore
SplineSet
619 21 m 1
 836 21 l 1
 836 231 l 1
 619 231 l 1
 619 21 l 1
198 485 m 1
 1246 485 l 1
 1246 624 l 1
 198 624 l 1
 198 485 l 1
619 873 m 1
 836 873 l 1
 836 1083 l 1
 619 1083 l 1
 619 873 l 1
EndSplineSet
EndChar

StartChar: dollar
Encoding: 36 36 136
Width: 1190
VWidth: 0
GlyphClass: 2
Flags: W
LayerCount: 2
Fore
SplineSet
536 -172 m 1
 659 -172 l 1
 656 -11 l 1
 713 -6 768 5 819 24 c 0
 957 74 1080 177 1080 361 c 0
 1080 477 1038 547 972 604 c 0
 888 677 779 722 656 770 c 1
 658 1299 l 1
 781 1295 878 1261 948 1198 c 1
 997 1326 l 1
 917 1394 798 1436 657 1439 c 1
 654 1575 l 1
 530 1575 l 1
 534 1437 l 1
 421 1428 325 1377 259 1315 c 0
 195 1254 137 1164 137 1047 c 0
 137 991 148 944 169 904 c 0
 240 772 390 712 534 648 c 1
 531 127 l 1
 421 132 325 173 251 223 c 1
 202 89 l 1
 291 25 393 -13 532 -16 c 1
 536 -172 l 1
654 131 m 1
 658 605 l 1
 765 559 901 507 901 358 c 0
 901 325 894 296 881 270 c 0
 841 192 758 145 654 131 c 1
532 818 m 1
 425 858 326 913 326 1059 c 0
 326 1193 414 1278 534 1293 c 1
 532 818 l 1
EndSplineSet
EndChar

StartChar: dotaccent
Encoding: 729 729 137
Width: 524
VWidth: 0
GlyphClass: 2
Flags: W
LayerCount: 2
Fore
SplineSet
184 1246 m 1
 344 1246 l 1
 344 1409 l 1
 184 1409 l 1
 184 1246 l 1
EndSplineSet
EndChar

StartChar: dotlessi
Encoding: 305 305 138
Width: 503
VWidth: 0
GlyphClass: 2
Flags: W
LayerCount: 2
Fore
SplineSet
434 -5 m 0
 481 -5 550 10 600 30 c 1
 580 141 l 1
 545 128 487 118 457 118 c 0
 389 118 332 143 332 283 c 2
 332 1026 l 1
 167 1026 l 1
 167 278 l 2
 167 67 292 -5 434 -5 c 0
EndSplineSet
EndChar

StartChar: e
Encoding: 101 101 139
Width: 1070
VWidth: 0
GlyphClass: 2
Flags: W
LayerCount: 2
Fore
SplineSet
619 -22 m 0
 779 -22 931 43 1031 146 c 1
 948 252 l 1
 881 176 758 116 619 116 c 0
 471 116 325 219 285 371 c 1
 673 425 964 506 964 751 c 0
 964 918 826 1048 610 1048 c 0
 281 1048 90 797 90 516 c 0
 90 187 315 -22 619 -22 c 0
273 490 m 1
 271 506 270 525 270 539 c 0
 270 786 445 907 611 907 c 0
 732 907 801 846 801 755 c 0
 801 594 581 534 273 490 c 1
EndSplineSet
EndChar

StartChar: e.alt
Encoding: 65539 -1 140
Width: 1073
VWidth: 0
GlyphClass: 2
Flags: W
LayerCount: 2
Fore
SplineSet
589 -19 m 0
 758 -19 895 46 1013 170 c 1
 930 276 l 1
 856 187 735 123 596 123 c 0
 462 123 334 192 289 371 c 1
 655 425 946 506 946 751 c 0
 946 918 808 1056 592 1056 c 0
 269 1056 94 805 94 516 c 0
 94 176 325 -19 589 -19 c 0
277 490 m 1
 275 507 274 523 274 539 c 0
 274 735 392 913 593 913 c 0
 714 913 783 846 783 755 c 0
 783 594 563 534 277 490 c 1
EndSplineSet
EndChar

StartChar: eacute
Encoding: 233 233 141
Width: 1070
VWidth: 0
GlyphClass: 2
Flags: W
LayerCount: 2
Fore
SplineSet
619 -22 m 0
 779 -22 931 43 1031 146 c 1
 948 252 l 1
 881 176 758 116 619 116 c 0
 471 116 325 219 285 371 c 1
 673 425 964 506 964 751 c 0
 964 918 826 1048 610 1048 c 0
 281 1048 90 797 90 516 c 0
 90 187 315 -22 619 -22 c 0
273 490 m 1
 271 506 270 525 270 539 c 0
 270 786 445 907 611 907 c 0
 732 907 801 846 801 755 c 0
 801 594 581 534 273 490 c 1
527 1178 m 1
 657 1178 l 1
 965 1498 l 1
 753 1498 l 1
 527 1178 l 1
EndSplineSet
EndChar

StartChar: ecircumflex
Encoding: 234 234 142
Width: 1070
VWidth: 0
GlyphClass: 2
Flags: W
LayerCount: 2
Fore
SplineSet
619 -22 m 0
 779 -22 931 43 1031 146 c 1
 948 252 l 1
 881 176 758 116 619 116 c 0
 471 116 325 219 285 371 c 1
 673 425 964 506 964 751 c 0
 964 918 826 1048 610 1048 c 0
 281 1048 90 797 90 516 c 0
 90 187 315 -22 619 -22 c 0
285 1178 m 1
 411 1178 l 1
 589 1394 l 1
 767 1178 l 1
 899 1178 l 1
 670 1502 l 1
 513 1502 l 1
 285 1178 l 1
273 490 m 1
 271 506 270 525 270 539 c 0
 270 786 445 907 611 907 c 0
 732 907 801 846 801 755 c 0
 801 594 581 534 273 490 c 1
EndSplineSet
EndChar

StartChar: edieresis
Encoding: 235 235 143
Width: 1070
VWidth: 0
GlyphClass: 2
Flags: W
LayerCount: 2
Fore
SplineSet
619 -22 m 0
 779 -22 931 43 1031 146 c 1
 948 252 l 1
 881 176 758 116 619 116 c 0
 471 116 325 219 285 371 c 1
 673 425 964 506 964 751 c 0
 964 918 826 1048 610 1048 c 0
 281 1048 90 797 90 516 c 0
 90 187 315 -22 619 -22 c 0
344 1178 m 1
 508 1178 l 1
 508 1341 l 1
 344 1341 l 1
 344 1178 l 1
273 490 m 1
 271 506 270 525 270 539 c 0
 270 786 445 907 611 907 c 0
 732 907 801 846 801 755 c 0
 801 594 581 534 273 490 c 1
676 1178 m 1
 840 1178 l 1
 840 1341 l 1
 676 1341 l 1
 676 1178 l 1
EndSplineSet
EndChar

StartChar: egrave
Encoding: 232 232 144
Width: 1070
VWidth: 0
GlyphClass: 2
Flags: W
LayerCount: 2
Fore
SplineSet
619 -22 m 0
 779 -22 931 43 1031 146 c 1
 948 252 l 1
 881 176 758 116 619 116 c 0
 471 116 325 219 285 371 c 1
 673 425 964 506 964 751 c 0
 964 918 826 1048 610 1048 c 0
 281 1048 90 797 90 516 c 0
 90 187 315 -22 619 -22 c 0
527 1172 m 1
 656 1172 l 1
 409 1492 l 1
 195 1492 l 1
 527 1172 l 1
273 490 m 1
 271 506 270 525 270 539 c 0
 270 786 445 907 611 907 c 0
 732 907 801 846 801 755 c 0
 801 594 581 534 273 490 c 1
EndSplineSet
EndChar

StartChar: eight
Encoding: 56 56 145
Width: 1196
VWidth: 0
GlyphClass: 2
Flags: W
LayerCount: 2
Fore
SplineSet
598 -23 m 0
 737 -23 859 17 943 78 c 0
 1026 138 1092 230 1092 367 c 0
 1092 580 955 694 776 747 c 1
 934 796 1057 898 1057 1091 c 0
 1057 1148 1045 1199 1021 1244 c 0
 951 1376 799 1453 598 1453 c 0
 534 1453 475 1444 419 1428 c 0
 270 1384 139 1280 139 1091 c 0
 139 898 262 796 420 747 c 1
 241 694 104 580 104 367 c 0
 104 304 118 248 145 200 c 0
 222 62 385 -23 598 -23 c 0
598 119 m 0
 418 119 281 201 281 380 c 0
 281 421 289 457 305 489 c 0
 356 592 468 647 598 673 c 1
 755 641 915 567 915 380 c 0
 915 337 907 300 891 268 c 0
 844 172 740 119 598 119 c 0
598 820 m 1
 441 849 311 917 311 1086 c 0
 311 1123 319 1156 334 1185 c 0
 378 1268 473 1317 598 1317 c 0
 754 1317 885 1242 885 1086 c 0
 885 917 755 849 598 820 c 1
EndSplineSet
EndChar

StartChar: ellipsis
Encoding: 8230 8230 146
Width: 1620
VWidth: 0
GlyphClass: 2
Flags: W
LayerCount: 2
Fore
SplineSet
159 -11 m 1
 376 -11 l 1
 376 199 l 1
 159 199 l 1
 159 -11 l 1
699 -11 m 1
 916 -11 l 1
 916 199 l 1
 699 199 l 1
 699 -11 l 1
1239 -11 m 1
 1456 -11 l 1
 1456 199 l 1
 1239 199 l 1
 1239 -11 l 1
EndSplineSet
EndChar

StartChar: emacron
Encoding: 275 275 147
Width: 1070
VWidth: 0
GlyphClass: 2
Flags: W
LayerCount: 2
Fore
SplineSet
619 -22 m 0
 779 -22 931 43 1031 146 c 1
 948 252 l 1
 881 176 758 116 619 116 c 0
 471 116 325 219 285 371 c 1
 673 425 964 506 964 751 c 0
 964 918 826 1048 610 1048 c 0
 281 1048 90 797 90 516 c 0
 90 187 315 -22 619 -22 c 0
273 490 m 1
 271 506 270 525 270 539 c 0
 270 786 445 907 611 907 c 0
 732 907 801 846 801 755 c 0
 801 594 581 534 273 490 c 1
276 1183 m 1
 848 1183 l 1
 848 1317 l 1
 276 1317 l 1
 276 1183 l 1
EndSplineSet
EndChar

StartChar: emdash
Encoding: 8212 8212 148
Width: 2171
VWidth: 0
GlyphClass: 2
Flags: W
LayerCount: 2
Fore
SplineSet
-3 489 m 1
 2160 489 l 1
 2160 626 l 1
 -3 626 l 1
 -3 489 l 1
EndSplineSet
EndChar

StartChar: endash
Encoding: 8211 8211 149
Width: 1085
VWidth: 0
GlyphClass: 2
Flags: W
LayerCount: 2
Fore
SplineSet
-6 489 m 1
 1084 489 l 1
 1084 626 l 1
 -6 626 l 1
 -6 489 l 1
EndSplineSet
EndChar

StartChar: eogonek
Encoding: 281 281 150
Width: 1070
VWidth: 0
GlyphClass: 2
Flags: W
LayerCount: 2
Fore
SplineSet
711 -354 m 0
 775 -354 842 -344 888 -325 c 1
 888 -214 l 1
 842 -232 798 -245 734 -245 c 0
 683 -245 634 -214 634 -163 c 0
 634 -147 639 -131 649 -115 c 0
 679 -68 727 -33 777 -1 c 1
 876 26 965 78 1031 146 c 1
 948 252 l 1
 881 176 758 116 619 116 c 0
 471 116 325 219 285 371 c 1
 673 425 964 506 964 751 c 0
 964 918 826 1048 610 1048 c 0
 281 1048 90 797 90 516 c 0
 90 196 303 -11 595 -22 c 1
 582 -32 571 -42 560 -53 c 0
 527 -86 493 -131 493 -189 c 0
 493 -216 499 -240 510 -260 c 0
 544 -321 617 -354 711 -354 c 0
273 490 m 1
 271 506 270 525 270 539 c 0
 270 786 445 907 611 907 c 0
 732 907 801 846 801 755 c 0
 801 594 581 534 273 490 c 1
EndSplineSet
EndChar

StartChar: equal
Encoding: 61 61 151
Width: 1458
VWidth: 0
GlyphClass: 2
Flags: W
LayerCount: 2
Fore
SplineSet
198 283 m 1
 1247 283 l 1
 1247 420 l 1
 198 420 l 1
 198 283 l 1
197 689 m 1
 1246 689 l 1
 1246 827 l 1
 197 827 l 1
 197 689 l 1
EndSplineSet
EndChar

StartChar: eth
Encoding: 240 240 152
Width: 1190
VWidth: 0
GlyphClass: 2
Flags: W
LayerCount: 2
Fore
SplineSet
581 -23 m 0
 662 -23 734 -8 798 22 c 0
 1006 121 1093 361 1093 672 c 0
 1093 805 1075 921 1045 1026 c 1
 1190 1026 l 1
 1190 1163 l 1
 993 1163 l 1
 920 1315 812 1428 653 1490 c 1
 574 1406 l 1
 684 1344 766 1271 826 1163 c 1
 620 1163 l 1
 620 1026 l 1
 882 1026 l 1
 906 937 917 847 918 733 c 1
 918 723 l 1
 846 838 725 897 545 897 c 0
 475 897 412 886 356 864 c 0
 199 802 88 662 88 446 c 0
 88 380 99 318 122 261 c 0
 189 93 347 -23 581 -23 c 0
573 118 m 0
 526 118 484 126 446 142 c 0
 339 188 264 291 264 441 c 0
 264 638 373 757 572 757 c 0
 742 757 859 664 903 536 c 1
 903 512 l 2
 903 290 798 118 573 118 c 0
EndSplineSet
EndChar

StartChar: exclam
Encoding: 33 33 153
Width: 737
VWidth: 0
GlyphClass: 2
Flags: W
LayerCount: 2
Fore
SplineSet
352 -6 m 0
 409 -6 466 35 466 105 c 0
 466 165 426 217 353 217 c 0
 296 217 239 176 239 106 c 0
 239 46 279 -6 352 -6 c 0
305 373 m 1
 391 373 l 1
 441 1456 l 1
 254 1456 l 1
 305 373 l 1
EndSplineSet
EndChar

StartChar: exclamdown
Encoding: 161 161 154
Width: 737
VWidth: 0
GlyphClass: 2
Flags: W
LayerCount: 2
Fore
SplineSet
254 -6 m 1
 441 -6 l 1
 391 1077 l 1
 305 1077 l 1
 254 -6 l 1
353 1233 m 0
 426 1233 466 1285 466 1345 c 0
 466 1415 409 1456 352 1456 c 0
 279 1456 239 1404 239 1344 c 0
 239 1274 296 1233 353 1233 c 0
EndSplineSet
EndChar

StartChar: f
Encoding: 102 102 155
Width: 699
VWidth: 0
GlyphClass: 2
Flags: W
LayerCount: 2
Fore
SplineSet
91 -449 m 1
 330 -418 417 -261 417 -11 c 2
 417 919 l 1
 665 919 l 1
 665 1026 l 1
 417 1026 l 1
 417 1193 l 2
 417 1344 467 1409 584 1409 c 0
 620 1409 658 1401 695 1392 c 1
 719 1499 l 1
 655 1521 595 1532 541 1532 c 0
 339 1532 253 1423 253 1170 c 2
 253 1026 l 1
 51 1026 l 1
 51 919 l 1
 253 919 l 1
 253 -34 l 2
 253 -194 190 -299 70 -328 c 1
 91 -449 l 1
EndSplineSet
EndChar

StartChar: five
Encoding: 53 53 156
Width: 1190
VWidth: 0
GlyphClass: 2
Flags: W
LayerCount: 2
Fore
SplineSet
147 173 m 1
 223 55 357 -23 548 -23 c 0
 844.26040384 -23 1068 133.829948894 1068 449 c 0
 1068 703.182322979 901.306377095 905 599 905 c 0
 496 905 421 879 352 839 c 1
 366 1280 l 1
 994 1280 l 1
 994 1425 l 1
 203 1425 l 1
 203 652 l 1
 379 658 l 1
 419 718 495 758 593 758 c 0
 773.273269489 758 891 646.892570786 891 452 c 0
 891 270.025893758 767.864384271 119 546 119 c 0
 396 119 295 190 228 289 c 1
 147 173 l 1
EndSplineSet
EndChar

StartChar: florin
Encoding: 402 402 157
Width: 1190
VWidth: 0
GlyphClass: 2
Flags: W
LayerCount: 2
Fore
SplineSet
177 -332 m 0
 238 -332 290 -320 330 -295 c 0
 457 -218 499 -52 532 120 c 1
 659 803 l 1
 872 803 l 1
 882 943 l 1
 682 943 l 1
 718 1139 l 2
 736 1236 776 1294 891 1294 c 0
 931 1294 967 1285 1000 1272 c 1
 1008 1417 l 1
 964 1428 915 1436 865 1436 c 0
 643 1436 560 1288 534 1094 c 1
 511 943 l 1
 342 943 l 1
 332 803 l 1
 487 803 l 1
 436 538 397 260 334 7 c 0
 312 -84 275 -194 163 -194 c 0
 138 -194 112 -189 85 -178 c 1
 73 -316 l 1
 111 -327 146 -332 177 -332 c 0
EndSplineSet
EndChar

StartChar: four
Encoding: 52 52 158
Width: 1189
VWidth: 0
GlyphClass: 2
Flags: W
LayerCount: 2
Fore
SplineSet
726 0 m 1
 898 0 l 1
 898 351 l 1
 1112 351 l 1
 1112 483 l 1
 898 483 l 1
 898 1420 l 1
 690 1420 l 1
 25 475 l 1
 25 351 l 1
 726 351 l 1
 726 0 l 1
196 483 m 1
 638 1146 l 1
 726 1292 l 1
 726 483 l 1
 196 483 l 1
EndSplineSet
EndChar

StartChar: fraction
Encoding: 8260 8260 159
Width: 368
VWidth: 0
GlyphClass: 2
Flags: W
LayerCount: 2
Fore
SplineSet
-337 0 m 1
 -186 0 l 1
 717 1436 l 1
 568 1436 l 1
 -337 0 l 1
EndSplineSet
EndChar

StartChar: g
Encoding: 103 103 160
Width: 1143
VWidth: 0
GlyphClass: 2
Flags: W
LayerCount: 2
Fore
SplineSet
525 -494 m 0
 824 -494 1023 -306 1023 -23 c 2
 1023 962 l 1
 943 1014 800 1048 666 1048 c 0
 320 1048 90 804 90 438 c 0
 90 162 256 -22 506 -22 c 0
 648 -22 784 39 859 133 c 1
 859 -44 l 2
 859 -232 720 -357 511 -357 c 0
 422 -357 300 -326 208 -280 c 1
 189 -433 l 1
 290 -470 424 -494 525 -494 c 0
531 116 m 0
 368 116 260 249 260 448 c 0
 260 723 421 907 663 907 c 0
 739 907 817 893 859 872 c 1
 859 453 l 2
 859 261 728 116 531 116 c 0
EndSplineSet
EndChar

StartChar: gcommaaccent
Encoding: 291 291 161
Width: 1143
VWidth: 0
GlyphClass: 2
Flags: W
LayerCount: 2
Fore
SplineSet
525 -494 m 0
 824 -494 1023 -306 1023 -23 c 2
 1023 962 l 1
 943 1014 800 1048 666 1048 c 0
 320 1048 90 804 90 438 c 0
 90 162 256 -22 506 -22 c 0
 648 -22 784 39 859 133 c 1
 859 -44 l 2
 859 -232 720 -357 511 -357 c 0
 422 -357 300 -326 208 -280 c 1
 189 -433 l 1
 290 -470 424 -494 525 -494 c 0
531 116 m 0
 368 116 260 249 260 448 c 0
 260 723 421 907 663 907 c 0
 739 907 817 893 859 872 c 1
 859 453 l 2
 859 261 728 116 531 116 c 0
423 1162 m 1
 610 1162 l 1
 717 1625 l 1
 586 1625 l 1
 423 1162 l 1
EndSplineSet
EndChar

StartChar: germandbls
Encoding: 223 223 162
Width: 1257
VWidth: 0
GlyphClass: 2
Flags: W
LayerCount: 2
Fore
SplineSet
792 -23 m 0
 841 -23 888 -14 934 3 c 0
 1064 52 1173 164 1173 341 c 0
 1173 407 1160 464 1133 514 c 0
 1054 661 896 747 722 798 c 0
 703 804 693 810 693 816 c 0
 693 827 710 834 719 838 c 0
 788 868 852 916 903 968 c 0
 955 1020 1011 1093 1011 1192 c 0
 1011 1236 1002 1277 984 1316 c 0
 925 1440 788 1511 604 1511 c 0
 535 1511 474 1501 420 1480 c 0
 267 1420 174 1282 174 1071 c 2
 176 0 l 1
 341 0 l 1
 341 101 340 217 340 326 c 0
 340 450 338 587 338 711 c 0
 338 820 337 937 337 1038 c 0
 337 1228 413 1382 603 1382 c 0
 731 1382 823 1318 823 1191 c 0
 823 1157 817 1125 804 1095 c 0
 763 1001 681 934 588 892 c 1
 572 756 l 1
 672 699 777 641 858 570 c 0
 924 512 986 437 986 322 c 0
 986 197 911 109 788 109 c 0
 679 109 597 173 536 243 c 1
 471 138 l 1
 543 47 648 -23 792 -23 c 0
EndSplineSet
EndChar

StartChar: grave
Encoding: 96 96 163
Width: 593
VWidth: 0
GlyphClass: 2
Flags: W
LayerCount: 2
Fore
SplineSet
333 1172 m 1
 462 1172 l 1
 215 1492 l 1
 1 1492 l 1
 333 1172 l 1
EndSplineSet
EndChar

StartChar: greater
Encoding: 62 62 164
Width: 1458
VWidth: 0
GlyphClass: 2
Flags: W
LayerCount: 2
Fore
SplineSet
215 58 m 1
 1225 505 l 1
 1225 594 l 1
 220 1078 l 1
 220 926 l 1
 1004 555 l 1
 215 212 l 1
 215 58 l 1
EndSplineSet
EndChar

StartChar: greaterequal
Encoding: 8805 8805 165
Width: 1350
VWidth: 0
GlyphClass: 2
Flags: W
LayerCount: 2
Fore
SplineSet
192 218 m 1
 1152 668 l 1
 1152 748 l 1
 196 1221 l 1
 196 1081 l 1
 974 707 l 1
 192 359 l 1
 192 218 l 1
161 9 m 1
 1171 9 l 1
 1171 131 l 1
 161 131 l 1
 161 9 l 1
EndSplineSet
EndChar

StartChar: guillemotleft
Encoding: 171 171 166
Width: 1156
VWidth: 0
GlyphClass: 2
Flags: W
LayerCount: 2
Fore
SplineSet
515 171 m 1
 672 171 l 1
 416 541 l 1
 681 914 l 1
 521 914 l 1
 246 541 l 1
 515 171 l 1
885 171 m 1
 1042 171 l 1
 786 541 l 1
 1049 914 l 1
 890 914 l 1
 616 541 l 1
 885 171 l 1
EndSplineSet
EndChar

StartChar: guillemotright
Encoding: 187 187 167
Width: 1156
VWidth: 0
GlyphClass: 2
Flags: W
LayerCount: 2
Fore
SplineSet
165 171 m 1
 325 171 l 1
 600 542 l 1
 330 914 l 1
 172 914 l 1
 430 542 l 1
 165 171 l 1
563 171 m 1
 720 171 l 1
 996 542 l 1
 726 914 l 1
 570 914 l 1
 824 542 l 1
 563 171 l 1
EndSplineSet
EndChar

StartChar: guilsinglleft
Encoding: 8249 8249 168
Width: 642
VWidth: 0
GlyphClass: 2
Flags: W
LayerCount: 2
Fore
SplineSet
374 171 m 1
 530 171 l 1
 275 541 l 1
 538 914 l 1
 379 914 l 1
 105 541 l 1
 374 171 l 1
EndSplineSet
EndChar

StartChar: guilsinglright
Encoding: 8250 8250 169
Width: 642
VWidth: 0
GlyphClass: 2
Flags: W
LayerCount: 2
Fore
SplineSet
103 171 m 1
 260 171 l 1
 537 542 l 1
 266 914 l 1
 111 914 l 1
 365 542 l 1
 103 171 l 1
EndSplineSet
EndChar

StartChar: h
Encoding: 104 104 170
Width: 1222
VWidth: 0
GlyphClass: 2
Flags: W
LayerCount: 2
Fore
SplineSet
1130 -19 m 1
 1146 119 l 1
 1022 95 1029 167 1030 320 c 2
 1032 565 l 2
 1035 903 918 1048 686 1048 c 0
 534 1048 384 980 316 875 c 1
 316 1526 l 1
 152 1506 l 1
 152 0 l 1
 316 0 l 1
 316 532 l 2
 316 795 499 907 651 907 c 0
 805 907 867 804 867 562 c 1
 865 284 l 2
 863 48 912 -51 1130 -19 c 1
EndSplineSet
EndChar

StartChar: hbar
Encoding: 295 295 171
Width: 1222
VWidth: 0
GlyphClass: 2
Flags: W
LayerCount: 2
Fore
SplineSet
1130 -19 m 1
 1146 119 l 1
 1022 95 1029 167 1030 320 c 2
 1032 565 l 2
 1035 903 918 1048 686 1048 c 0
 534 1048 384 980 316 875 c 1
 316 1526 l 1
 152 1506 l 1
 152 0 l 1
 316 0 l 1
 316 532 l 2
 316 795 499 907 651 907 c 0
 805 907 867 804 867 562 c 1
 865 284 l 2
 863 48 912 -51 1130 -19 c 1
331 1624 m 1
 903 1624 l 1
 903 1758 l 1
 331 1758 l 1
 331 1624 l 1
EndSplineSet
EndChar

StartChar: hungarumlaut
Encoding: 733 733 172
Width: 969
VWidth: 0
GlyphClass: 2
Flags: W
LayerCount: 2
Fore
SplineSet
162 1174 m 1
 280 1174 l 1
 555 1487 l 1
 379 1487 l 1
 162 1174 l 1
429 1174 m 1
 549 1174 l 1
 825 1487 l 1
 649 1487 l 1
 429 1174 l 1
EndSplineSet
EndChar

StartChar: hyphen
Encoding: 45 45 173
Width: 728
VWidth: 0
GlyphClass: 2
Flags: W
LayerCount: 2
Fore
SplineSet
79 489 m 1
 651 489 l 1
 651 626 l 1
 79 626 l 1
 79 489 l 1
EndSplineSet
EndChar

StartChar: i
Encoding: 105 105 174
Width: 603
VWidth: 0
GlyphClass: 2
Flags: W
LayerCount: 2
Fore
SplineSet
625 26 m 1
 602 145 l 1
 466 96 331 74 331 267 c 2
 331 1026 l 1
 167 1026 l 1
 167 262 l 2
 167 -19 393 -69 625 26 c 1
251 1245 m 0
 305 1245 359 1278 359 1344 c 0
 359 1410 306 1444 252 1444 c 0
 198 1444 144 1411 144 1345 c 0
 144 1279 197 1245 251 1245 c 0
EndSplineSet
EndChar

StartChar: iacute
Encoding: 237 237 175
Width: 503
VWidth: 0
GlyphClass: 2
Flags: W
LayerCount: 2
Fore
SplineSet
434 -5 m 0
 481 -5 550 10 600 30 c 1
 580 141 l 1
 545 128 487 118 457 118 c 0
 389 118 332 143 332 283 c 2
 332 1026 l 1
 167 1026 l 1
 167 278 l 2
 167 67 292 -5 434 -5 c 0
185 1173 m 1
 315 1173 l 1
 623 1493 l 1
 411 1493 l 1
 185 1173 l 1
EndSplineSet
EndChar

StartChar: icircumflex
Encoding: 238 238 176
Width: 503
VWidth: 0
GlyphClass: 2
Flags: W
LayerCount: 2
Fore
SplineSet
434 -5 m 0
 481 -5 550 10 600 30 c 1
 580 141 l 1
 545 128 487 118 457 118 c 0
 389 118 332 143 332 283 c 2
 332 1026 l 1
 167 1026 l 1
 167 278 l 2
 167 67 292 -5 434 -5 c 0
-57 1173 m 1
 69 1173 l 1
 247 1389 l 1
 425 1173 l 1
 557 1173 l 1
 328 1497 l 1
 171 1497 l 1
 -57 1173 l 1
EndSplineSet
EndChar

StartChar: idieresis
Encoding: 239 239 177
Width: 503
VWidth: 0
GlyphClass: 2
Flags: W
LayerCount: 2
Fore
SplineSet
434 -5 m 0
 481 -5 550 10 600 30 c 1
 580 141 l 1
 545 128 487 118 457 118 c 0
 389 118 332 143 332 283 c 2
 332 1026 l 1
 167 1026 l 1
 167 278 l 2
 167 67 292 -5 434 -5 c 0
2 1173 m 1
 166 1173 l 1
 166 1336 l 1
 2 1336 l 1
 2 1173 l 1
334 1173 m 1
 498 1173 l 1
 498 1336 l 1
 334 1336 l 1
 334 1173 l 1
EndSplineSet
EndChar

StartChar: igrave
Encoding: 236 236 178
Width: 503
VWidth: 0
GlyphClass: 2
Flags: W
LayerCount: 2
Fore
SplineSet
434 -5 m 0
 481 -5 550 10 600 30 c 1
 580 141 l 1
 545 128 487 118 457 118 c 0
 389 118 332 143 332 283 c 2
 332 1026 l 1
 167 1026 l 1
 167 278 l 2
 167 67 292 -5 434 -5 c 0
217 1172 m 1
 346 1172 l 1
 99 1492 l 1
 -115 1492 l 1
 217 1172 l 1
EndSplineSet
EndChar

StartChar: ij
Encoding: 307 307 179
Width: 1142
VWidth: 0
GlyphClass: 2
Flags: W
LayerCount: 2
Fore
SplineSet
625 26 m 1
 602 145 l 1
 466 96 331 74 331 267 c 2
 331 1026 l 1
 167 1026 l 1
 167 262 l 2
 167 -19 393 -69 625 26 c 1
441 -435 m 1
 729 -523 974 -416 974 35 c 2
 974 1026 l 1
 810 1026 l 1
 810 29 l 2
 810 -340 640 -367 460 -307 c 1
 441 -435 l 1
251 1245 m 0
 305 1245 359 1278 359 1344 c 0
 359 1410 306 1444 252 1444 c 0
 198 1444 144 1411 144 1345 c 0
 144 1279 197 1245 251 1245 c 0
893 1245 m 0
 947 1245 1001 1278 1001 1344 c 0
 1001 1410 948 1444 894 1444 c 0
 840 1444 786 1411 786 1345 c 0
 786 1279 839 1245 893 1245 c 0
EndSplineSet
EndChar

StartChar: imacron
Encoding: 299 299 180
Width: 503
VWidth: 0
GlyphClass: 2
Flags: W
LayerCount: 2
Fore
SplineSet
434 -5 m 0
 481 -5 550 10 600 30 c 1
 580 141 l 1
 545 128 487 118 457 118 c 0
 389 118 332 143 332 283 c 2
 332 1026 l 1
 167 1026 l 1
 167 278 l 2
 167 67 292 -5 434 -5 c 0
-34 1183 m 1
 538 1183 l 1
 538 1317 l 1
 -34 1317 l 1
 -34 1183 l 1
EndSplineSet
EndChar

StartChar: infinity
Encoding: 8734 8734 181
Width: 1724
VWidth: 0
GlyphClass: 2
Flags: W
LayerCount: 2
Fore
SplineSet
460 236 m 0
 500 236 538 242 574 254 c 0
 698 297 785 391 860 488 c 1
 926 404 991 341 1054 299 c 0
 1117 257 1186 236 1260 236 c 0
 1308 236 1354 245 1398 262 c 0
 1522 311 1621 425 1621 595 c 0
 1621 646 1613 692 1596 735 c 0
 1547 859 1434 944 1262 944 c 0
 1219 944 1180 938 1144 926 c 0
 1019 884 936 789 862 692 c 1
 833 730 803 765 772 796 c 0
 696 873 600 944 455 944 c 0
 350 944 262 900 204 847 c 0
 146 795 96 715 96 612 c 0
 96 561 104 512 122 467 c 0
 172 339 285 236 460 236 c 0
463 355 m 0
 427 355 395 362 366 375 c 0
 290 410 226 485 226 592 c 0
 226 624 232 654 242 683 c 0
 272 766 341 829 453 829 c 0
 488 829 521 822 552 810 c 0
 658 768 729 679 791 589 c 1
 747 529 697 468 640 424 c 0
 594 388 538 355 463 355 c 0
1263 355 m 0
 1190 355 1141 380 1095 415 c 0
 1031 463 982 523 929 592 c 1
 970 652 1019 712 1075 756 c 0
 1122 793 1182 829 1258 829 c 0
 1291 829 1320 823 1348 812 c 0
 1420 782 1482 717 1482 618 c 0
 1482 466 1414 355 1263 355 c 0
EndSplineSet
EndChar

StartChar: integral
Encoding: 8747 8747 182
Width: 702
VWidth: 0
GlyphClass: 2
Flags: W
LayerCount: 2
Fore
SplineSet
260 -399 m 0
 483 -399 557 -245 557 -23 c 2
 557 1279 l 2
 557 1415 584 1496 720 1496 c 0
 757 1496 804 1491 830 1481 c 1
 828 1610 l 1
 784 1620 747 1631 692 1631 c 0
 469 1631 393 1477 393 1255 c 2
 393 -47 l 2
 393 -183 368 -264 232 -264 c 0
 195 -264 148 -259 122 -249 c 1
 124 -378 l 1
 172 -391 201 -399 260 -399 c 0
EndSplineSet
EndChar

StartChar: iogonek
Encoding: 303 303 183
Width: 603
VWidth: 0
GlyphClass: 2
Flags: W
LayerCount: 2
Fore
SplineSet
270 -390 m 0
 334 -390 401 -380 447 -361 c 1
 447 -250 l 1
 401 -268 357 -281 293 -281 c 0
 242 -281 193 -250 193 -199 c 0
 193 -183 198 -167 208 -151 c 0
 245 -93 310 -52 372 -14 c 1
 447 -25 536 -11 625 26 c 1
 602 145 l 1
 466 96 331 74 331 267 c 2
 331 1026 l 1
 167 1026 l 1
 167 262 l 2
 167 129 217 48 295 9 c 1
 267 12 l 1
 213 -14 159 -49 119 -89 c 0
 86 -122 52 -167 52 -225 c 0
 52 -252 58 -276 69 -296 c 0
 103 -357 176 -390 270 -390 c 0
251 1245 m 0
 305 1245 359 1278 359 1344 c 0
 359 1410 306 1444 252 1444 c 0
 198 1444 144 1411 144 1345 c 0
 144 1279 197 1245 251 1245 c 0
EndSplineSet
EndChar

StartChar: itilde
Encoding: 297 297 184
Width: 503
VWidth: 0
GlyphClass: 2
Flags: W
LayerCount: 2
Fore
SplineSet
-70 1203 m 1
 35 1203 l 1
 42 1260 72 1288 126 1288 c 0
 221 1288 283 1220 379 1220 c 0
 503 1220 561 1322 574 1435 c 1
 466 1435 l 1
 459 1384 432 1345 379 1345 c 0
 360 1345 340 1349 320 1356 c 0
 262 1377 205 1413 129 1413 c 0
 5 1413 -60 1319 -70 1203 c 1
434 -5 m 0
 481 -5 550 10 600 30 c 1
 580 141 l 1
 545 128 487 118 457 118 c 0
 389 118 332 143 332 283 c 2
 332 1026 l 1
 167 1026 l 1
 167 278 l 2
 167 67 292 -5 434 -5 c 0
EndSplineSet
EndChar

StartChar: j
Encoding: 106 106 185
Width: 539
VWidth: 0
GlyphClass: 2
Flags: W
LayerCount: 2
Fore
SplineSet
-162 -435 m 1
 126 -523 371 -416 371 35 c 2
 371 1026 l 1
 207 1026 l 1
 207 29 l 2
 207 -340 37 -367 -143 -307 c 1
 -162 -435 l 1
290 1245 m 0
 344 1245 398 1278 398 1344 c 0
 398 1410 345 1444 291 1444 c 0
 237 1444 183 1411 183 1345 c 0
 183 1279 236 1245 290 1245 c 0
EndSplineSet
EndChar

StartChar: jcircumflex
Encoding: 309 309 186
Width: 503
VWidth: 0
GlyphClass: 2
Flags: W
LayerCount: 2
Fore
SplineSet
21 -429 m 0
 67 -429 106 -422 140 -407 c 0
 296 -339 340 -150 340 73 c 2
 340 1026 l 1
 175 1026 l 1
 175 31 l 2
 175 -146 138 -283 -18 -283 c 0
 -48 -283 -72 -278 -102 -273 c 1
 -101 -416 l 1
 -63 -425 -23 -429 21 -429 c 0
-50 1173 m 1
 76 1173 l 1
 254 1389 l 1
 432 1173 l 1
 564 1173 l 1
 335 1497 l 1
 178 1497 l 1
 -50 1173 l 1
EndSplineSet
EndChar

StartChar: k
Encoding: 107 107 187
Width: 1107
VWidth: 0
GlyphClass: 2
Flags: W
LayerCount: 2
Fore
SplineSet
1064 -35 m 1
 1153 89 l 1
 1050 88 962 158 891 270 c 2
 694 580 l 1
 981 976 l 1
 832 1026 l 1
 316 292 l 1
 316 1526 l 1
 152 1496 l 1
 152 60 l 2
 152 -26 243 -39 297 27 c 1
 602 458 l 1
 763 189 l 2
 843 55 960 -16 1064 -35 c 1
EndSplineSet
EndChar

StartChar: k.alt
Encoding: 65540 -1 188
Width: 1082
VWidth: 0
GlyphClass: 2
Flags: W
LayerCount: 2
Fore
SplineSet
178 0 m 1
 303 0 l 1
 403 149 504 297 604 445 c 1
 885 0 l 1
 1066 0 l 1
 695 580 l 1
 796 729 897 877 998 1026 c 1
 819 1026 l 1
 343 308 l 1
 343 1526 l 1
 178 1526 l 1
 178 0 l 1
EndSplineSet
EndChar

StartChar: kcommaaccent
Encoding: 311 311 189
Width: 1107
VWidth: 0
GlyphClass: 2
Flags: W
LayerCount: 2
Fore
SplineSet
1064 -35 m 1
 1153 89 l 1
 1050 88 962 158 891 270 c 2
 694 580 l 1
 981 976 l 1
 832 1026 l 1
 316 292 l 1
 316 1526 l 1
 152 1496 l 1
 152 60 l 2
 152 -26 243 -39 297 27 c 1
 602 458 l 1
 763 189 l 2
 843 55 960 -16 1064 -35 c 1
440 -625 m 1
 571 -625 l 1
 734 -162 l 1
 547 -162 l 1
 440 -625 l 1
EndSplineSet
EndChar

StartChar: kgreenlandic
Encoding: 312 312 190
Width: 1082
VWidth: 0
GlyphClass: 2
Flags: W
LayerCount: 2
Fore
SplineSet
178 0 m 1
 343 0 l 1
 343 471 l 1
 853 0 l 1
 1072 0 l 1
 881 174 695 338 504 512 c 1
 1034 1026 l 1
 809 1026 l 1
 343 557 l 1
 343 1026 l 1
 178 1026 l 1
 178 0 l 1
EndSplineSet
EndChar

StartChar: l
Encoding: 108 108 191
Width: 686
VWidth: 0
GlyphClass: 2
Flags: W
LayerCount: 2
Fore
SplineSet
720 35 m 1
 695 152 l 1
 519 77 332 84 332 292 c 2
 332 1526 l 1
 168 1496 l 1
 168 300 l 2
 168 -9 450 -82 720 35 c 1
EndSplineSet
EndChar

StartChar: ldot
Encoding: 320 320 192
Width: 686
VWidth: 0
GlyphClass: 2
Flags: W
LayerCount: 2
Fore
SplineSet
720 35 m 1
 695 152 l 1
 519 77 332 84 332 292 c 2
 332 1526 l 1
 168 1496 l 1
 168 300 l 2
 168 -9 450 -82 720 35 c 1
518 1132 m 1
 735 1132 l 1
 735 1342 l 1
 518 1342 l 1
 518 1132 l 1
EndSplineSet
EndChar

StartChar: less
Encoding: 60 60 193
Width: 1458
VWidth: 0
GlyphClass: 2
Flags: W
LayerCount: 2
Fore
SplineSet
1223 48 m 1
 1223 200 l 1
 438 552 l 1
 1227 914 l 1
 1227 1067 l 1
 219 595 l 1
 219 508 l 1
 1223 48 l 1
EndSplineSet
EndChar

StartChar: lessequal
Encoding: 8804 8804 194
Width: 1351
VWidth: 0
GlyphClass: 2
Flags: W
LayerCount: 2
Fore
SplineSet
1146 216 m 1
 1146 357 l 1
 372 710 l 1
 1146 1079 l 1
 1146 1219 l 1
 197 747 l 1
 197 666 l 1
 1146 216 l 1
161 9 m 1
 1175 9 l 1
 1175 131 l 1
 161 131 l 1
 161 9 l 1
EndSplineSet
EndChar

StartChar: logicalnot
Encoding: 172 172 195
Width: 1458
VWidth: 0
GlyphClass: 2
Flags: W
LayerCount: 2
Fore
SplineSet
1098 238 m 1
 1248 238 l 1
 1248 798 l 1
 200 798 l 1
 200 659 l 1
 1098 659 l 1
 1098 238 l 1
EndSplineSet
EndChar

StartChar: lozenge
Encoding: 9674 9674 196
Width: 1248
VWidth: 0
GlyphClass: 2
Flags: W
LayerCount: 2
Fore
SplineSet
562 -45 m 1
 668 -45 l 1
 1130 712 l 1
 677 1470 l 1
 570 1470 l 1
 112 711 l 1
 562 -45 l 1
615 98 m 1
 500 306 379 508 261 713 c 1
 382 917 510 1114 625 1324 c 1
 739 1116 861 916 979 711 c 1
 858 506 731 307 615 98 c 1
EndSplineSet
EndChar

StartChar: lslash
Encoding: 322 322 197
Width: 503
VWidth: 0
GlyphClass: 2
Flags: W
LayerCount: 2
Fore
SplineSet
168 0 m 1
 333 0 l 1
 333 788 l 1
 504 890 l 1
 504 1027 l 1
 333 925 l 1
 333 1492 l 1
 168 1492 l 1
 168 826 l 1
 0 726 l 1
 0 589 l 1
 168 689 l 1
 168 0 l 1
EndSplineSet
EndChar

StartChar: m
Encoding: 109 109 198
Width: 1943
VWidth: 0
GlyphClass: 2
Flags: W
LayerCount: 2
Fore
SplineSet
1893 -19 m 1
 1909 119 l 1
 1775 116 1754 187 1755 340 c 1
 1755 565 l 1
 1758 903 1625 1048 1393 1048 c 0
 1250 1048 1072 978 1020 811 c 1
 973 975 859 1048 694 1048 c 0
 531 1048 398 979 318 851 c 1
 308 917 251 991 206 1026 c 1
 64 944 l 1
 118 897 179 815 179 699 c 2
 179 0 l 1
 343 0 l 1
 343 565 l 1
 358 804 524 907 669 907 c 0
 823 907 882 804 882 562 c 2
 882 0 l 1
 1047 0 l 1
 1047 533 l 1
 1047 532 l 2
 1047 795 1226 907 1378 907 c 0
 1532 907 1590 804 1590 562 c 2
 1590 304 l 1
 1588 68 1675 -31 1893 -19 c 1
EndSplineSet
EndChar

StartChar: macron
Encoding: 175 175 199
Width: 728
VWidth: 0
GlyphClass: 2
Flags: W
LayerCount: 2
Fore
SplineSet
79 1183 m 1
 651 1183 l 1
 651 1317 l 1
 79 1317 l 1
 79 1183 l 1
EndSplineSet
EndChar

StartChar: minus
Encoding: 8722 8722 200
Width: 1458
VWidth: 0
GlyphClass: 2
Flags: W
LayerCount: 2
Fore
SplineSet
198 496 m 1
 1247 496 l 1
 1247 633 l 1
 198 633 l 1
 198 496 l 1
EndSplineSet
EndChar

StartChar: multiply
Encoding: 215 215 201
Width: 1458
VWidth: 0
GlyphClass: 2
Flags: W
LayerCount: 2
Fore
SplineSet
425 154 m 1
 722 450 l 1
 1018 154 l 1
 1122 258 l 1
 825 554 l 1
 1122 850 l 1
 1018 954 l 1
 722 657 l 1
 425 954 l 1
 322 851 l 1
 618 554 l 1
 322 257 l 1
 425 154 l 1
EndSplineSet
EndChar

StartChar: n
Encoding: 110 110 202
Width: 1248
VWidth: 0
GlyphClass: 2
Flags: W
LayerCount: 2
Fore
SplineSet
1198 -19 m 1
 1214 119 l 1
 1100 115 1055 167 1055 320 c 2
 1055 584 l 2
 1055 922 911 1048 679 1048 c 0
 516 1048 378 969 318 851 c 1
 308 917 250 992 204 1026 c 1
 64 944 l 1
 112 904 179 815 179 699 c 2
 179 0 l 1
 343 0 l 1
 343 565 l 1
 358 804 512 907 657 907 c 0
 811 907 891 818 891 576 c 2
 891 334 l 2
 891 98 950 -31 1198 -19 c 1
EndSplineSet
EndChar

StartChar: n.alt
Encoding: 65541 -1 203
Width: 1263
VWidth: 0
GlyphClass: 2
Flags: W
LayerCount: 2
Fore
SplineSet
1096 -24 m 1
 1132 102 l 1
 1057 117 1046 142 1046 255 c 2
 1046 270 l 1
 1048 567 l 1
 1048 577 l 2
 1048 867 960 1051 667 1051 c 0
 499 1051 416 988 343 884 c 1
 321 1026 l 1
 154 1026 l 1
 160 977 180 784 180 699 c 2
 180 0 l 1
 345 0 l 1
 345 652 l 2
 345 799 485 911 639 911 c 0
 850 911 883 790 883 585 c 2
 883 572 l 1
 881 265 l 1
 881 248 l 2
 881 62 908 -2 1096 -24 c 1
EndSplineSet
EndChar

StartChar: nacute
Encoding: 324 324 204
Width: 1248
VWidth: 0
GlyphClass: 2
Flags: W
LayerCount: 2
Fore
SplineSet
1156 -19 m 1
 1172 119 l 1
 1048 95 1055 167 1056 320 c 2
 1058 565 l 2
 1061 903 944 1048 712 1048 c 0
 549 1048 388 969 328 851 c 1
 318 917 285 971 249 1026 c 1
 84 974 l 1
 130 897 179 815 179 699 c 2
 179 0 l 1
 343 0 l 1
 343 565 l 1
 358 804 532 907 677 907 c 0
 831 907 893 804 893 562 c 1
 891 284 l 2
 889 48 938 -51 1156 -19 c 1
608 1173 m 1
 738 1173 l 1
 1046 1493 l 1
 834 1493 l 1
 608 1173 l 1
EndSplineSet
EndChar

StartChar: nine
Encoding: 57 57 205
Width: 1248
VWidth: 0
GlyphClass: 2
Flags: W
LayerCount: 2
Fore
SplineSet
627 651 m 0
 373 651 289 821 289 994 c 0
 289 1205 418 1334 632 1334 c 0
 867 1334 967 1202 967 992 c 0
 967 791 855 651 627 651 c 0
527 -76 m 1
 995 598 l 2
 1086 729 1134 865 1134 991 c 0
 1134 1243 975 1483 620 1483 c 0
 331 1483 117 1282 117 995 c 0
 117 724 299 515 607 515 c 0
 717 515 792 569 800 575 c 1
 391 0 l 1
 527 -76 l 1
EndSplineSet
EndChar

StartChar: nine.alt
Encoding: 65542 -1 206
Width: 1190
VWidth: 0
GlyphClass: 2
Flags: W
LayerCount: 2
Fore
SplineSet
514 -23 m 0
 607 -23 689 -4 761 34 c 0
 984 152 1093 416 1093 758 c 0
 1093 870 1082 970 1059 1056 c 0
 1000 1282 859 1453 581 1453 c 0
 506 1453 437 1441 376 1417 c 0
 211 1352 88 1208 88 984 c 0
 88 918 99 857 120 802 c 0
 182 642 326 533 545 533 c 0
 725 533 846 592 918 707 c 1
 918 683 l 1
 915 527 877 386 813 288 c 0
 754 196 659 119 517 119 c 0
 401 119 308 157 237 234 c 1
 183 121 l 1
 251 34 362 -23 514 -23 c 0
572 673 m 0
 373 673 264 792 264 989 c 0
 264 1035 271 1078 286 1117 c 0
 327 1228 423 1312 573 1312 c 0
 626 1312 673 1302 714 1283 c 0
 821 1232 906 1125 906 971 c 0
 906 925 897 884 879 847 c 0
 829 744 722 673 572 673 c 0
EndSplineSet
EndChar

StartChar: notequal
Encoding: 8800 8800 207
Width: 1351
VWidth: 0
GlyphClass: 2
Flags: W
LayerCount: 2
Fore
SplineSet
457 46 m 1
 597 325 l 1
 1182 325 l 1
 1173 445 l 1
 656 445 l 1
 804 728 l 1
 1182 728 l 1
 1172 849 l 1
 862 849 l 1
 989 1105 l 1
 864 1123 l 1
 728 849 l 1
 160 849 l 1
 170 728 l 1
 671 728 l 1
 524 445 l 1
 161 445 l 1
 170 325 l 1
 463 325 l 1
 335 64 l 1
 457 46 l 1
EndSplineSet
EndChar

StartChar: ntilde
Encoding: 241 241 208
Width: 1248
VWidth: 0
GlyphClass: 2
Flags: W
LayerCount: 2
Fore
SplineSet
1156 -19 m 1
 1172 119 l 1
 1048 95 1055 167 1056 320 c 2
 1058 565 l 2
 1061 903 944 1048 712 1048 c 0
 549 1048 388 969 328 851 c 1
 318 917 285 971 249 1026 c 1
 84 974 l 1
 130 897 179 815 179 699 c 2
 179 0 l 1
 343 0 l 1
 343 565 l 1
 358 804 532 907 677 907 c 0
 831 907 893 804 893 562 c 1
 891 284 l 2
 889 48 938 -51 1156 -19 c 1
355 1203 m 1
 460 1203 l 1
 467 1260 497 1288 551 1288 c 0
 646 1288 708 1220 804 1220 c 0
 928 1220 986 1322 999 1435 c 1
 891 1435 l 1
 884 1384 857 1345 804 1345 c 0
 785 1345 765 1349 745 1356 c 0
 687 1377 630 1413 554 1413 c 0
 430 1413 365 1319 355 1203 c 1
EndSplineSet
EndChar

StartChar: numbersign
Encoding: 35 35 209
Width: 1242
VWidth: 0
GlyphClass: 2
Flags: W
LayerCount: 2
Fore
SplineSet
210 60 m 1
 356 60 l 1
 438 485 l 1
 699 485 l 1
 619 60 l 1
 764 60 l 1
 847 485 l 1
 1107 485 l 1
 1121 611 l 1
 869 611 l 1
 920 886 l 1
 1170 886 l 1
 1184 1010 l 1
 943 1010 l 1
 1021 1420 l 1
 875 1420 l 1
 799 1010 l 1
 538 1010 l 1
 615 1420 l 1
 469 1420 l 1
 390 1010 l 1
 120 1010 l 1
 107 886 l 1
 368 886 l 1
 351 793 334 705 318 611 c 1
 53 611 l 1
 42 485 l 1
 294 485 l 1
 210 60 l 1
460 611 m 1
 514 886 l 1
 775 886 l 1
 724 611 l 1
 460 611 l 1
EndSplineSet
EndChar

StartChar: o
Encoding: 111 111 210
Width: 1230
VWidth: 0
GlyphClass: 2
Flags: W
LayerCount: 2
Fore
SplineSet
622 116 m 0
 406 116 262 273 262 509 c 0
 262 748 406 907 621 907 c 0
 832 907 972 749 972 511 c 0
 972 274 832 116 622 116 c 0
622 -22 m 0
 934 -22 1142 192 1142 513 c 0
 1142 834 934 1048 621 1048 c 0
 304 1048 92 833 92 511 c 0
 92 191 304 -22 622 -22 c 0
EndSplineSet
EndChar

StartChar: oacute
Encoding: 243 243 211
Width: 1230
VWidth: 0
GlyphClass: 2
Flags: W
LayerCount: 2
Fore
SplineSet
622 116 m 0
 406 116 262 273 262 509 c 0
 262 748 406 907 621 907 c 0
 832 907 972 749 972 511 c 0
 972 274 832 116 622 116 c 0
622 -22 m 0
 934 -22 1142 192 1142 513 c 0
 1142 834 934 1048 621 1048 c 0
 304 1048 92 833 92 511 c 0
 92 191 304 -22 622 -22 c 0
559 1173 m 1
 689 1173 l 1
 997 1493 l 1
 785 1493 l 1
 559 1173 l 1
EndSplineSet
EndChar

StartChar: ocircumflex
Encoding: 244 244 212
Width: 1230
VWidth: 0
GlyphClass: 2
Flags: W
LayerCount: 2
Fore
SplineSet
317 1173 m 1
 443 1173 l 1
 621 1389 l 1
 799 1173 l 1
 931 1173 l 1
 702 1497 l 1
 545 1497 l 1
 317 1173 l 1
622 116 m 0
 406 116 262 273 262 509 c 0
 262 748 406 907 621 907 c 0
 832 907 972 749 972 511 c 0
 972 274 832 116 622 116 c 0
622 -22 m 0
 934 -22 1142 192 1142 513 c 0
 1142 834 934 1048 621 1048 c 0
 304 1048 92 833 92 511 c 0
 92 191 304 -22 622 -22 c 0
EndSplineSet
EndChar

StartChar: odieresis
Encoding: 246 246 213
Width: 1230
VWidth: 0
GlyphClass: 2
Flags: W
LayerCount: 2
Fore
SplineSet
376 1173 m 1
 540 1173 l 1
 540 1336 l 1
 376 1336 l 1
 376 1173 l 1
622 116 m 0
 406 116 262 273 262 509 c 0
 262 748 406 907 621 907 c 0
 832 907 972 749 972 511 c 0
 972 274 832 116 622 116 c 0
622 -22 m 0
 934 -22 1142 192 1142 513 c 0
 1142 834 934 1048 621 1048 c 0
 304 1048 92 833 92 511 c 0
 92 191 304 -22 622 -22 c 0
708 1173 m 1
 872 1173 l 1
 872 1336 l 1
 708 1336 l 1
 708 1173 l 1
EndSplineSet
EndChar

StartChar: oe
Encoding: 339 339 214
Width: 1970
VWidth: 0
GlyphClass: 2
Flags: W
LayerCount: 2
Fore
SplineSet
610 -28 m 0
 821 -28 961 57 1022 209 c 1
 1082 62 1213 -28 1410 -28 c 0
 1616 -28 1757 63 1836 206 c 1
 1748 292 l 1
 1685 192 1574 109 1421 109 c 0
 1371 109 1328 118 1290 135 c 0
 1181 185 1117 296 1113 450 c 1
 1113 470 l 1
 1868 472 l 1
 1868 525 l 2
 1868 835 1726 1053 1417 1053 c 0
 1216 1053 1095 963 1027 821 c 1
 952 964 830 1053 620 1053 c 0
 536 1053 462 1039 396 1010 c 0
 217 932 92 761 92 509 c 0
 92 435 104 365 127 300 c 0
 195 110 354 -28 610 -28 c 0
620 109 m 0
 559 109 506 120 462 141 c 0
 338 200 265 327 265 507 c 0
 265 562 273 614 288 663 c 0
 330 802 433 917 612 917 c 0
 846 917 945 745 945 511 c 0
 945 287 845 109 620 109 c 0
1113 609 m 1
 1116 649 1125 688 1140 725 c 0
 1183 830 1277 917 1423 917 c 0
 1607 917 1695 793 1695 609 c 1
 1113 609 l 1
EndSplineSet
EndChar

StartChar: ogonek
Encoding: 731 731 215
Width: 508
VWidth: 0
GlyphClass: 2
Flags: W
LayerCount: 2
Fore
SplineSet
266 -390 m 0
 330 -390 397 -380 443 -361 c 1
 443 -250 l 1
 397 -268 353 -281 289 -281 c 0
 238 -281 189 -250 189 -199 c 0
 189 -183 194 -167 204 -151 c 0
 246 -86 323 -42 392 0 c 1
 263 12 l 1
 209 -14 155 -49 115 -89 c 0
 82 -122 48 -167 48 -225 c 0
 48 -252 54 -276 65 -296 c 0
 99 -357 172 -390 266 -390 c 0
EndSplineSet
EndChar

StartChar: ograve
Encoding: 242 242 216
Width: 1230
VWidth: 0
GlyphClass: 2
Flags: W
LayerCount: 2
Fore
SplineSet
560 1173 m 1
 689 1173 l 1
 442 1493 l 1
 228 1493 l 1
 560 1173 l 1
622 116 m 0
 406 116 262 273 262 509 c 0
 262 748 406 907 621 907 c 0
 832 907 972 749 972 511 c 0
 972 274 832 116 622 116 c 0
622 -22 m 0
 934 -22 1142 192 1142 513 c 0
 1142 834 934 1048 621 1048 c 0
 304 1048 92 833 92 511 c 0
 92 191 304 -22 622 -22 c 0
EndSplineSet
EndChar

StartChar: one
Encoding: 49 49 217
Width: 1190
VWidth: 0
GlyphClass: 2
Flags: W
LayerCount: 2
Fore
SplineSet
552 0 m 1
 724 0 l 1
 724 1438 l 1
 559 1436 l 1
 491 1385 369 1312 253 1259 c 1
 294 1128 l 1
 400 1172 486 1220 552 1270 c 1
 552 0 l 1
EndSplineSet
EndChar

StartChar: onehalf
Encoding: 189 189 218
Width: 2748
VWidth: 0
GlyphClass: 2
Flags: W
LayerCount: 2
Fore
SplineSet
651 604 m 1
 1197 604 l 1
 1197 722 l 1
 833 722 l 1
 925 802 1018 879 1092 968 c 0
 1146 1033 1198 1108 1198 1213 c 0
 1198 1248 1191 1279 1178 1307 c 0
 1139 1388 1053 1440 935 1440 c 0
 797 1440 702 1370 659 1270 c 1
 744 1192 l 1
 777 1262 834 1323 929 1323 c 0
 1008 1323 1069 1286 1069 1211 c 0
 1069 1183 1059 1152 1038 1118 c 0
 1017 1084 989 1047 952 1006 c 0
 863 908 757 812 651 715 c 1
 651 604 l 1
1828 604 m 1
 2193 604 l 1
 2193 720 l 1
 2071 720 l 1
 2071 1427 l 1
 1966 1412 l 1
 1914 1381 1865 1354 1798 1333 c 1
 1797 1203 l 1
 1847 1222 1905 1248 1949 1271 c 1
 1949 1168 l 2
 1949 1116 1950 1067 1950 1008 c 2
 1950 723 l 1
 1828 723 l 1
 1828 604 l 1
-337 0 m 1
 -186 0 l 1
 717 1436 l 1
 568 1436 l 1
 -337 0 l 1
EndSplineSet
EndChar

StartChar: onequarter
Encoding: 188 188 219
Width: 2455
VWidth: 0
GlyphClass: 2
Flags: W
LayerCount: 2
Fore
SplineSet
-337 0 m 1
 -186 0 l 1
 607 1262 l 1
 607 1203 l 1
 657 1222 715 1248 759 1271 c 1
 759 1168 l 2
 759 1116 760 1067 760 1008 c 2
 760 723 l 1
 638 723 l 1
 638 604 l 1
 1003 604 l 1
 1003 720 l 1
 881 720 l 1
 881 1427 l 1
 776 1412 l 1
 740 1391 705 1371 665 1354 c 1
 717 1436 l 1
 568 1436 l 1
 -337 0 l 1
1914 615 m 1
 2034 615 l 1
 2034 803 l 1
 2155 803 l 1
 2145 910 l 1
 2036 910 l 1
 2036 1412 l 1
 1902 1412 l 1
 1536 894 l 1
 1536 803 l 1
 1914 803 l 1
 1914 615 l 1
1675 910 m 1
 1914 1244 l 1
 1914 910 l 1
 1675 910 l 1
EndSplineSet
EndChar

StartChar: ordfeminine
Encoding: 170 170 220
Width: 745
VWidth: 0
GlyphClass: 2
Flags: W
LayerCount: 2
Fore
SplineSet
317 768 m 0
 417 768 492 805 537 860 c 1
 543 786 l 1
 674 786 l 1
 669 846 667 870 667 914 c 2
 669 1235 l 1
 669 1400 558 1477 394 1477 c 0
 262 1477 162 1436 111 1350 c 1
 178 1275 l 1
 222 1340 289 1369 388 1369 c 0
 498 1369 536 1329 536 1219 c 2
 536 1211 l 1
 462 1201 383 1202 309 1192 c 1
 189 1174 66 1112 66 975 c 0
 66 944 72 916 85 890 c 0
 122 814 205 768 317 768 c 0
338 871 m 0
 260 871 202 899 202 977 c 0
 202 1115 424 1088 536 1110 c 1
 536 1085 l 1
 530 962 468 871 338 871 c 0
EndSplineSet
EndChar

StartChar: ordmasculine
Encoding: 186 186 221
Width: 824
VWidth: 0
GlyphClass: 2
Flags: W
LayerCount: 2
Fore
SplineSet
416 767 m 0
 474 767 526 776 570 795 c 0
 690 845 774 954 774 1121 c 0
 774 1171 766 1217 751 1260 c 0
 705 1390 591 1476 415 1476 c 0
 357 1476 306 1466 261 1448 c 0
 140 1398 53 1291 53 1124 c 0
 53 901 191 767 416 767 c 0
416 875 m 0
 269 875 193 977 193 1123 c 0
 193 1264 271 1369 413 1369 c 0
 558 1369 636 1264 636 1119 c 0
 636 979 557 875 416 875 c 0
EndSplineSet
EndChar

StartChar: oslash
Encoding: 248 248 222
Width: 1238
VWidth: 0
GlyphClass: 2
Flags: W
LayerCount: 2
Fore
SplineSet
346 -261 m 1
 457 -1 l 1
 508 -15 563 -22 622 -22 c 0
 934 -22 1142 192 1142 513 c 0
 1142 735 1042 906 878 990 c 1
 987 1245 l 1
 884 1277 l 1
 779 1028 l 1
 730 1041 677 1048 621 1048 c 0
 304 1048 92 833 92 511 c 0
 92 290 192 121 359 37 c 1
 247 -229 l 1
 346 -261 l 1
418 175 m 1
 320 241 262 359 262 509 c 0
 262 748 406 907 621 907 c 0
 657 907 691 903 722 894 c 1
 418 175 l 1
622 116 m 0
 583 116 547 121 513 131 c 1
 818 849 l 1
 914 783 972 663 972 511 c 0
 972 274 832 116 622 116 c 0
EndSplineSet
EndChar

StartChar: otilde
Encoding: 245 245 223
Width: 1230
VWidth: 0
GlyphClass: 2
Flags: W
LayerCount: 2
Fore
SplineSet
299 1203 m 1
 404 1203 l 1
 411 1260 441 1288 495 1288 c 0
 590 1288 652 1220 748 1220 c 0
 872 1220 930 1322 943 1435 c 1
 835 1435 l 1
 828 1384 801 1345 748 1345 c 0
 729 1345 709 1349 689 1356 c 0
 631 1377 574 1413 498 1413 c 0
 374 1413 309 1319 299 1203 c 1
622 116 m 0
 406 116 262 273 262 509 c 0
 262 748 406 907 621 907 c 0
 832 907 972 749 972 511 c 0
 972 274 832 116 622 116 c 0
622 -22 m 0
 934 -22 1142 192 1142 513 c 0
 1142 834 934 1048 621 1048 c 0
 304 1048 92 833 92 511 c 0
 92 191 304 -22 622 -22 c 0
EndSplineSet
EndChar

StartChar: p
Encoding: 112 112 224
Width: 1253
VWidth: 0
GlyphClass: 2
Flags: W
LayerCount: 2
Fore
SplineSet
173 -457 m 1
 337 -439 l 1
 337 95 l 1
 413 21 553 -22 694 -22 c 0
 988 -22 1161 182 1161 527 c 0
 1161 854 991 1048 704 1048 c 0
 541 1048 390 971 317 840 c 1
 309 919 253 988 201 1026 c 1
 62 948 l 1
 113 893 173 814 173 718 c 2
 173 -457 l 1
670 116 m 0
 536 116 405 172 336 268 c 1
 336 434 l 2
 336 731 477 907 695 907 c 0
 881 907 991 764 991 521 c 0
 991 266 872 116 670 116 c 0
EndSplineSet
EndChar

StartChar: paragraph
Encoding: 182 182 225
Width: 1214
VWidth: 0
GlyphClass: 2
Flags: W
LayerCount: 2
Fore
SplineSet
442 -148 m 1
 585 -148 l 1
 585 1327 l 1
 793 1327 l 1
 793 -148 l 1
 922 -148 l 1
 922 1327 l 1
 1009 1327 l 1
 1009 1451 l 1
 623 1451 l 2
 359 1451 107 1394 107 1130 c 0
 107 1079 116 1032 134 990 c 0
 182 877 286 788 442 786 c 1
 442 -148 l 1
EndSplineSet
EndChar

StartChar: parenleft
Encoding: 40 40 226
Width: 626
VWidth: 0
GlyphClass: 2
Flags: W
LayerCount: 2
Fore
SplineSet
421 -214 m 1
 570 -214 l 1
 235 320 219 993 574 1551 c 1
 427 1551 l 1
 48 956 60 355 421 -214 c 1
EndSplineSet
EndChar

StartChar: parenright
Encoding: 41 41 227
Width: 626
VWidth: 0
GlyphClass: 2
Flags: W
LayerCount: 2
Fore
SplineSet
56 -214 m 1
 205 -214 l 1
 566 355 578 956 199 1551 c 1
 52 1551 l 1
 407 993 391 320 56 -214 c 1
EndSplineSet
EndChar

StartChar: partialdiff
Encoding: 8706 8706 228
Width: 1167
VWidth: 0
GlyphClass: 2
Flags: W
LayerCount: 2
Fore
SplineSet
492 -24 m 0
 557 -24 618 -12 672 11 c 0
 786 60 870 146 931 252 c 0
 1020 407 1074 611 1074 852 c 0
 1074 969 1063 1070 1040 1156 c 0
 983 1373 853 1533 588 1533 c 0
 466 1533 355 1492 280 1442 c 1
 291 1304 l 1
 361 1351 451 1399 565 1399 c 0
 618 1399 664 1388 706 1366 c 0
 842 1293 903 1123 903 911 c 0
 903 890 902 856 902 836 c 1
 832 927 736 1002 586 1002 c 0
 516 1002 451 987 390 957 c 0
 213 870 83 681 83 420 c 0
 83 357 92 299 109 245 c 0
 160 87 284 -24 492 -24 c 0
495 111 m 0
 458 111 424 118 394 133 c 0
 302 178 252 280 252 417 c 0
 252 547 296 658 355 734 c 0
 409 804 494 869 609 869 c 0
 644 869 676 864 705 852 c 0
 792 817 853 744 885 655 c 1
 868 507 821 369 755 271 c 0
 700 190 618 111 495 111 c 0
EndSplineSet
EndChar

StartChar: percent
Encoding: 37 37 229
Width: 1985
VWidth: 0
GlyphClass: 2
Flags: W
LayerCount: 2
Fore
SplineSet
520 686 m 0
 575 686 624 696 668 716 c 0
 791 772 877 892 877 1068 c 0
 877 1294 753 1447 526 1447 c 0
 471 1447 421 1438 377 1418 c 0
 253 1363 168 1240 168 1064 c 0
 168 1011 176 961 192 915 c 0
 237 783 344 686 520 686 c 0
1449 -27 m 0
 1504 -27 1553 -17 1597 3 c 0
 1720 59 1806 180 1806 356 c 0
 1806 582 1682 735 1455 735 c 0
 1400 735 1350 725 1306 705 c 0
 1182 649 1097 528 1097 351 c 0
 1097 298 1105 248 1121 202 c 0
 1167 70 1273 -27 1449 -27 c 0
524 799 m 0
 376 799 312 917 312 1065 c 0
 312 1212 377 1335 525 1335 c 0
 560 1335 592 1328 618 1314 c 0
 695 1273 734 1186 734 1069 c 0
 734 923 670 799 524 799 c 0
1452 86 m 0
 1416 86 1384 93 1358 107 c 0
 1281 148 1241 234 1241 350 c 0
 1241 497 1306 622 1454 622 c 0
 1600 622 1662 504 1662 357 c 0
 1662 211 1599 86 1452 86 c 0
440 -5 m 1
 594 -5 l 1
 1499 1436 l 1
 1344 1436 l 1
 440 -5 l 1
EndSplineSet
EndChar

StartChar: period
Encoding: 46 46 230
Width: 540
VWidth: 0
GlyphClass: 2
Flags: W
LayerCount: 2
Fore
SplineSet
251 0 m 0
 305 0 359 39 359 105 c 0
 359 162 321 211 252 211 c 0
 198 211 144 172 144 106 c 0
 144 49 182 0 251 0 c 0
EndSplineSet
EndChar

StartChar: periodcentered
Encoding: 183 183 231
Width: 444
VWidth: 0
GlyphClass: 2
Flags: W
LayerCount: 2
Fore
SplineSet
76 513 m 1
 293 513 l 1
 293 723 l 1
 76 723 l 1
 76 513 l 1
EndSplineSet
EndChar

StartChar: perthousand
Encoding: 8240 8240 232
Width: 2386
VWidth: 0
GlyphClass: 2
Flags: W
LayerCount: 2
Fore
SplineSet
410 740 m 0
 463 740 511 748 553 766 c 0
 670 815 749 928 749 1092 c 0
 749 1312 632 1447 412 1447 c 0
 358 1447 310 1438 268 1420 c 0
 150 1371 73 1260 73 1095 c 0
 73 878 192 740 410 740 c 0
1172 -27 m 0
 1226 -27 1274 -18 1316 0 c 0
 1434 50 1511 160 1511 325 c 0
 1511 544 1395 681 1176 681 c 0
 1121 681 1072 672 1030 654 c 0
 911 604 835 494 835 328 c 0
 835 111 954 -27 1172 -27 c 0
1959 -27 m 0
 2013 -27 2061 -18 2103 0 c 0
 2220 49 2299 161 2299 325 c 0
 2299 545 2184 681 1964 681 c 0
 1909 681 1860 672 1818 654 c 0
 1699 604 1623 494 1623 328 c 0
 1623 112 1742 -27 1959 -27 c 0
414 853 m 0
 278 853 219 960 219 1096 c 0
 219 1227 280 1335 411 1335 c 0
 545 1335 604 1228 604 1093 c 0
 604 963 545 853 414 853 c 0
245 -21 m 1
 398 -21 l 1
 1332 1436 l 1
 1183 1436 l 1
 245 -21 l 1
1175 86 m 0
 1040 86 980 192 980 328 c 0
 980 461 1041 567 1174 567 c 0
 1309 567 1367 463 1367 327 c 0
 1367 196 1306 86 1175 86 c 0
1963 86 m 0
 1828 86 1768 192 1768 328 c 0
 1768 461 1829 567 1962 567 c 0
 2096 567 2156 461 2156 327 c 0
 2156 195 2095 86 1963 86 c 0
EndSplineSet
EndChar

StartChar: pi
Encoding: 960 960 233
Width: 1288
VWidth: 0
GlyphClass: 2
Flags: W
LayerCount: 2
Fore
SplineSet
1061 -8 m 0
 1108 -8 1153 -2 1198 6 c 1
 1188 35 1185 65 1185 100 c 0
 1185 110 1185 120 1186 130 c 2
 1188 160 l 1
 1159 151 1133 147 1108 147 c 0
 1024 147 1010 206 1010 288 c 2
 1010 907 l 1
 1214 907 l 1
 1214 1040 l 1
 369 1040 l 2
 227 1040 96 1037 17 977 c 1
 34 846 l 1
 111 887 194 904 311 907 c 1
 306 739 296 567 276 411 c 0
 257 263 232 105 172 0 c 1
 341 0 l 1
 353 21 364 51 374 88 c 0
 439 335 458 619 480 907 c 1
 851 907 l 1
 851 279 l 2
 851 104 888 -8 1061 -8 c 0
EndSplineSet
EndChar

StartChar: plus
Encoding: 43 43 234
Width: 1458
VWidth: 0
GlyphClass: 2
Flags: W
LayerCount: 2
Fore
SplineSet
646 62 m 1
 795 62 l 1
 795 485 l 1
 1246 485 l 1
 1246 624 l 1
 797 624 l 1
 797 1047 l 1
 649 1047 l 1
 649 624 l 1
 198 624 l 1
 198 485 l 1
 646 485 l 1
 646 62 l 1
EndSplineSet
EndChar

StartChar: plusminus
Encoding: 177 177 235
Width: 1458
VWidth: 0
GlyphClass: 2
Flags: W
LayerCount: 2
Fore
SplineSet
647 223 m 1
 798 223 l 1
 798 595 l 1
 1245 595 l 1
 1245 733 l 1
 794 733 l 1
 794 1107 l 1
 645 1107 l 1
 645 733 l 1
 188 733 l 1
 200 595 l 1
 647 595 l 1
 647 223 l 1
200 0 m 1
 1249 0 l 1
 1249 138 l 1
 200 138 l 1
 200 0 l 1
EndSplineSet
EndChar

StartChar: product
Encoding: 8719 8719 236
Width: 1568
VWidth: 0
GlyphClass: 2
Flags: W
LayerCount: 2
Fore
SplineSet
251 -329 m 1
 426 -329 l 1
 426 1278 l 1
 1149 1278 l 1
 1149 -329 l 1
 1327 -329 l 1
 1327 1278 l 1
 1440 1278 l 1
 1456 1423 l 1
 110 1423 l 1
 126 1278 l 1
 251 1278 l 1
 251 -329 l 1
EndSplineSet
EndChar

StartChar: q
Encoding: 113 113 237
Width: 1241
VWidth: 0
GlyphClass: 2
Flags: W
LayerCount: 2
Fore
SplineSet
1023 -539 m 1
 1072 -515 1360 -363 1397 -343 c 1
 1325 -221 l 1
 1325 -221 1113 -335 1073 -355 c 1
 1073 813 l 2
 1073 916 1086 992 1091 1026 c 1
 924 1026 l 1
 909 888 l 1
 852 985 771 1048 583 1048 c 0
 273 1048 92 815 92 506 c 0
 92 203 267 -22 571 -22 c 0
 713 -22 831 33 909 128 c 1
 909 -426 l 1
 1023 -539 l 1
588 116 m 0
 365 116 262 284 262 507 c 0
 262 736 360 907 589 907 c 0
 804 907 909 759 909 543 c 2
 909 302 l 1
 858 212 722 116 588 116 c 0
EndSplineSet
EndChar

StartChar: question
Encoding: 63 63 238
Width: 1032
VWidth: 0
GlyphClass: 2
Flags: W
LayerCount: 2
Fore
SplineSet
356 368 m 1
 481 368 l 1
 477 398 475 424 475 447 c 0
 475 744 899 787 899 1133 c 0
 899 1338 748 1483 464 1483 c 0
 358 1483 263 1452 183 1413 c 1
 183 1262 l 1
 364 1364 730 1377 730 1125 c 0
 730 845 346 784 346 530 c 0
 346 480 351 416 356 368 c 1
425 0 m 0
 479 0 533 39 533 105 c 0
 533 162 495 211 426 211 c 0
 372 211 318 172 318 106 c 0
 318 49 356 0 425 0 c 0
EndSplineSet
EndChar

StartChar: questiondown
Encoding: 191 191 239
Width: 1032
VWidth: 0
GlyphClass: 2
Flags: W
LayerCount: 2
Fore
SplineSet
618 -16 m 0
 724 -16 819 15 899 54 c 1
 899 205 l 1
 718 103 352 90 352 342 c 0
 352 622 736 683 736 937 c 0
 736 987 731 1051 726 1099 c 1
 601 1099 l 1
 605 1069 607 1043 607 1020 c 0
 607 723 183 680 183 334 c 0
 183 129 334 -16 618 -16 c 0
656 1256 m 0
 710 1256 764 1295 764 1361 c 0
 764 1418 726 1467 657 1467 c 0
 603 1467 549 1428 549 1362 c 0
 549 1305 587 1256 656 1256 c 0
EndSplineSet
EndChar

StartChar: quotedbl
Encoding: 34 34 240
Width: 720
VWidth: 0
GlyphClass: 2
Flags: W
LayerCount: 2
Fore
SplineSet
150 989 m 1
 281 989 l 1
 281 1451 l 1
 114 1451 l 1
 150 989 l 1
439 989 m 1
 569 989 l 1
 569 1451 l 1
 403 1451 l 1
 439 989 l 1
EndSplineSet
EndChar

StartChar: quotedblbase
Encoding: 8222 8222 241
Width: 1024
VWidth: 0
GlyphClass: 2
Flags: W
LayerCount: 2
Fore
SplineSet
178 -238 m 1
 312 -238 l 1
 465 201 l 1
 283 201 l 1
 178 -238 l 1
537 -238 m 1
 670 -238 l 1
 824 201 l 1
 641 201 l 1
 537 -238 l 1
EndSplineSet
EndChar

StartChar: quotedblleft
Encoding: 8220 8220 242
Width: 1024
VWidth: 0
GlyphClass: 2
Flags: W
LayerCount: 2
Fore
SplineSet
179 1023 m 1
 361 1023 l 1
 466 1463 l 1
 333 1463 l 1
 179 1023 l 1
528 1023 m 1
 711 1023 l 1
 815 1463 l 1
 682 1463 l 1
 528 1023 l 1
EndSplineSet
EndChar

StartChar: quotedblright
Encoding: 8221 8221 243
Width: 1024
VWidth: 0
GlyphClass: 2
Flags: W
LayerCount: 2
Fore
SplineSet
208 1023 m 1
 341 1023 l 1
 494 1463 l 1
 312 1463 l 1
 208 1023 l 1
534 1023 m 1
 667 1023 l 1
 821 1463 l 1
 639 1463 l 1
 534 1023 l 1
EndSplineSet
EndChar

StartChar: quoteleft
Encoding: 8216 8216 244
Width: 553
VWidth: 0
GlyphClass: 2
Flags: W
LayerCount: 2
Fore
SplineSet
130 1023 m 1
 312 1023 l 1
 416 1463 l 1
 284 1463 l 1
 130 1023 l 1
EndSplineSet
EndChar

StartChar: quoteright
Encoding: 8217 8217 245
Width: 553
VWidth: 0
GlyphClass: 2
Flags: W
LayerCount: 2
Fore
SplineSet
140 1023 m 1
 272 1023 l 1
 426 1463 l 1
 245 1463 l 1
 140 1023 l 1
EndSplineSet
EndChar

StartChar: quotesinglbase
Encoding: 8218 8218 246
Width: 553
VWidth: 0
GlyphClass: 2
Flags: W
LayerCount: 2
Fore
SplineSet
125 -238 m 1
 258 -238 l 1
 412 201 l 1
 231 201 l 1
 125 -238 l 1
EndSplineSet
EndChar

StartChar: quotesingle
Encoding: 39 39 247
Width: 554
VWidth: 0
GlyphClass: 2
Flags: W
LayerCount: 2
Fore
SplineSet
212 989 m 1
 342 989 l 1
 342 1451 l 1
 176 1451 l 1
 212 989 l 1
EndSplineSet
EndChar

StartChar: r
Encoding: 114 114 248
Width: 792
VWidth: 0
GlyphClass: 2
Flags: W
LayerCount: 2
Fore
SplineSet
185 0 m 1
 349 0 l 1
 349 568 l 2
 349 803 473 907 619 907 c 0
 704 907 747 889 764 883 c 1
 778 1028 l 1
 742 1038 707 1048 624 1048 c 0
 497 1048 378 961 324 854 c 1
 314 918 259 984 211 1026 c 1
 70 944 l 1
 120 902 185 815 185 699 c 2
 185 0 l 1
EndSplineSet
EndChar

StartChar: radical
Encoding: 8730 8730 249
Width: 1314
VWidth: 0
GlyphClass: 2
Flags: W
LayerCount: 2
Fore
SplineSet
611 -153 m 1
 746 -153 l 1
 1212 1596 l 1
 1082 1596 l 1
 709 217 l 1
 669 41 l 1
 611 214 l 1
 382 825 l 1
 87 774 l 1
 107 662 l 1
 279 690 l 1
 611 -153 l 1
EndSplineSet
EndChar

StartChar: rcaron
Encoding: 345 345 250
Width: 792
VWidth: 0
GlyphClass: 2
Flags: W
LayerCount: 2
Fore
SplineSet
185 0 m 1
 349 0 l 1
 349 568 l 2
 349 803 473 907 619 907 c 0
 704 907 747 889 764 883 c 1
 778 1028 l 1
 742 1038 707 1048 624 1048 c 0
 497 1048 388 961 334 854 c 1
 324 918 290 972 255 1026 c 1
 90 974 l 1
 136 897 185 815 185 699 c 2
 185 0 l 1
366 1173 m 1
 522 1173 l 1
 760 1496 l 1
 606 1496 l 1
 438 1281 l 1
 274 1496 l 1
 127 1496 l 1
 366 1173 l 1
EndSplineSet
EndChar

StartChar: rcommaaccent
Encoding: 343 343 251
Width: 792
VWidth: 0
GlyphClass: 2
Flags: W
LayerCount: 2
Fore
SplineSet
185 0 m 1
 349 0 l 1
 349 568 l 2
 349 803 473 907 619 907 c 0
 704 907 747 889 764 883 c 1
 778 1028 l 1
 742 1038 707 1048 624 1048 c 0
 497 1048 388 961 334 854 c 1
 324 918 290 972 255 1026 c 1
 90 974 l 1
 136 897 185 815 185 699 c 2
 185 0 l 1
254 -625 m 1
 385 -625 l 1
 548 -162 l 1
 361 -162 l 1
 254 -625 l 1
EndSplineSet
EndChar

StartChar: registered
Encoding: 174 174 252
Width: 1829
VWidth: 0
GlyphClass: 2
Flags: W
LayerCount: 2
Fore
SplineSet
597 273 m 1
 745 273 l 1
 745 664 l 1
 882 664 l 1
 943 625 987 557 1029 485 c 2
 1152 273 l 1
 1320 273 l 1
 1287 327 1258 375 1231 418 c 0
 1170 515 1113 609 1036 681 c 1
 1182 700 1301 775 1301 935 c 0
 1301 1018 1266 1082 1195 1126 c 0
 1124 1170 1016 1192 870 1192 c 2
 597 1192 l 1
 597 273 l 1
914 -32 m 0
 1163 -32 1348 67 1480 192 c 0
 1608 313 1717 485 1717 725 c 0
 1717 794 1707 860 1688 924 c 0
 1647 1059 1573 1170 1480 1258 c 0
 1347 1383 1160 1483 908 1483 c 0
 659 1483 474 1385 341 1260 c 0
 213 1139 103 967 103 726 c 0
 103 657 113 590 132 526 c 0
 173 391 246 280 340 192 c 0
 473 67 662 -32 914 -32 c 0
913 85 m 0
 705 85 538 164 426 270 c 0
 317 373 230 527 230 727 c 0
 230 926 317 1079 426 1182 c 0
 537 1287 703 1366 909 1366 c 0
 1116 1366 1283 1285 1394 1180 c 0
 1503 1077 1590 924 1590 724 c 0
 1590 519 1505 372 1396 270 c 0
 1284 165 1126 85 913 85 c 0
743 783 m 1
 742 1072 l 1
 866 1072 l 2
 1019 1072 1146 1071 1146 920 c 0
 1146 784 1006 783 868 783 c 2
 743 783 l 1
EndSplineSet
EndChar

StartChar: ring
Encoding: 730 730 253
Width: 605
VWidth: 0
GlyphClass: 2
Flags: W
LayerCount: 2
Fore
SplineSet
301 1149 m 0
 329 1149 356 1154 381 1164 c 0
 448 1190 510 1249 510 1340 c 0
 510 1366 505 1391 494 1414 c 0
 464 1480 395 1530 300 1530 c 0
 271 1530 243 1526 218 1516 c 0
 150 1490 90 1431 90 1339 c 0
 90 1312 95 1287 106 1264 c 0
 137 1199 206 1149 301 1149 c 0
299 1235 m 0
 234 1235 189 1276 189 1340 c 0
 189 1400 239 1445 299 1445 c 0
 361 1445 410 1402 410 1340 c 0
 410 1280 359 1235 299 1235 c 0
EndSplineSet
EndChar

StartChar: s
Encoding: 115 115 254
Width: 896
VWidth: 0
GlyphClass: 2
Flags: W
LayerCount: 2
Fore
SplineSet
464 -22 m 0
 674 -22 808 99 812 275 c 0
 816 434 681.25 512 545.5 573.875 c 0
 409.75 635.75 273 681.5 273 776 c 0
 273 859 345 907 461 907 c 0
 546 907 647 877 731 832 c 1
 775 967 l 1
 691 1011 582 1048 451 1048 c 0
 245 1048 114 941 111 771 c 0
 108 611 243.25 535.75 379.25 474.25 c 0
 515.25 412.75 652 365 652 260 c 0
 652 157 562 116 452 116 c 0
 352 116 235 153 158 212 c 1
 108 71 l 1
 182 30 309 -22 464 -22 c 0
EndSplineSet
EndChar

StartChar: s.alt
Encoding: 65543 -1 255
Width: 1001
VWidth: 0
GlyphClass: 2
Flags: W
LayerCount: 2
Fore
SplineSet
552 -26 m 0
 739 -26 902 52 902 284 c 0
 902 492 710 547 550 596 c 0
 455 625 285 653 285 774 c 0
 285 881 382 917 493 917 c 0
 606 917 732 880 787 844 c 1
 834 966 l 1
 736 1025 612 1056 494 1056 c 0
 294 1056 114 967 114 771 c 0
 114 570 283 512 448 463 c 0
 555 431 739 404 739 272 c 0
 739 150 644 112 529 112 c 0
 396 112 236 170 161 227 c 1
 114 90 l 1
 220 25 396 -26 552 -26 c 0
EndSplineSet
EndChar

StartChar: sacute
Encoding: 347 347 256
Width: 896
VWidth: 0
GlyphClass: 2
Flags: W
LayerCount: 2
Fore
SplineSet
464 -22 m 0
 674 -22 808 99 812 275 c 0
 820 593 273 587 273 776 c 0
 273 859 345 907 461 907 c 0
 546 907 647 877 731 832 c 1
 775 967 l 1
 691 1011 582 1048 451 1048 c 0
 245 1048 114 941 111 771 c 0
 105 451 652 470 652 260 c 0
 652 157 562 116 452 116 c 0
 352 116 235 153 158 212 c 1
 108 71 l 1
 182 30 309 -22 464 -22 c 0
429 1178 m 1
 559 1178 l 1
 867 1498 l 1
 655 1498 l 1
 429 1178 l 1
EndSplineSet
EndChar

StartChar: scaron
Encoding: 353 353 257
Width: 896
VWidth: 0
GlyphClass: 2
Flags: W
LayerCount: 2
Fore
SplineSet
464 -22 m 0
 674 -22 808 99 812 275 c 0
 820 593 273 587 273 776 c 0
 273 859 345 907 461 907 c 0
 546 907 647 877 731 832 c 1
 775 967 l 1
 691 1011 582 1048 451 1048 c 0
 245 1048 114 941 111 771 c 0
 105 451 652 470 652 260 c 0
 652 157 562 116 452 116 c 0
 352 116 235 153 158 212 c 1
 108 71 l 1
 182 30 309 -22 464 -22 c 0
417 1178 m 1
 573 1178 l 1
 811 1501 l 1
 657 1501 l 1
 489 1286 l 1
 325 1501 l 1
 178 1501 l 1
 417 1178 l 1
EndSplineSet
EndChar

StartChar: scommaaccent
Encoding: 537 537 258
Width: 896
VWidth: 0
GlyphClass: 2
Flags: W
LayerCount: 2
Fore
SplineSet
464 -22 m 0
 674 -22 808 99 812 275 c 0
 820 593 273 587 273 776 c 0
 273 859 345 907 461 907 c 0
 546 907 647 877 731 832 c 1
 775 967 l 1
 691 1011 582 1048 451 1048 c 0
 245 1048 114 941 111 771 c 0
 105 451 652 470 652 260 c 0
 652 157 562 116 452 116 c 0
 352 116 235 153 158 212 c 1
 108 71 l 1
 182 30 309 -22 464 -22 c 0
308 -625 m 1
 439 -625 l 1
 602 -162 l 1
 415 -162 l 1
 308 -625 l 1
EndSplineSet
EndChar

StartChar: section
Encoding: 167 167 259
Width: 1097
VWidth: 0
GlyphClass: 2
Flags: W
LayerCount: 2
Fore
SplineSet
482 -48 m 0
 595 -48 696 -18 765 30 c 0
 831 76 888 146 888 252 c 0
 888 378 810 437 725 480 c 1
 808 531 911 606 911 737 c 0
 911 772 902 804 886 832 c 0
 812 957 636 1001 506 1072 c 0
 448 1104 393 1140 393 1221 c 0
 393 1328 499 1356 608 1356 c 0
 692 1356 774 1332 834 1304 c 1
 832 1452 l 1
 757 1475 696 1493 603 1493 c 0
 403 1493 221 1416 221 1217 c 0
 221 1090 289 1027 374 975 c 1
 286 931 185 859 185 729 c 0
 185 697 191 667 202 640 c 0
 240 547 327 494 421 454 c 2
 505 418 l 2
 538 404 568 391 594 379 c 0
 652 352 715 322 715 243 c 0
 715 221 710 201 699 182 c 0
 663 119 578 89 477 89 c 0
 373 89 293 116 210 153 c 1
 212 4 l 1
 288 -27 380 -48 482 -48 c 0
591 547 m 1
 557 561 526 574 498 587 c 0
 434 616 362 653 362 741 c 0
 362 831 435 880 495 912 c 1
 575 868 733 846 733 723 c 0
 733 703 729 685 720 668 c 0
 693 615 640 578 591 547 c 1
EndSplineSet
EndChar

StartChar: semicolon
Encoding: 59 59 260
Width: 540
VWidth: 0
GlyphClass: 2
Flags: W
LayerCount: 2
Fore
SplineSet
100 -256 m 1
 231 -256 l 1
 394 207 l 1
 206 207 l 1
 100 -256 l 1
159 841 m 1
 376 841 l 1
 376 1051 l 1
 206 1051 l 1
 159 841 l 1
EndSplineSet
EndChar

StartChar: seven
Encoding: 55 55 261
Width: 1196
VWidth: 0
GlyphClass: 2
Flags: W
LayerCount: 2
Fore
SplineSet
315 0 m 1
 501 0 l 1
 1087 1329 l 1
 1087 1420 l 1
 117 1420 l 1
 117 1275 l 1
 895 1275 l 1
 315 0 l 1
EndSplineSet
EndChar

StartChar: six
Encoding: 54 54 262
Width: 1248
VWidth: 0
GlyphClass: 2
Flags: W
LayerCount: 2
Fore
SplineSet
641 -22 m 0
 930 -22 1144 177 1144 466 c 0
 1144 737 973 957 665 957 c 0
 555 957 366 901 301 779 c 1
 361 1052 559 1291 910 1338 c 1
 874 1484 l 1
 262 1391 99 890 127 501 c 0
 146 240 286 -22 641 -22 c 0
639 127 m 0
 404 127 294 292 294 469 c 0
 294 670 432 820 645 821 c 0
 899 822 977 634 977 461 c 0
 977 256 853 127 639 127 c 0
EndSplineSet
EndChar

StartChar: slash
Encoding: 47 47 263
Width: 717
VWidth: 0
GlyphClass: 2
Flags: W
LayerCount: 2
Fore
SplineSet
-47 -215 m 1
 116 -215 l 1
 757 1451 l 1
 590 1451 l 1
 -47 -215 l 1
EndSplineSet
EndChar

StartChar: sterling
Encoding: 163 163 265
Width: 1189
VWidth: 0
GlyphClass: 2
Flags: W
LayerCount: 2
Fore
SplineSet
115 0 m 1
 1081 0 l 1
 1081 141 l 1
 370 141 l 1
 386 154 400 171 411 194 c 0
 466 305 468 476 468 641 c 2
 468 690 l 1
 798 690 l 1
 798 832 l 1
 466 832 l 1
 463 947 l 1
 463 1156 528 1307 736 1307 c 0
 847 1307 940 1280 1010 1237 c 1
 1062 1357 l 1
 985 1418 876 1448 733 1448 c 0
 380 1448 294 1211 294 861 c 0
 294 851 295 842 296 832 c 1
 114 832 l 1
 114 690 l 1
 297 690 l 1
 297 440 l 2
 297 272 218 199 114 138 c 1
 115 0 l 1
EndSplineSet
EndChar

StartChar: summation
Encoding: 8721 8721 266
Width: 1264
VWidth: 0
GlyphClass: 2
Flags: W
LayerCount: 2
Fore
SplineSet
57 -329 m 1
 1220 -329 l 1
 1220 -181 l 1
 294 -181 l 1
 898 561 l 1
 325 1281 l 1
 1175 1281 l 1
 1175 1423 l 1
 79 1423 l 1
 79 1328 l 1
 697 552 l 1
 57 -239 l 1
 57 -329 l 1
EndSplineSet
EndChar

StartChar: t
Encoding: 116 116 267
Width: 821
VWidth: 0
GlyphClass: 2
Flags: W
LayerCount: 2
Fore
SplineSet
560 -8 m 0
 617 -8 728 13 791 35 c 1
 772 158 l 1
 725 140 625 119 579 119 c 0
 449 119 392 173 392 298 c 2
 392 919 l 1
 729 919 l 1
 729 1026 l 1
 392 1026 l 1
 392 1345 l 1
 233 1298 l 1
 233 1026 l 1
 25 1026 l 1
 25 919 l 1
 228 919 l 1
 228 300 l 2
 228 84 328 -8 560 -8 c 0
EndSplineSet
EndChar

StartChar: thorn
Encoding: 254 254 268
Width: 1239
VWidth: 0
GlyphClass: 2
Flags: W
LayerCount: 2
Fore
SplineSet
158 -427 m 1
 323 -427 l 1
 323 135 l 1
 409 30 524 -23 668 -23 c 0
 747 -23 815 -8 874 22 c 0
 1037 106 1139 284 1139 527 c 0
 1139 598 1129 664 1110 728 c 0
 1054 916 912 1051 668 1051 c 0
 507 1051 399 982 325 882 c 1
 325 1455 l 1
 158 1455 l 1
 158 -427 l 1
644 109 m 0
 592 109 546 119 506 138 c 0
 389 195 323 321 323 494 c 0
 323 732 411 917 650 917 c 0
 875 917 963 745 963 521 c 0
 963 296 870 109 644 109 c 0
EndSplineSet
EndChar

StartChar: three
Encoding: 51 51 269
Width: 1190
VWidth: 0
GlyphClass: 2
Flags: W
LayerCount: 2
Fore
SplineSet
519 -23 m 0
 796 -23 1049 115 1049 391 c 0
 1049 604 900 710 721 746 c 1
 876 790 1010 889 1010 1086 c 0
 1010 1327 793 1449 550 1449 c 0
 345 1449 181 1364 121 1217 c 1
 219 1128 l 1
 283 1236 384 1306 544 1306 c 0
 703 1306 826 1243 826 1085 c 0
 826 869 664 813 446 813 c 2
 383 813 l 1
 385 670 l 1
 462 672 l 2
 686 678 871 615 871 394 c 0
 871 210 714 119 528 119 c 0
 357 119 239 199 191 324 c 1
 108 223 l 1
 145 55 314 -23 519 -23 c 0
EndSplineSet
EndChar

StartChar: threequarters
Encoding: 190 190 270
Width: 2455
VWidth: 0
GlyphClass: 2
Flags: W
LayerCount: 2
Fore
SplineSet
-337 0 m 1
 -186 0 l 1
 629 1297 l 1
 661 1244 l 1
 710 1284 771 1322 853 1322 c 0
 934 1322 994 1291 994 1210 c 0
 994 1110 898 1089 797 1089 c 2
 748 1089 l 1
 748 970 l 1
 774 970 l 2
 783 970 797 971 804 971 c 0
 917 971 1019 948 1019 837 c 0
 1019 745 938 701 844 701 c 0
 779 701 719 727 663 779 c 1
 603 683 l 1
 660 626 742 586 849 586 c 0
 889 586 928 592 964 603 c 0
 1062 634 1148 708 1148 834 c 0
 1148 937 1094 999 1020 1032 c 1
 1082 1065 1127 1124 1127 1213 c 0
 1127 1250 1119 1282 1104 1310 c 0
 1062 1388 974 1441 855 1441 c 0
 798 1441 743 1427 697 1405 c 1
 717 1436 l 1
 568 1436 l 1
 -337 0 l 1
1914 615 m 1
 2034 615 l 1
 2034 803 l 1
 2155 803 l 1
 2145 910 l 1
 2036 910 l 1
 2036 1412 l 1
 1902 1412 l 1
 1536 894 l 1
 1536 803 l 1
 1914 803 l 1
 1914 615 l 1
1675 910 m 1
 1914 1244 l 1
 1914 910 l 1
 1675 910 l 1
EndSplineSet
EndChar

StartChar: tilde
Encoding: 732 732 271
Width: 663
VWidth: 0
GlyphClass: 2
Flags: W
LayerCount: 2
Fore
SplineSet
14 1203 m 1
 119 1203 l 1
 126 1260 156 1288 210 1288 c 0
 305 1288 367 1220 463 1220 c 0
 587 1220 645 1322 658 1435 c 1
 550 1435 l 1
 543 1384 516 1345 463 1345 c 0
 444 1345 424 1349 404 1356 c 0
 346 1377 289 1413 213 1413 c 0
 89 1413 24 1319 14 1203 c 1
EndSplineSet
EndChar

StartChar: trademark
Encoding: 8482 8482 272
Width: 1869
VWidth: 0
GlyphClass: 2
Flags: W
LayerCount: 2
Fore
SplineSet
819 686 m 1
 940 686 l 1
 940 1280 l 1
 1199 686 l 1
 1279 686 l 1
 1553 1281 l 1
 1553 686 l 1
 1675 686 l 1
 1675 1451 l 1
 1495 1451 l 1
 1245 900 l 1
 1009 1451 l 1
 819 1451 l 1
 819 686 l 1
323 686 m 1
 447 686 l 1
 447 1350 l 1
 707 1350 l 1
 707 1451 l 1
 70 1451 l 1
 70 1350 l 1
 323 1350 l 1
 323 686 l 1
EndSplineSet
EndChar

StartChar: two
Encoding: 50 50 273
Width: 1248
VWidth: 0
GlyphClass: 2
Flags: W
LayerCount: 2
Fore
SplineSet
99 0 m 1
 1035 0 l 1
 1035 145 l 1
 305 145 l 1
 407 239 521 341 623 442 c 0
 773 590 1032 806 1032 1078 c 0
 1032 1323 832 1448 584 1448 c 0
 357 1448 195 1342 133 1175 c 1
 230 1078 l 1
 285 1204 395 1307 573 1307 c 0
 731 1307 857 1228 857 1071 c 0
 857 885 687 726 583 616 c 0
 432 456 255 297 98 147 c 1
 99 0 l 1
EndSplineSet
EndChar

StartChar: u
Encoding: 117 117 274
Width: 1199
VWidth: 0
GlyphClass: 2
Flags: W
LayerCount: 2
Fore
SplineSet
522 -22 m 0
 680 -22 798 40 875 164 c 1
 887 43 982 -33 1139 -3 c 1
 1155 135 l 1
 1063 115 1014 156 1014 302 c 2
 1014 1026 l 1
 850 1026 l 1
 850 427 l 2
 850 231 712 116 547 116 c 0
 426 116 305 169 310 365 c 2
 316 595 l 2
 325 941 257 1026 257 1026 c 1
 92 1000 l 1
 92 1000 160 901 151 582 c 2
 145 365 l 2
 137 80 328 -22 522 -22 c 0
EndSplineSet
EndChar

StartChar: u.alt
Encoding: 65544 -1 275
Width: 1215
VWidth: 0
GlyphClass: 2
Flags: W
LayerCount: 2
Fore
SplineSet
530 -24 m 0
 688 -24 807 38 889 155 c 1
 916 44 1014 -4 1111 -4 c 1
 1146 139 l 1
 1094 139 1022 170 1022 286 c 2
 1022 1026 l 1
 857 1026 l 1
 857 418 l 2
 857 222 699 118 555 118 c 0
 434 118 324 183 324 379 c 2
 324 595 l 2
 324 911 285 1026 285 1026 c 1
 120 1026 l 1
 120 1026 159 871 159 582 c 2
 159 379 l 2
 159 94 336 -24 530 -24 c 0
EndSplineSet
EndChar

StartChar: uacute
Encoding: 250 250 276
Width: 1199
VWidth: 0
GlyphClass: 2
Flags: W
LayerCount: 2
Fore
SplineSet
522 -22 m 0
 680 -22 798 40 875 164 c 1
 887 43 982 -33 1139 -3 c 1
 1155 135 l 1
 1063 115 1014 156 1014 302 c 2
 1014 1026 l 1
 850 1026 l 1
 850 427 l 2
 850 231 712 116 547 116 c 0
 426 116 305 169 310 365 c 2
 316 595 l 2
 325 941 257 1026 257 1026 c 1
 92 1000 l 1
 92 1000 160 901 151 582 c 2
 145 365 l 2
 137 80 328 -22 522 -22 c 0
526 1173 m 1
 656 1173 l 1
 964 1493 l 1
 752 1493 l 1
 526 1173 l 1
EndSplineSet
EndChar

StartChar: ucircumflex
Encoding: 251 251 277
Width: 1199
VWidth: 0
GlyphClass: 2
Flags: W
LayerCount: 2
Fore
SplineSet
522 -22 m 0
 680 -22 798 40 875 164 c 1
 887 43 982 -33 1139 -3 c 1
 1155 135 l 1
 1063 115 1014 156 1014 302 c 2
 1014 1026 l 1
 850 1026 l 1
 850 427 l 2
 850 231 712 116 547 116 c 0
 426 116 305 169 310 365 c 2
 316 595 l 2
 325 941 257 1026 257 1026 c 1
 92 1000 l 1
 92 1000 160 901 151 582 c 2
 145 365 l 2
 137 80 328 -22 522 -22 c 0
284 1173 m 1
 410 1173 l 1
 588 1389 l 1
 766 1173 l 1
 898 1173 l 1
 669 1497 l 1
 512 1497 l 1
 284 1173 l 1
EndSplineSet
EndChar

StartChar: udieresis
Encoding: 252 252 278
Width: 1199
VWidth: 0
GlyphClass: 2
Flags: W
LayerCount: 2
Fore
SplineSet
522 -22 m 0
 680 -22 798 40 875 164 c 1
 887 43 982 -33 1139 -3 c 1
 1155 135 l 1
 1063 115 1014 156 1014 302 c 2
 1014 1026 l 1
 850 1026 l 1
 850 427 l 2
 850 231 712 116 547 116 c 0
 426 116 305 169 310 365 c 2
 316 595 l 2
 325 941 257 1026 257 1026 c 1
 92 1000 l 1
 92 1000 160 901 151 582 c 2
 145 365 l 2
 137 80 328 -22 522 -22 c 0
343 1173 m 1
 507 1173 l 1
 507 1336 l 1
 343 1336 l 1
 343 1173 l 1
675 1173 m 1
 839 1173 l 1
 839 1336 l 1
 675 1336 l 1
 675 1173 l 1
EndSplineSet
EndChar

StartChar: ugrave
Encoding: 249 249 279
Width: 1199
VWidth: 0
GlyphClass: 2
Flags: W
LayerCount: 2
Fore
SplineSet
522 -22 m 0
 680 -22 798 40 875 164 c 1
 887 43 982 -33 1139 -3 c 1
 1155 135 l 1
 1063 115 1014 156 1014 302 c 2
 1014 1026 l 1
 850 1026 l 1
 850 427 l 2
 850 231 712 116 547 116 c 0
 426 116 305 169 310 365 c 2
 316 595 l 2
 325 941 257 1026 257 1026 c 1
 92 1000 l 1
 92 1000 160 901 151 582 c 2
 145 365 l 2
 137 80 328 -22 522 -22 c 0
526 1173 m 1
 655 1173 l 1
 408 1493 l 1
 194 1493 l 1
 526 1173 l 1
EndSplineSet
EndChar

StartChar: underscore
Encoding: 95 95 280
Width: 998
VWidth: 0
GlyphClass: 2
Flags: W
LayerCount: 2
Fore
SplineSet
-5 -273 m 1
 998 -273 l 1
 998 -145 l 1
 -5 -145 l 1
 -5 -273 l 1
EndSplineSet
EndChar

StartChar: uni00B2
Encoding: 178 178 283
Width: 1190
VWidth: 0
GlyphClass: 2
Flags: W
LayerCount: 2
Fore
SplineSet
283 604 m 1
 829 604 l 1
 829 722 l 1
 465 722 l 1
 557 802 650 879 724 968 c 0
 778 1033 830 1108 830 1213 c 0
 830 1248 823 1279 810 1307 c 0
 771 1388 685 1440 567 1440 c 0
 429 1440 334 1370 291 1270 c 1
 376 1192 l 1
 409 1262 466 1323 561 1323 c 0
 640 1323 701 1286 701 1211 c 0
 701 1183 691 1152 670 1118 c 0
 649 1084 621 1047 584 1006 c 0
 495 908 389 812 283 715 c 1
 283 604 l 1
EndSplineSet
EndChar

StartChar: uni00B3
Encoding: 179 179 284
Width: 1190
VWidth: 0
GlyphClass: 2
Flags: W
LayerCount: 2
Fore
SplineSet
481 586 m 0
 521 586 560 592 596 603 c 0
 694 634 780 708 780 834 c 0
 780 937 726 999 652 1032 c 1
 714 1065 759 1124 759 1213 c 0
 759 1250 751 1282 736 1310 c 0
 694 1388 606 1441 487 1441 c 0
 383 1441 290 1394 235 1340 c 1
 293 1244 l 1
 342 1284 403 1322 485 1322 c 0
 566 1322 626 1291 626 1210 c 0
 626 1110 530 1089 429 1089 c 2
 380 1089 l 1
 380 970 l 1
 406 970 l 2
 415 970 429 971 436 971 c 0
 549 971 651 948 651 837 c 0
 651 745 570 701 476 701 c 0
 411 701 351 727 295 779 c 1
 235 683 l 1
 292 626 374 586 481 586 c 0
EndSplineSet
EndChar

StartChar: uni00B9
Encoding: 185 185 285
Width: 1190
VWidth: 0
GlyphClass: 2
Flags: W
LayerCount: 2
Fore
SplineSet
270 604 m 1
 635 604 l 1
 635 720 l 1
 513 720 l 1
 513 1427 l 1
 408 1412 l 1
 356 1381 307 1354 240 1333 c 1
 239 1203 l 1
 289 1222 347 1248 391 1271 c 1
 391 1168 l 2
 391 1116 392 1067 392 1008 c 2
 392 723 l 1
 270 723 l 1
 270 604 l 1
EndSplineSet
EndChar

StartChar: uni0200
Encoding: 512 512 286
Width: 1425
VWidth: 0
GlyphClass: 2
Flags: W
LayerCount: 2
Fore
SplineSet
13 0 m 1
 199 0 l 1
 355 397 l 1
 1053 397 l 1
 1216 0 l 1
 1407 0 l 1
 802 1456 l 1
 617 1456 l 1
 13 0 l 1
410 545 m 1
 655 1149 l 1
 670 1191 692 1252 707 1298 c 1
 721 1252 742 1192 760 1150 c 1
 994 545 l 1
 410 545 l 1
525 1604 m 1
 645 1604 l 1
 425 1917 l 1
 249 1917 l 1
 525 1604 l 1
794 1604 m 1
 912 1604 l 1
 695 1917 l 1
 519 1917 l 1
 794 1604 l 1
EndSplineSet
EndChar

StartChar: uni0201
Encoding: 513 513 287
Width: 1205
VWidth: 0
GlyphClass: 2
Flags: W
LayerCount: 2
Fore
SplineSet
506 -22 m 0
 664 -22 814 53 882 166 c 1
 905 64 998 -4 1114 -4 c 1
 1148 139 l 1
 1073 139 1023 198 1023 286 c 2
 1023 962 l 1
 943 1014 800 1048 666 1048 c 0
 320 1048 90 804 90 438 c 0
 90 162 256 -22 506 -22 c 0
531 116 m 0
 368 116 260 249 260 448 c 0
 260 723 421 907 663 907 c 0
 739 907 817 893 859 872 c 1
 859 453 l 2
 859 261 728 116 531 116 c 0
442 1174 m 1
 562 1174 l 1
 342 1487 l 1
 166 1487 l 1
 442 1174 l 1
711 1174 m 1
 829 1174 l 1
 612 1487 l 1
 436 1487 l 1
 711 1174 l 1
EndSplineSet
EndChar

StartChar: uni0202
Encoding: 514 514 288
Width: 1425
VWidth: 0
GlyphClass: 2
Flags: W
LayerCount: 2
Fore
SplineSet
13 0 m 1
 199 0 l 1
 355 397 l 1
 1053 397 l 1
 1216 0 l 1
 1407 0 l 1
 802 1456 l 1
 617 1456 l 1
 13 0 l 1
427 1648 m 1
 514 1648 l 1
 529 1736 602 1777 704 1777 c 0
 806 1777 885 1732 905 1648 c 1
 991 1648 l 1
 978 1802 877 1884 711 1884 c 0
 540 1884 440 1808 427 1648 c 1
410 545 m 1
 655 1149 l 1
 670 1191 692 1252 707 1298 c 1
 721 1252 742 1192 760 1150 c 1
 994 545 l 1
 410 545 l 1
EndSplineSet
EndChar

StartChar: uni0203
Encoding: 515 515 289
Width: 1205
VWidth: 0
GlyphClass: 2
Flags: W
LayerCount: 2
Fore
SplineSet
506 -22 m 0
 664 -22 814 53 882 166 c 1
 905 64 998 -4 1114 -4 c 1
 1148 139 l 1
 1073 139 1023 198 1023 286 c 2
 1023 962 l 1
 943 1014 800 1048 666 1048 c 0
 320 1048 90 804 90 438 c 0
 90 162 256 -22 506 -22 c 0
344 1218 m 1
 431 1218 l 1
 446 1306 519 1347 621 1347 c 0
 723 1347 802 1302 822 1218 c 1
 908 1218 l 1
 895 1372 794 1454 628 1454 c 0
 457 1454 357 1378 344 1218 c 1
531 116 m 0
 368 116 260 249 260 448 c 0
 260 723 421 907 663 907 c 0
 739 907 817 893 859 872 c 1
 859 453 l 2
 859 261 728 116 531 116 c 0
EndSplineSet
EndChar

StartChar: uni0204
Encoding: 516 516 290
Width: 1187
VWidth: 0
GlyphClass: 2
Flags: W
LayerCount: 2
Fore
SplineSet
174 0 m 1
 1091 0 l 1
 1091 148 l 1
 346 148 l 1
 346 672 l 1
 1003 672 l 1
 1003 820 l 1
 346 820 l 1
 346 1308 l 1
 1041 1308 l 1
 1041 1456 l 1
 174 1456 l 1
 174 0 l 1
455 1604 m 1
 575 1604 l 1
 355 1917 l 1
 179 1917 l 1
 455 1604 l 1
724 1604 m 1
 842 1604 l 1
 625 1917 l 1
 449 1917 l 1
 724 1604 l 1
EndSplineSet
EndChar

StartChar: uni0205
Encoding: 517 517 291
Width: 1070
VWidth: 0
GlyphClass: 2
Flags: W
LayerCount: 2
Fore
SplineSet
619 -22 m 0
 779 -22 931 43 1031 146 c 1
 948 252 l 1
 881 176 758 116 619 116 c 0
 471 116 325 219 285 371 c 1
 673 425 964 506 964 751 c 0
 964 918 826 1048 610 1048 c 0
 281 1048 90 797 90 516 c 0
 90 187 315 -22 619 -22 c 0
374 1174 m 1
 494 1174 l 1
 274 1487 l 1
 98 1487 l 1
 374 1174 l 1
273 490 m 1
 271 506 270 525 270 539 c 0
 270 786 445 907 611 907 c 0
 732 907 801 846 801 755 c 0
 801 594 581 534 273 490 c 1
643 1174 m 1
 761 1174 l 1
 544 1487 l 1
 368 1487 l 1
 643 1174 l 1
EndSplineSet
EndChar

StartChar: uni0206
Encoding: 518 518 292
Width: 1187
VWidth: 0
GlyphClass: 2
Flags: W
LayerCount: 2
Fore
SplineSet
174 0 m 1
 1091 0 l 1
 1091 148 l 1
 346 148 l 1
 346 672 l 1
 1003 672 l 1
 1003 820 l 1
 346 820 l 1
 346 1308 l 1
 1041 1308 l 1
 1041 1456 l 1
 174 1456 l 1
 174 0 l 1
357 1648 m 1
 444 1648 l 1
 459 1736 532 1777 634 1777 c 0
 736 1777 815 1732 835 1648 c 1
 921 1648 l 1
 908 1802 807 1884 641 1884 c 0
 470 1884 370 1808 357 1648 c 1
EndSplineSet
EndChar

StartChar: uni0207
Encoding: 519 519 293
Width: 1070
VWidth: 0
GlyphClass: 2
Flags: W
LayerCount: 2
Fore
SplineSet
619 -22 m 0
 779 -22 931 43 1031 146 c 1
 948 252 l 1
 881 176 758 116 619 116 c 0
 471 116 325 219 285 371 c 1
 673 425 964 506 964 751 c 0
 964 918 826 1048 610 1048 c 0
 281 1048 90 797 90 516 c 0
 90 187 315 -22 619 -22 c 0
276 1218 m 1
 363 1218 l 1
 378 1306 451 1347 553 1347 c 0
 655 1347 734 1302 754 1218 c 1
 840 1218 l 1
 827 1372 726 1454 560 1454 c 0
 389 1454 289 1378 276 1218 c 1
273 490 m 1
 271 506 270 525 270 539 c 0
 270 786 445 907 611 907 c 0
 732 907 801 846 801 755 c 0
 801 594 581 534 273 490 c 1
EndSplineSet
EndChar

StartChar: uni0208
Encoding: 520 520 294
Width: 544
VWidth: 0
GlyphClass: 2
Flags: W
LayerCount: 2
Fore
SplineSet
84 1604 m 1
 204 1604 l 1
 -16 1917 l 1
 -192 1917 l 1
 84 1604 l 1
186 0 m 1
 358 0 l 1
 358 1456 l 1
 186 1456 l 1
 186 0 l 1
353 1604 m 1
 471 1604 l 1
 254 1917 l 1
 78 1917 l 1
 353 1604 l 1
EndSplineSet
EndChar

StartChar: uni0209
Encoding: 521 521 295
Width: 503
VWidth: 0
GlyphClass: 2
Flags: W
LayerCount: 2
Fore
SplineSet
434 -5 m 0
 481 -5 550 10 600 30 c 1
 580 141 l 1
 545 128 487 118 457 118 c 0
 389 118 332 143 332 283 c 2
 332 1026 l 1
 167 1026 l 1
 167 278 l 2
 167 67 292 -5 434 -5 c 0
64 1174 m 1
 184 1174 l 1
 -36 1487 l 1
 -212 1487 l 1
 64 1174 l 1
333 1174 m 1
 451 1174 l 1
 234 1487 l 1
 58 1487 l 1
 333 1174 l 1
EndSplineSet
EndChar

StartChar: uni020A
Encoding: 522 522 296
Width: 544
VWidth: 0
GlyphClass: 2
Flags: W
LayerCount: 2
Fore
SplineSet
-14 1648 m 1
 73 1648 l 1
 88 1736 161 1777 263 1777 c 0
 365 1777 444 1732 464 1648 c 1
 550 1648 l 1
 537 1802 436 1884 270 1884 c 0
 99 1884 -1 1808 -14 1648 c 1
186 0 m 1
 358 0 l 1
 358 1456 l 1
 186 1456 l 1
 186 0 l 1
EndSplineSet
EndChar

StartChar: uni020B
Encoding: 523 523 297
Width: 503
VWidth: 0
GlyphClass: 2
Flags: W
LayerCount: 2
Fore
SplineSet
434 -5 m 0
 481 -5 550 10 600 30 c 1
 580 141 l 1
 545 128 487 118 457 118 c 0
 389 118 332 143 332 283 c 2
 332 1026 l 1
 167 1026 l 1
 167 278 l 2
 167 67 292 -5 434 -5 c 0
-34 1218 m 1
 53 1218 l 1
 68 1306 141 1347 243 1347 c 0
 345 1347 424 1302 444 1218 c 1
 530 1218 l 1
 517 1372 416 1454 250 1454 c 0
 79 1454 -21 1378 -34 1218 c 1
EndSplineSet
EndChar

StartChar: uni020C
Encoding: 524 524 298
Width: 1660
VWidth: 0
GlyphClass: 2
Flags: W
LayerCount: 2
Fore
SplineSet
830 127 m 0
 778 127 728 134 679 148 c 1
 759 148 l 1
 539 461 l 1
 363 461 l 1
 621 168 l 1
 436 246 296 434 296 729 c 0
 296 1128 552 1331 830 1331 c 0
 1108 1331 1364 1128 1364 729 c 0
 1364 423 1214 232 1018 160 c 1
 809 461 l 1
 633 461 l 1
 908 148 l 1
 981 148 l 1
 932 134 882 127 830 127 c 0
830 -25 m 0
 1304 -25 1548 336 1548 728 c 0
 1548 1122 1304 1483 830 1483 c 0
 356 1483 112 1122 112 728 c 0
 112 336 356 -25 830 -25 c 0
EndSplineSet
EndChar

StartChar: uni020D
Encoding: 525 525 299
Width: 1230
VWidth: 0
GlyphClass: 2
Flags: W
LayerCount: 2
Fore
SplineSet
433 1174 m 1
 553 1174 l 1
 333 1487 l 1
 157 1487 l 1
 433 1174 l 1
622 116 m 0
 406 116 262 273 262 509 c 0
 262 748 406 907 621 907 c 0
 832 907 972 749 972 511 c 0
 972 274 832 116 622 116 c 0
622 -22 m 0
 934 -22 1142 192 1142 513 c 0
 1142 834 934 1048 621 1048 c 0
 304 1048 92 833 92 511 c 0
 92 191 304 -22 622 -22 c 0
702 1174 m 1
 820 1174 l 1
 603 1487 l 1
 427 1487 l 1
 702 1174 l 1
EndSplineSet
EndChar

StartChar: uni020E
Encoding: 526 526 300
Width: 1660
VWidth: 0
GlyphClass: 2
Flags: W
LayerCount: 2
Fore
SplineSet
830 127 m 0
 739 127 650 149 572 192 c 1
 628 192 l 1
 643 280 716 321 818 321 c 0
 920 321 999 276 1019 192 c 1
 1088 192 l 1
 1010 149 921 127 830 127 c 0
1104 201 m 1
 1088 349 988 428 825 428 c 0
 660 428 562 358 543 210 c 1
 398 304 296 477 296 729 c 0
 296 1128 552 1331 830 1331 c 0
 1108 1331 1364 1128 1364 729 c 0
 1364 470 1256 293 1104 201 c 1
830 -25 m 0
 1304 -25 1548 336 1548 728 c 0
 1548 1122 1304 1483 830 1483 c 0
 356 1483 112 1122 112 728 c 0
 112 336 356 -25 830 -25 c 0
EndSplineSet
EndChar

StartChar: uni020F
Encoding: 527 527 301
Width: 1230
VWidth: 0
GlyphClass: 2
Flags: W
LayerCount: 2
Fore
SplineSet
335 1218 m 1
 422 1218 l 1
 437 1306 510 1347 612 1347 c 0
 714 1347 793 1302 813 1218 c 1
 899 1218 l 1
 886 1372 785 1454 619 1454 c 0
 448 1454 348 1378 335 1218 c 1
622 116 m 0
 406 116 262 273 262 509 c 0
 262 748 406 907 621 907 c 0
 832 907 972 749 972 511 c 0
 972 274 832 116 622 116 c 0
622 -22 m 0
 934 -22 1142 192 1142 513 c 0
 1142 834 934 1048 621 1048 c 0
 304 1048 92 833 92 511 c 0
 92 191 304 -22 622 -22 c 0
EndSplineSet
EndChar

StartChar: uni0210
Encoding: 528 528 302
Width: 1320
VWidth: 0
GlyphClass: 2
Flags: W
LayerCount: 2
Fore
SplineSet
174 0 m 1
 346 0 l 1
 346 652 l 1
 616 652 l 2
 812 652 862 564 915 419 c 2
 1068 0 l 1
 1256 0 l 1
 1093 410 l 2
 1039 546 994 670 858 715 c 1
 1024 758 1168 867 1168 1074 c 0
 1168 1410 865 1456 530 1456 c 2
 174 1456 l 1
 174 0 l 1
346 799 m 1
 346 1308 l 1
 623 1308 l 2
 826 1308 986 1261 986 1058 c 0
 986 859 809 799 612 799 c 2
 346 799 l 1
471 1604 m 1
 591 1604 l 1
 371 1917 l 1
 195 1917 l 1
 471 1604 l 1
740 1604 m 1
 858 1604 l 1
 641 1917 l 1
 465 1917 l 1
 740 1604 l 1
EndSplineSet
EndChar

StartChar: uni0211
Encoding: 529 529 303
Width: 792
VWidth: 0
GlyphClass: 2
Flags: W
LayerCount: 2
Fore
SplineSet
185 0 m 1
 349 0 l 1
 349 568 l 2
 349 803 473 907 619 907 c 0
 704 907 747 889 764 883 c 1
 778 1028 l 1
 742 1038 707 1048 624 1048 c 0
 497 1048 388 961 334 854 c 1
 324 918 290 972 255 1026 c 1
 90 974 l 1
 136 897 185 815 185 699 c 2
 185 0 l 1
303 1174 m 1
 423 1174 l 1
 203 1487 l 1
 27 1487 l 1
 303 1174 l 1
572 1174 m 1
 690 1174 l 1
 473 1487 l 1
 297 1487 l 1
 572 1174 l 1
EndSplineSet
EndChar

StartChar: uni0212
Encoding: 530 530 304
Width: 1320
VWidth: 0
GlyphClass: 2
Flags: W
LayerCount: 2
Fore
SplineSet
174 0 m 1
 346 0 l 1
 346 652 l 1
 616 652 l 2
 812 652 862 564 915 419 c 2
 1068 0 l 1
 1256 0 l 1
 1093 410 l 2
 1039 546 994 670 858 715 c 1
 1024 758 1168 867 1168 1074 c 0
 1168 1410 865 1456 530 1456 c 2
 174 1456 l 1
 174 0 l 1
373 1648 m 1
 460 1648 l 1
 475 1736 548 1777 650 1777 c 0
 752 1777 831 1732 851 1648 c 1
 937 1648 l 1
 924 1802 823 1884 657 1884 c 0
 486 1884 386 1808 373 1648 c 1
346 799 m 1
 346 1308 l 1
 623 1308 l 2
 826 1308 986 1261 986 1058 c 0
 986 859 809 799 612 799 c 2
 346 799 l 1
EndSplineSet
EndChar

StartChar: uni0213
Encoding: 531 531 305
Width: 792
VWidth: 0
GlyphClass: 2
Flags: W
LayerCount: 2
Fore
SplineSet
185 0 m 1
 349 0 l 1
 349 568 l 2
 349 803 473 907 619 907 c 0
 704 907 747 889 764 883 c 1
 778 1028 l 1
 742 1038 707 1048 624 1048 c 0
 497 1048 388 961 334 854 c 1
 324 918 290 972 255 1026 c 1
 90 974 l 1
 136 897 185 815 185 699 c 2
 185 0 l 1
205 1218 m 1
 292 1218 l 1
 307 1306 380 1347 482 1347 c 0
 584 1347 663 1302 683 1218 c 1
 769 1218 l 1
 756 1372 655 1454 489 1454 c 0
 318 1454 218 1378 205 1218 c 1
EndSplineSet
EndChar

StartChar: uni0214
Encoding: 532 532 306
Width: 1473
VWidth: 0
GlyphClass: 2
Flags: W
LayerCount: 2
Fore
SplineSet
749 -22 m 0
 1111 -22 1307 191 1309 551 c 1
 1309 1456 l 1
 1138 1456 l 1
 1138 539 l 2
 1138 279 999 123 747 123 c 0
 475 123 336 260 336 546 c 2
 336 1456 l 1
 164 1456 l 1
 164 541 l 2
 164 157 365 -22 749 -22 c 0
551 1604 m 1
 671 1604 l 1
 451 1917 l 1
 275 1917 l 1
 551 1604 l 1
820 1604 m 1
 938 1604 l 1
 721 1917 l 1
 545 1917 l 1
 820 1604 l 1
EndSplineSet
EndChar

StartChar: uni0215
Encoding: 533 533 307
Width: 1199
VWidth: 0
GlyphClass: 2
Flags: W
LayerCount: 2
Fore
SplineSet
522 -22 m 0
 680 -22 798 40 875 164 c 1
 887 43 982 -33 1139 -3 c 1
 1155 135 l 1
 1063 115 1014 156 1014 302 c 2
 1014 1026 l 1
 850 1026 l 1
 850 427 l 2
 850 231 712 116 547 116 c 0
 426 116 305 169 310 365 c 2
 316 595 l 2
 325 941 257 1026 257 1026 c 1
 92 1000 l 1
 92 1000 160 901 151 582 c 2
 145 365 l 2
 137 80 328 -22 522 -22 c 0
412 1174 m 1
 532 1174 l 1
 312 1487 l 1
 136 1487 l 1
 412 1174 l 1
681 1174 m 1
 799 1174 l 1
 582 1487 l 1
 406 1487 l 1
 681 1174 l 1
EndSplineSet
EndChar

StartChar: uni0216
Encoding: 534 534 308
Width: 1473
VWidth: 0
GlyphClass: 2
Flags: W
LayerCount: 2
Fore
SplineSet
749 -22 m 0
 1111 -22 1307 191 1309 551 c 1
 1309 1456 l 1
 1138 1456 l 1
 1138 539 l 2
 1138 279 999 123 747 123 c 0
 475 123 336 260 336 546 c 2
 336 1456 l 1
 164 1456 l 1
 164 541 l 2
 164 157 365 -22 749 -22 c 0
453 1648 m 1
 540 1648 l 1
 555 1736 628 1777 730 1777 c 0
 832 1777 911 1732 931 1648 c 1
 1017 1648 l 1
 1004 1802 903 1884 737 1884 c 0
 566 1884 466 1808 453 1648 c 1
EndSplineSet
EndChar

StartChar: uni0217
Encoding: 535 535 309
Width: 1199
VWidth: 0
GlyphClass: 2
Flags: W
LayerCount: 2
Fore
SplineSet
522 -22 m 0
 680 -22 798 40 875 164 c 1
 887 43 982 -33 1139 -3 c 1
 1155 135 l 1
 1063 115 1014 156 1014 302 c 2
 1014 1026 l 1
 850 1026 l 1
 850 427 l 2
 850 231 712 116 547 116 c 0
 426 116 305 169 310 365 c 2
 316 595 l 2
 325 941 257 1026 257 1026 c 1
 92 1000 l 1
 92 1000 160 901 151 582 c 2
 145 365 l 2
 137 80 328 -22 522 -22 c 0
314 1218 m 1
 401 1218 l 1
 416 1306 489 1347 591 1347 c 0
 693 1347 772 1302 792 1218 c 1
 878 1218 l 1
 865 1372 764 1454 598 1454 c 0
 427 1454 327 1378 314 1218 c 1
EndSplineSet
EndChar

StartChar: uni021A
Encoding: 538 538 310
Width: 1161
VWidth: 0
GlyphClass: 2
Flags: W
LayerCount: 2
Fore
SplineSet
493 0 m 1
 665 0 l 1
 665 1308 l 1
 1137 1308 l 1
 1137 1456 l 1
 24 1456 l 1
 24 1308 l 1
 493 1308 l 1
 493 0 l 1
432 -625 m 1
 563 -625 l 1
 726 -162 l 1
 539 -162 l 1
 432 -625 l 1
EndSplineSet
EndChar

StartChar: uni021B
Encoding: 539 539 311
Width: 821
VWidth: 0
GlyphClass: 2
Flags: W
LayerCount: 2
Fore
SplineSet
560 -8 m 0
 617 -8 728 13 791 35 c 1
 772 158 l 1
 725 140 625 119 579 119 c 0
 449 119 392 173 392 298 c 2
 392 919 l 1
 729 919 l 1
 729 1026 l 1
 392 1026 l 1
 392 1345 l 1
 233 1298 l 1
 233 1026 l 1
 25 1026 l 1
 25 919 l 1
 228 919 l 1
 228 300 l 2
 228 84 328 -8 560 -8 c 0
407 -625 m 1
 538 -625 l 1
 701 -162 l 1
 514 -162 l 1
 407 -625 l 1
EndSplineSet
EndChar

StartChar: uni0237
Encoding: 567 567 312
Width: 503
VWidth: 0
GlyphClass: 2
Flags: W
LayerCount: 2
Fore
SplineSet
21 -429 m 0
 67 -429 106 -422 140 -407 c 0
 296 -339 340 -150 340 73 c 2
 340 1026 l 1
 175 1026 l 1
 175 31 l 2
 175 -146 138 -283 -18 -283 c 0
 -48 -283 -72 -278 -102 -273 c 1
 -101 -416 l 1
 -63 -425 -23 -429 21 -429 c 0
EndSplineSet
EndChar

StartChar: uni0307
Encoding: 775 775 313
Width: 524
VWidth: 0
GlyphClass: 2
Flags: W
LayerCount: 2
Fore
SplineSet
184 1246 m 1
 344 1246 l 1
 344 1409 l 1
 184 1409 l 1
 184 1246 l 1
EndSplineSet
EndChar

StartChar: uni0311
Encoding: 785 785 314
Width: 629
VWidth: 0
GlyphClass: 2
Flags: W
LayerCount: 2
Fore
SplineSet
32 1218 m 1
 119 1218 l 1
 134 1306 207 1347 309 1347 c 0
 411 1347 490 1302 510 1218 c 1
 596 1218 l 1
 583 1372 482 1454 316 1454 c 0
 145 1454 45 1378 32 1218 c 1
EndSplineSet
EndChar

StartChar: uni03A9
Encoding: 937 937 315
Width: 1603
VWidth: 0
GlyphClass: 2
Flags: W
LayerCount: 2
Fore
SplineSet
104 0 m 1
 645 0 l 1
 642 121 l 1
 590 155 543 195 500 240 c 0
 386 361 293 531 293 759 c 0
 293 840 305 914 330 982 c 0
 399 1168 555 1309 804 1309 c 0
 887 1309 960 1294 1022 1264 c 0
 1194 1181 1303 1004 1303 754 c 0
 1303 687 1294 622 1276 560 c 0
 1221 367 1099 221 949 121 c 1
 953 0 l 1
 1474 0 l 1
 1483 138 l 1
 1155 137 l 1
 1242 206 1323 296 1381 398 c 0
 1437 498 1481 621 1481 772 c 0
 1481 980 1406 1143 1300 1254 c 0
 1191 1368 1026 1449 809 1449 c 0
 596 1449 426 1374 312 1266 c 0
 196 1157 114 994 114 776 c 0
 114 707 122 640 138 578 c 0
 186 385 295 240 435 137 c 1
 93 138 l 1
 104 0 l 1
EndSplineSet
EndChar

StartChar: uni03BC
Encoding: 956 956 316
Width: 1217
VWidth: 0
GlyphClass: 2
Flags: W
LayerCount: 2
Fore
SplineSet
157 -202 m 1
 322 -202 l 1
 322 31 l 1
 379 -3 449 -23 540 -23 c 0
 688 -23 801 30 878 135 c 1
 881 0 l 1
 1051 0 l 1
 1044 84 1043 156 1043 246 c 2
 1043 1026 l 1
 878 1026 l 1
 878 436 l 2
 878 392 871 350 858 310 c 0
 820 196 729 109 578 109 c 0
 396 109 322 214 322 399 c 2
 322 1026 l 1
 157 1026 l 1
 157 -202 l 1
EndSplineSet
EndChar

StartChar: uni2074
Encoding: 8308 8308 317
Width: 897
VWidth: 0
GlyphClass: 2
Flags: W
LayerCount: 2
Fore
SplineSet
356 615 m 1
 476 615 l 1
 476 803 l 1
 597 803 l 1
 587 910 l 1
 478 910 l 1
 478 1412 l 1
 344 1412 l 1
 -22 894 l 1
 -22 803 l 1
 356 803 l 1
 356 615 l 1
117 910 m 1
 356 1244 l 1
 356 910 l 1
 117 910 l 1
EndSplineSet
EndChar

StartChar: uniF6C3
Encoding: 63171 63171 318
Width: 599
VWidth: 0
GlyphClass: 2
Flags: W
LayerCount: 2
Fore
SplineSet
110 -603 m 1
 241 -603 l 1
 404 -140 l 1
 217 -140 l 1
 110 -603 l 1
EndSplineSet
EndChar

StartChar: uniFB01
Encoding: 64257 64257 319
Width: 1205
VWidth: 0
GlyphClass: 2
Flags: W
LayerCount: 2
Fore
SplineSet
246 0 m 1
 411 0 l 1
 411 919 l 1
 869 919 l 1
 869 0 l 1
 1034 0 l 1
 1034 1026 l 1
 411 1026 l 1
 412 1162 l 2
 412 1297 438 1379 573 1379 c 0
 610 1379 657 1374 683 1364 c 1
 681 1493 l 1
 637 1503 600 1514 545 1514 c 0
 322 1514 251 1358 248 1138 c 2
 246 1026 l 1
 45 1026 l 1
 45 919 l 1
 246 919 l 1
 246 0 l 1
877 1307 m 1
 1030 1307 l 1
 1030 1462 l 1
 877 1462 l 1
 877 1307 l 1
EndSplineSet
EndChar

StartChar: uniFB02
Encoding: 64258 64258 320
Width: 1385
VWidth: 0
GlyphClass: 2
Flags: W
LayerCount: 2
Fore
SplineSet
91 -449 m 1
 330 -418 417 -261 417 -11 c 2
 417 919 l 1
 665 919 l 1
 665 1026 l 1
 417 1026 l 1
 417 1193 l 2
 417 1344 467 1409 584 1409 c 0
 620 1409 658 1401 695 1392 c 1
 719 1499 l 1
 655 1521 595 1532 541 1532 c 0
 339 1532 253 1423 253 1170 c 2
 253 1026 l 1
 51 1026 l 1
 51 919 l 1
 253 919 l 1
 253 -34 l 2
 253 -194 190 -299 70 -328 c 1
 91 -449 l 1
1419 35 m 1
 1394 152 l 1
 1218 77 1031 84 1031 292 c 2
 1031 1526 l 1
 867 1496 l 1
 867 300 l 2
 867 -9 1149 -82 1419 35 c 1
EndSplineSet
EndChar

StartChar: v
Encoding: 118 118 321
Width: 1062
VWidth: 0
GlyphClass: 2
Flags: W
LayerCount: 2
Fore
SplineSet
445 0 m 1
 613 0 l 1
 1046 1026 l 1
 869 1026 l 1
 593 336 l 1
 581 309 568 264 537 163 c 1
 521 217 498 290 479 336 c 2
 198 1026 l 1
 16 1026 l 1
 445 0 l 1
EndSplineSet
EndChar

StartChar: w
Encoding: 119 119 322
Width: 1688
VWidth: 0
GlyphClass: 2
Flags: W
LayerCount: 2
Fore
SplineSet
391 0 m 1
 553 0 l 1
 853 831 l 1
 1134 0 l 1
 1294 0 l 1
 1662 1026 l 1
 1493 1026 l 1
 1253 287 l 1
 1241 255 1232 219 1219 189 c 1
 1209 219 1200 258 1190 286 c 2
 942 1026 l 1
 776 1026 l 1
 511 276 l 1
 499 249 490 214 480 186 c 1
 470 217 461 255 451 284 c 2
 202 1026 l 1
 26 1026 l 1
 391 0 l 1
EndSplineSet
EndChar

StartChar: x
Encoding: 120 120 323
Width: 1087
VWidth: 0
GlyphClass: 2
Flags: W
LayerCount: 2
Fore
SplineSet
48 0 m 1
 238 0 l 1
 542 408 l 1
 838 0 l 1
 1039 0 l 1
 648 518 l 1
 1026 1026 l 1
 847 1026 l 1
 558 626 l 1
 270 1026 l 1
 67 1026 l 1
 448 514 l 1
 48 0 l 1
EndSplineSet
EndChar

StartChar: y
Encoding: 121 121 324
Width: 1186
VWidth: 0
GlyphClass: 2
Flags: W
LayerCount: 2
Fore
SplineSet
527 -494 m 0
 826 -494 1026 -306 1026 -23 c 2
 1026 302 l 1
 1026 1026 l 1
 862 1026 l 1
 862 427 l 2
 862 231 724 116 559 116 c 0
 438 116 317 169 322 365 c 2
 328 595 l 2
 337 941 269 1026 269 1026 c 1
 104 1000 l 1
 104 1000 172 901 163 582 c 2
 157 365 l 2
 149 80 340 -22 534 -22 c 0
 676 -22 785 28 862 128 c 1
 862 -44 l 2
 862 -232 722 -357 513 -357 c 0
 424 -357 302 -326 210 -280 c 1
 191 -433 l 1
 292 -470 426 -494 527 -494 c 0
EndSplineSet
EndChar

StartChar: yacute
Encoding: 253 253 325
Width: 1186
VWidth: 0
GlyphClass: 2
Flags: W
LayerCount: 2
Fore
SplineSet
527 -494 m 0
 826 -494 1026 -306 1026 -23 c 2
 1026 302 l 1
 1026 1026 l 1
 862 1026 l 1
 862 427 l 2
 862 231 724 116 559 116 c 0
 438 116 317 169 322 365 c 2
 328 595 l 2
 337 941 269 1026 269 1026 c 1
 104 1000 l 1
 104 1000 172 901 163 582 c 2
 157 365 l 2
 149 80 340 -22 534 -22 c 0
 676 -22 785 28 862 128 c 1
 862 -44 l 2
 862 -232 722 -357 513 -357 c 0
 424 -357 302 -326 210 -280 c 1
 191 -433 l 1
 292 -470 426 -494 527 -494 c 0
535 1173 m 1
 665 1173 l 1
 973 1493 l 1
 761 1493 l 1
 535 1173 l 1
EndSplineSet
EndChar

StartChar: ydieresis
Encoding: 255 255 326
Width: 1186
VWidth: 0
GlyphClass: 2
Flags: W
LayerCount: 2
Fore
SplineSet
527 -494 m 0
 826 -494 1026 -306 1026 -23 c 2
 1026 302 l 1
 1026 1026 l 1
 862 1026 l 1
 862 427 l 2
 862 231 724 116 559 116 c 0
 438 116 317 169 322 365 c 2
 328 595 l 2
 337 941 269 1026 269 1026 c 1
 104 1000 l 1
 104 1000 172 901 163 582 c 2
 157 365 l 2
 149 80 340 -22 534 -22 c 0
 676 -22 785 28 862 128 c 1
 862 -44 l 2
 862 -232 722 -357 513 -357 c 0
 424 -357 302 -326 210 -280 c 1
 191 -433 l 1
 292 -470 426 -494 527 -494 c 0
352 1173 m 1
 516 1173 l 1
 516 1336 l 1
 352 1336 l 1
 352 1173 l 1
684 1173 m 1
 848 1173 l 1
 848 1336 l 1
 684 1336 l 1
 684 1173 l 1
EndSplineSet
EndChar

StartChar: yen
Encoding: 165 165 327
Width: 1266
VWidth: 0
GlyphClass: 2
Flags: W
LayerCount: 2
Fore
SplineSet
537 0 m 1
 709 0 l 1
 709 283 l 1
 1102 283 l 1
 1102 423 l 1
 709 423 l 1
 709 574 l 1
 1099 574 l 1
 1099 716 l 1
 791 716 l 1
 1252 1456 l 1
 1061 1456 l 1
 626 727 l 1
 195 1456 l 1
 4 1456 l 1
 455 716 l 1
 141 716 l 1
 141 574 l 1
 537 574 l 1
 537 423 l 1
 147 423 l 1
 147 283 l 1
 537 283 l 1
 537 0 l 1
EndSplineSet
EndChar

StartChar: z
Encoding: 122 122 328
Width: 979
VWidth: 0
GlyphClass: 2
Flags: W
LayerCount: 2
Fore
SplineSet
80 0 m 1
 920 0 l 1
 920 134 l 1
 305 134 l 1
 903 939 l 1
 903 1026 l 1
 106 1026 l 1
 106 891 l 1
 680 891 l 1
 80 89 l 1
 80 0 l 1
EndSplineSet
EndChar

StartChar: zacute
Encoding: 378 378 329
Width: 979
VWidth: 0
GlyphClass: 2
Flags: W
LayerCount: 2
Fore
SplineSet
80 0 m 1
 920 0 l 1
 920 134 l 1
 305 134 l 1
 903 939 l 1
 903 1026 l 1
 106 1026 l 1
 106 891 l 1
 680 891 l 1
 80 89 l 1
 80 0 l 1
445 1173 m 1
 575 1173 l 1
 883 1493 l 1
 671 1493 l 1
 445 1173 l 1
EndSplineSet
EndChar

StartChar: zcaron
Encoding: 382 382 330
Width: 979
VWidth: 0
GlyphClass: 2
Flags: W
LayerCount: 2
Fore
SplineSet
80 0 m 1
 920 0 l 1
 920 134 l 1
 305 134 l 1
 903 939 l 1
 903 1026 l 1
 106 1026 l 1
 106 891 l 1
 680 891 l 1
 80 89 l 1
 80 0 l 1
432 1173 m 1
 588 1173 l 1
 826 1496 l 1
 672 1496 l 1
 504 1281 l 1
 340 1496 l 1
 193 1496 l 1
 432 1173 l 1
EndSplineSet
EndChar

StartChar: zdotaccent
Encoding: 380 380 331
Width: 979
VWidth: 0
GlyphClass: 2
Flags: W
LayerCount: 2
Fore
SplineSet
80 0 m 1
 920 0 l 1
 920 134 l 1
 305 134 l 1
 903 939 l 1
 903 1026 l 1
 106 1026 l 1
 106 891 l 1
 680 891 l 1
 80 89 l 1
 80 0 l 1
430 1173 m 1
 590 1173 l 1
 590 1336 l 1
 430 1336 l 1
 430 1173 l 1
EndSplineSet
EndChar

StartChar: zero
Encoding: 48 48 332
Width: 1219
VWidth: 0
GlyphClass: 2
Flags: W
LayerCount: 2
Fore
SplineSet
607 119 m 0
 323 119 282 423 282 710 c 0
 282 984 341 1312 607 1312 c 0
 890 1312 931 996 931 710 c 0
 931 440 868 119 607 119 c 0
607 -23 m 0
 986 -23 1115 325 1115 710 c 0
 1115 1117 1012 1453 607 1453 c 0
 222 1453 104 1103 104 710 c 0
 104 319 219 -23 607 -23 c 0
EndSplineSet
EndChar
